SplineFontDB: 3.2
FontName: Fixed9x18-Bold
FullName: Fixed 9x18 Bold
FamilyName: Fixed 9x18
Weight: Bold
Copyright: Public domain font.  Share and enjoy.
UComments: "2020-2-12: Created with FontForge (http://fontforge.org)"
Version: 001.000
ItalicAngle: 0
UnderlinePosition: -100
UnderlineWidth: 50
Ascent: 778
Descent: 222
InvalidEm: 0
LayerCount: 2
Layer: 0 0 "Back" 1
Layer: 1 0 "Fore" 0
XUID: [1021 632 1825128881 11696191]
StyleMap: 0x0000
FSType: 0
OS2Version: 0
OS2_WeightWidthSlopeOnly: 0
OS2_UseTypoMetrics: 1
CreationTime: 1581564501
ModificationTime: 1581564504
OS2TypoAscent: 0
OS2TypoAOffset: 1
OS2TypoDescent: 0
OS2TypoDOffset: 1
OS2TypoLinegap: 90
OS2WinAscent: 0
OS2WinAOffset: 1
OS2WinDescent: 0
OS2WinDOffset: 1
HheadAscent: 0
HheadAOffset: 1
HheadDescent: 0
HheadDOffset: 1
DEI: 91125
Encoding: UnicodeBmp
UnicodeInterp: none
NameList: AGL For New Fonts
DisplaySize: 18
AntiAlias: 1
FitToEm: 0
BeginChars: 65536 762

StartChar: char0
Encoding: 0 0 0
Width: 500
VWidth: 0
Flags: HW
LayerCount: 2
Back
Fore
SplineSet
55.5556640625 500.22265625 m 1
 166.666992188 500.22265625 l 1
 166.666992188 555.77734375 l 1
 55.5556640625 555.77734375 l 1
 55.5556640625 500.22265625 l 1025
222.22265625 500.22265625 m 1
 333.333007812 500.22265625 l 1
 333.333007812 555.77734375 l 1
 222.22265625 555.77734375 l 1
 222.22265625 500.22265625 l 1025
388.888671875 500.22265625 m 1
 444.444335938 500.22265625 l 1
 444.444335938 555.77734375 l 1
 388.888671875 555.77734375 l 1
 388.888671875 500.22265625 l 1025
388.888671875 444.666992188 m 1
 444.444335938 444.666992188 l 1
 444.444335938 500.22265625 l 1
 388.888671875 500.22265625 l 1
 388.888671875 444.666992188 l 1025
55.5556640625 389.111328125 m 1
 111.111328125 389.111328125 l 1
 111.111328125 444.666992188 l 1
 55.5556640625 444.666992188 l 1
 55.5556640625 389.111328125 l 1025
55.5556640625 333.555664062 m 1
 111.111328125 333.555664062 l 1
 111.111328125 389.111328125 l 1
 55.5556640625 389.111328125 l 1
 55.5556640625 333.555664062 l 1025
388.888671875 333.555664062 m 1
 444.444335938 333.555664062 l 1
 444.444335938 389.111328125 l 1
 388.888671875 389.111328125 l 1
 388.888671875 333.555664062 l 1025
388.888671875 278 m 1
 444.444335938 278 l 1
 444.444335938 333.555664062 l 1
 388.888671875 333.555664062 l 1
 388.888671875 278 l 1025
55.5556640625 222.444335938 m 1
 111.111328125 222.444335938 l 1
 111.111328125 278 l 1
 55.5556640625 278 l 1
 55.5556640625 222.444335938 l 1025
55.5556640625 166.888671875 m 1
 111.111328125 166.888671875 l 1
 111.111328125 222.444335938 l 1
 55.5556640625 222.444335938 l 1
 55.5556640625 166.888671875 l 1025
388.888671875 166.888671875 m 1
 444.444335938 166.888671875 l 1
 444.444335938 222.444335938 l 1
 388.888671875 222.444335938 l 1
 388.888671875 166.888671875 l 1025
388.888671875 111.333007812 m 1
 444.444335938 111.333007812 l 1
 444.444335938 166.888671875 l 1
 388.888671875 166.888671875 l 1
 388.888671875 111.333007812 l 1025
55.5556640625 55.77734375 m 1
 111.111328125 55.77734375 l 1
 111.111328125 111.333007812 l 1
 55.5556640625 111.333007812 l 1
 55.5556640625 55.77734375 l 1025
55.5556640625 0.22265625 m 1
 111.111328125 0.22265625 l 1
 111.111328125 55.77734375 l 1
 55.5556640625 55.77734375 l 1
 55.5556640625 0.22265625 l 1025
166.666992188 0.22265625 m 1
 277.77734375 0.22265625 l 1
 277.77734375 55.77734375 l 1
 166.666992188 55.77734375 l 1
 166.666992188 0.22265625 l 1025
333.333007812 0.22265625 m 1
 444.444335938 0.22265625 l 1
 444.444335938 55.77734375 l 1
 333.333007812 55.77734375 l 1
 333.333007812 0.22265625 l 1
EndSplineSet
EndChar

StartChar: exclam
Encoding: 33 33 2
Width: 500
VWidth: 0
Flags: HW
LayerCount: 2
Back
Fore
SplineSet
166.666992188 555.77734375 m 1
 277.77734375 555.77734375 l 1
 277.77734375 611.333007812 l 1
 166.666992188 611.333007812 l 1
 166.666992188 555.77734375 l 1025
166.666992188 500.22265625 m 1
 277.77734375 500.22265625 l 1
 277.77734375 555.77734375 l 1
 166.666992188 555.77734375 l 1
 166.666992188 500.22265625 l 1025
166.666992188 444.666992188 m 1
 277.77734375 444.666992188 l 1
 277.77734375 500.22265625 l 1
 166.666992188 500.22265625 l 1
 166.666992188 444.666992188 l 1025
166.666992188 389.111328125 m 1
 277.77734375 389.111328125 l 1
 277.77734375 444.666992188 l 1
 166.666992188 444.666992188 l 1
 166.666992188 389.111328125 l 1025
166.666992188 333.555664062 m 1
 277.77734375 333.555664062 l 1
 277.77734375 389.111328125 l 1
 166.666992188 389.111328125 l 1
 166.666992188 333.555664062 l 1025
166.666992188 278 m 1
 277.77734375 278 l 1
 277.77734375 333.555664062 l 1
 166.666992188 333.555664062 l 1
 166.666992188 278 l 1025
166.666992188 222.444335938 m 1
 277.77734375 222.444335938 l 1
 277.77734375 278 l 1
 166.666992188 278 l 1
 166.666992188 222.444335938 l 1025
166.666992188 55.77734375 m 1
 277.77734375 55.77734375 l 1
 277.77734375 111.333007812 l 1
 166.666992188 111.333007812 l 1
 166.666992188 55.77734375 l 1025
166.666992188 0.22265625 m 1
 277.77734375 0.22265625 l 1
 277.77734375 55.77734375 l 1
 166.666992188 55.77734375 l 1
 166.666992188 0.22265625 l 1
EndSplineSet
EndChar

StartChar: quotedbl
Encoding: 34 34 3
Width: 500
VWidth: 0
Flags: HW
LayerCount: 2
Back
Fore
SplineSet
111.111328125 555.77734375 m 1
 222.22265625 555.77734375 l 1
 222.22265625 611.333007812 l 1
 111.111328125 611.333007812 l 1
 111.111328125 555.77734375 l 1025
277.77734375 555.77734375 m 1
 388.888671875 555.77734375 l 1
 388.888671875 611.333007812 l 1
 277.77734375 611.333007812 l 1
 277.77734375 555.77734375 l 1025
111.111328125 500.22265625 m 1
 222.22265625 500.22265625 l 1
 222.22265625 555.77734375 l 1
 111.111328125 555.77734375 l 1
 111.111328125 500.22265625 l 1025
277.77734375 500.22265625 m 1
 388.888671875 500.22265625 l 1
 388.888671875 555.77734375 l 1
 277.77734375 555.77734375 l 1
 277.77734375 500.22265625 l 1025
111.111328125 444.666992188 m 1
 222.22265625 444.666992188 l 1
 222.22265625 500.22265625 l 1
 111.111328125 500.22265625 l 1
 111.111328125 444.666992188 l 1025
277.77734375 444.666992188 m 1
 388.888671875 444.666992188 l 1
 388.888671875 500.22265625 l 1
 277.77734375 500.22265625 l 1
 277.77734375 444.666992188 l 1025
111.111328125 389.111328125 m 1
 222.22265625 389.111328125 l 1
 222.22265625 444.666992188 l 1
 111.111328125 444.666992188 l 1
 111.111328125 389.111328125 l 1025
277.77734375 389.111328125 m 1
 388.888671875 389.111328125 l 1
 388.888671875 444.666992188 l 1
 277.77734375 444.666992188 l 1
 277.77734375 389.111328125 l 1
EndSplineSet
EndChar

StartChar: numbersign
Encoding: 35 35 4
Width: 500
VWidth: 0
Flags: HW
LayerCount: 2
Back
Fore
SplineSet
111.111328125 500.22265625 m 1
 222.22265625 500.22265625 l 1
 222.22265625 555.77734375 l 1
 111.111328125 555.77734375 l 1
 111.111328125 500.22265625 l 1025
277.77734375 500.22265625 m 1
 388.888671875 500.22265625 l 1
 388.888671875 555.77734375 l 1
 277.77734375 555.77734375 l 1
 277.77734375 500.22265625 l 1025
111.111328125 444.666992188 m 1
 222.22265625 444.666992188 l 1
 222.22265625 500.22265625 l 1
 111.111328125 500.22265625 l 1
 111.111328125 444.666992188 l 1025
277.77734375 444.666992188 m 1
 388.888671875 444.666992188 l 1
 388.888671875 500.22265625 l 1
 277.77734375 500.22265625 l 1
 277.77734375 444.666992188 l 1025
111.111328125 389.111328125 m 1
 222.22265625 389.111328125 l 1
 222.22265625 444.666992188 l 1
 111.111328125 444.666992188 l 1
 111.111328125 389.111328125 l 1025
277.77734375 389.111328125 m 1
 388.888671875 389.111328125 l 1
 388.888671875 444.666992188 l 1
 277.77734375 444.666992188 l 1
 277.77734375 389.111328125 l 1025
55.5556640625 333.555664062 m 1
 444.444335938 333.555664062 l 1
 444.444335938 389.111328125 l 1
 55.5556640625 389.111328125 l 1
 55.5556640625 333.555664062 l 1025
111.111328125 278 m 1
 222.22265625 278 l 1
 222.22265625 333.555664062 l 1
 111.111328125 333.555664062 l 1
 111.111328125 278 l 1025
277.77734375 278 m 1
 388.888671875 278 l 1
 388.888671875 333.555664062 l 1
 277.77734375 333.555664062 l 1
 277.77734375 278 l 1025
111.111328125 222.444335938 m 1
 222.22265625 222.444335938 l 1
 222.22265625 278 l 1
 111.111328125 278 l 1
 111.111328125 222.444335938 l 1025
277.77734375 222.444335938 m 1
 388.888671875 222.444335938 l 1
 388.888671875 278 l 1
 277.77734375 278 l 1
 277.77734375 222.444335938 l 1025
55.5556640625 166.888671875 m 1
 444.444335938 166.888671875 l 1
 444.444335938 222.444335938 l 1
 55.5556640625 222.444335938 l 1
 55.5556640625 166.888671875 l 1025
111.111328125 111.333007812 m 1
 222.22265625 111.333007812 l 1
 222.22265625 166.888671875 l 1
 111.111328125 166.888671875 l 1
 111.111328125 111.333007812 l 1025
277.77734375 111.333007812 m 1
 388.888671875 111.333007812 l 1
 388.888671875 166.888671875 l 1
 277.77734375 166.888671875 l 1
 277.77734375 111.333007812 l 1025
111.111328125 55.77734375 m 1
 222.22265625 55.77734375 l 1
 222.22265625 111.333007812 l 1
 111.111328125 111.333007812 l 1
 111.111328125 55.77734375 l 1025
277.77734375 55.77734375 m 1
 388.888671875 55.77734375 l 1
 388.888671875 111.333007812 l 1
 277.77734375 111.333007812 l 1
 277.77734375 55.77734375 l 1025
111.111328125 0.22265625 m 1
 222.22265625 0.22265625 l 1
 222.22265625 55.77734375 l 1
 111.111328125 55.77734375 l 1
 111.111328125 0.22265625 l 1025
277.77734375 0.22265625 m 1
 388.888671875 0.22265625 l 1
 388.888671875 55.77734375 l 1
 277.77734375 55.77734375 l 1
 277.77734375 0.22265625 l 1
EndSplineSet
EndChar

StartChar: dollar
Encoding: 36 36 5
Width: 500
VWidth: 0
Flags: HW
LayerCount: 2
Back
Fore
SplineSet
166.666992188 500.22265625 m 1
 277.77734375 500.22265625 l 1
 277.77734375 555.77734375 l 1
 166.666992188 555.77734375 l 1
 166.666992188 500.22265625 l 1025
55.5556640625 444.666992188 m 1
 388.888671875 444.666992188 l 1
 388.888671875 500.22265625 l 1
 55.5556640625 500.22265625 l 1
 55.5556640625 444.666992188 l 1025
0 389.111328125 m 1
 111.111328125 389.111328125 l 1
 111.111328125 444.666992188 l 1
 0 444.666992188 l 1
 0 389.111328125 l 1025
166.666992188 389.111328125 m 1
 277.77734375 389.111328125 l 1
 277.77734375 444.666992188 l 1
 166.666992188 444.666992188 l 1
 166.666992188 389.111328125 l 1025
333.333007812 389.111328125 m 1
 444.444335938 389.111328125 l 1
 444.444335938 444.666992188 l 1
 333.333007812 444.666992188 l 1
 333.333007812 389.111328125 l 1025
0 333.555664062 m 1
 111.111328125 333.555664062 l 1
 111.111328125 389.111328125 l 1
 0 389.111328125 l 1
 0 333.555664062 l 1025
166.666992188 333.555664062 m 1
 277.77734375 333.555664062 l 1
 277.77734375 389.111328125 l 1
 166.666992188 389.111328125 l 1
 166.666992188 333.555664062 l 1025
55.5556640625 278 m 1
 277.77734375 278 l 1
 277.77734375 333.555664062 l 1
 55.5556640625 333.555664062 l 1
 55.5556640625 278 l 1025
111.111328125 222.444335938 m 1
 333.333007812 222.444335938 l 1
 333.333007812 278 l 1
 111.111328125 278 l 1
 111.111328125 222.444335938 l 1025
166.666992188 166.888671875 m 1
 388.888671875 166.888671875 l 1
 388.888671875 222.444335938 l 1
 166.666992188 222.444335938 l 1
 166.666992188 166.888671875 l 1025
166.666992188 111.333007812 m 1
 277.77734375 111.333007812 l 1
 277.77734375 166.888671875 l 1
 166.666992188 166.888671875 l 1
 166.666992188 111.333007812 l 1025
333.333007812 111.333007812 m 1
 444.444335938 111.333007812 l 1
 444.444335938 166.888671875 l 1
 333.333007812 166.888671875 l 1
 333.333007812 111.333007812 l 1025
0 55.77734375 m 1
 111.111328125 55.77734375 l 1
 111.111328125 111.333007812 l 1
 0 111.333007812 l 1
 0 55.77734375 l 1025
166.666992188 55.77734375 m 1
 277.77734375 55.77734375 l 1
 277.77734375 111.333007812 l 1
 166.666992188 111.333007812 l 1
 166.666992188 55.77734375 l 1025
333.333007812 55.77734375 m 1
 444.444335938 55.77734375 l 1
 444.444335938 111.333007812 l 1
 333.333007812 111.333007812 l 1
 333.333007812 55.77734375 l 1025
55.5556640625 0.22265625 m 1
 388.888671875 0.22265625 l 1
 388.888671875 55.77734375 l 1
 55.5556640625 55.77734375 l 1
 55.5556640625 0.22265625 l 1025
166.666992188 -55.3330078125 m 1
 277.77734375 -55.3330078125 l 1
 277.77734375 0.22265625 l 1
 166.666992188 0.22265625 l 1
 166.666992188 -55.3330078125 l 1
EndSplineSet
EndChar

StartChar: percent
Encoding: 37 37 6
Width: 500
VWidth: 0
Flags: HW
LayerCount: 2
Back
Fore
SplineSet
55.5556640625 500.22265625 m 1
 222.22265625 500.22265625 l 1
 222.22265625 555.77734375 l 1
 55.5556640625 555.77734375 l 1
 55.5556640625 500.22265625 l 1025
333.333007812 500.22265625 m 1
 444.444335938 500.22265625 l 1
 444.444335938 555.77734375 l 1
 333.333007812 555.77734375 l 1
 333.333007812 500.22265625 l 1025
0 444.666992188 m 1
 111.111328125 444.666992188 l 1
 111.111328125 500.22265625 l 1
 0 500.22265625 l 1
 0 444.666992188 l 1025
166.666992188 444.666992188 m 1
 388.888671875 444.666992188 l 1
 388.888671875 500.22265625 l 1
 166.666992188 500.22265625 l 1
 166.666992188 444.666992188 l 1025
0 389.111328125 m 1
 111.111328125 389.111328125 l 1
 111.111328125 444.666992188 l 1
 0 444.666992188 l 1
 0 389.111328125 l 1025
166.666992188 389.111328125 m 1
 388.888671875 389.111328125 l 1
 388.888671875 444.666992188 l 1
 166.666992188 444.666992188 l 1
 166.666992188 389.111328125 l 1025
55.5556640625 333.555664062 m 1
 166.666992188 333.555664062 l 1
 166.666992188 389.111328125 l 1
 55.5556640625 389.111328125 l 1
 55.5556640625 333.555664062 l 1025
222.22265625 333.555664062 m 1
 333.333007812 333.555664062 l 1
 333.333007812 389.111328125 l 1
 222.22265625 389.111328125 l 1
 222.22265625 333.555664062 l 1025
166.666992188 278 m 1
 277.77734375 278 l 1
 277.77734375 333.555664062 l 1
 166.666992188 333.555664062 l 1
 166.666992188 278 l 1025
166.666992188 222.444335938 m 1
 277.77734375 222.444335938 l 1
 277.77734375 278 l 1
 166.666992188 278 l 1
 166.666992188 222.444335938 l 1025
111.111328125 166.888671875 m 1
 222.22265625 166.888671875 l 1
 222.22265625 222.444335938 l 1
 111.111328125 222.444335938 l 1
 111.111328125 166.888671875 l 1025
277.77734375 166.888671875 m 1
 388.888671875 166.888671875 l 1
 388.888671875 222.444335938 l 1
 277.77734375 222.444335938 l 1
 277.77734375 166.888671875 l 1025
55.5556640625 111.333007812 m 1
 277.77734375 111.333007812 l 1
 277.77734375 166.888671875 l 1
 55.5556640625 166.888671875 l 1
 55.5556640625 111.333007812 l 1025
333.333007812 111.333007812 m 1
 444.444335938 111.333007812 l 1
 444.444335938 166.888671875 l 1
 333.333007812 166.888671875 l 1
 333.333007812 111.333007812 l 1025
55.5556640625 55.77734375 m 1
 277.77734375 55.77734375 l 1
 277.77734375 111.333007812 l 1
 55.5556640625 111.333007812 l 1
 55.5556640625 55.77734375 l 1025
333.333007812 55.77734375 m 1
 444.444335938 55.77734375 l 1
 444.444335938 111.333007812 l 1
 333.333007812 111.333007812 l 1
 333.333007812 55.77734375 l 1025
0 0.22265625 m 1
 111.111328125 0.22265625 l 1
 111.111328125 55.77734375 l 1
 0 55.77734375 l 1
 0 0.22265625 l 1025
222.22265625 0.22265625 m 1
 388.888671875 0.22265625 l 1
 388.888671875 55.77734375 l 1
 222.22265625 55.77734375 l 1
 222.22265625 0.22265625 l 1
EndSplineSet
EndChar

StartChar: ampersand
Encoding: 38 38 7
Width: 500
VWidth: 0
Flags: HW
LayerCount: 2
Back
Fore
SplineSet
55.5556640625 500.22265625 m 1
 222.22265625 500.22265625 l 1
 222.22265625 555.77734375 l 1
 55.5556640625 555.77734375 l 1
 55.5556640625 500.22265625 l 1025
0 444.666992188 m 1
 111.111328125 444.666992188 l 1
 111.111328125 500.22265625 l 1
 0 500.22265625 l 1
 0 444.666992188 l 1025
166.666992188 444.666992188 m 1
 277.77734375 444.666992188 l 1
 277.77734375 500.22265625 l 1
 166.666992188 500.22265625 l 1
 166.666992188 444.666992188 l 1025
0 389.111328125 m 1
 111.111328125 389.111328125 l 1
 111.111328125 444.666992188 l 1
 0 444.666992188 l 1
 0 389.111328125 l 1025
166.666992188 389.111328125 m 1
 277.77734375 389.111328125 l 1
 277.77734375 444.666992188 l 1
 166.666992188 444.666992188 l 1
 166.666992188 389.111328125 l 1025
0 333.555664062 m 1
 111.111328125 333.555664062 l 1
 111.111328125 389.111328125 l 1
 0 389.111328125 l 1
 0 333.555664062 l 1025
166.666992188 333.555664062 m 1
 277.77734375 333.555664062 l 1
 277.77734375 389.111328125 l 1
 166.666992188 389.111328125 l 1
 166.666992188 333.555664062 l 1025
55.5556640625 278 m 1
 222.22265625 278 l 1
 222.22265625 333.555664062 l 1
 55.5556640625 333.555664062 l 1
 55.5556640625 278 l 1025
55.5556640625 222.444335938 m 1
 222.22265625 222.444335938 l 1
 222.22265625 278 l 1
 55.5556640625 278 l 1
 55.5556640625 222.444335938 l 1025
333.333007812 222.444335938 m 1
 444.444335938 222.444335938 l 1
 444.444335938 278 l 1
 333.333007812 278 l 1
 333.333007812 222.444335938 l 1025
0 166.888671875 m 1
 111.111328125 166.888671875 l 1
 111.111328125 222.444335938 l 1
 0 222.444335938 l 1
 0 166.888671875 l 1025
166.666992188 166.888671875 m 1
 388.888671875 166.888671875 l 1
 388.888671875 222.444335938 l 1
 166.666992188 222.444335938 l 1
 166.666992188 166.888671875 l 1025
0 111.333007812 m 1
 111.111328125 111.333007812 l 1
 111.111328125 166.888671875 l 1
 0 166.888671875 l 1
 0 111.333007812 l 1025
222.22265625 111.333007812 m 1
 333.333007812 111.333007812 l 1
 333.333007812 166.888671875 l 1
 222.22265625 166.888671875 l 1
 222.22265625 111.333007812 l 1025
0 55.77734375 m 1
 111.111328125 55.77734375 l 1
 111.111328125 111.333007812 l 1
 0 111.333007812 l 1
 0 55.77734375 l 1025
166.666992188 55.77734375 m 1
 388.888671875 55.77734375 l 1
 388.888671875 111.333007812 l 1
 166.666992188 111.333007812 l 1
 166.666992188 55.77734375 l 1025
55.5556640625 0.22265625 m 1
 222.22265625 0.22265625 l 1
 222.22265625 55.77734375 l 1
 55.5556640625 55.77734375 l 1
 55.5556640625 0.22265625 l 1025
333.333007812 0.22265625 m 1
 444.444335938 0.22265625 l 1
 444.444335938 55.77734375 l 1
 333.333007812 55.77734375 l 1
 333.333007812 0.22265625 l 1
EndSplineSet
EndChar

StartChar: quotesingle
Encoding: 39 39 8
Width: 500
VWidth: 0
Flags: HW
LayerCount: 2
Back
Fore
SplineSet
166.666992188 555.77734375 m 1
 277.77734375 555.77734375 l 1
 277.77734375 611.333007812 l 1
 166.666992188 611.333007812 l 1
 166.666992188 555.77734375 l 1025
166.666992188 500.22265625 m 1
 277.77734375 500.22265625 l 1
 277.77734375 555.77734375 l 1
 166.666992188 555.77734375 l 1
 166.666992188 500.22265625 l 1025
166.666992188 444.666992188 m 1
 277.77734375 444.666992188 l 1
 277.77734375 500.22265625 l 1
 166.666992188 500.22265625 l 1
 166.666992188 444.666992188 l 1025
166.666992188 389.111328125 m 1
 277.77734375 389.111328125 l 1
 277.77734375 444.666992188 l 1
 166.666992188 444.666992188 l 1
 166.666992188 389.111328125 l 1
EndSplineSet
EndChar

StartChar: parenleft
Encoding: 40 40 9
Width: 500
VWidth: 0
Flags: HW
LayerCount: 2
Back
Fore
SplineSet
222.22265625 555.77734375 m 1
 333.333007812 555.77734375 l 1
 333.333007812 611.333007812 l 1
 222.22265625 611.333007812 l 1
 222.22265625 555.77734375 l 1025
166.666992188 500.22265625 m 1
 277.77734375 500.22265625 l 1
 277.77734375 555.77734375 l 1
 166.666992188 555.77734375 l 1
 166.666992188 500.22265625 l 1025
166.666992188 444.666992188 m 1
 277.77734375 444.666992188 l 1
 277.77734375 500.22265625 l 1
 166.666992188 500.22265625 l 1
 166.666992188 444.666992188 l 1025
111.111328125 389.111328125 m 1
 222.22265625 389.111328125 l 1
 222.22265625 444.666992188 l 1
 111.111328125 444.666992188 l 1
 111.111328125 389.111328125 l 1025
111.111328125 333.555664062 m 1
 222.22265625 333.555664062 l 1
 222.22265625 389.111328125 l 1
 111.111328125 389.111328125 l 1
 111.111328125 333.555664062 l 1025
111.111328125 278 m 1
 222.22265625 278 l 1
 222.22265625 333.555664062 l 1
 111.111328125 333.555664062 l 1
 111.111328125 278 l 1025
111.111328125 222.444335938 m 1
 222.22265625 222.444335938 l 1
 222.22265625 278 l 1
 111.111328125 278 l 1
 111.111328125 222.444335938 l 1025
111.111328125 166.888671875 m 1
 222.22265625 166.888671875 l 1
 222.22265625 222.444335938 l 1
 111.111328125 222.444335938 l 1
 111.111328125 166.888671875 l 1025
111.111328125 111.333007812 m 1
 222.22265625 111.333007812 l 1
 222.22265625 166.888671875 l 1
 111.111328125 166.888671875 l 1
 111.111328125 111.333007812 l 1025
166.666992188 55.77734375 m 1
 277.77734375 55.77734375 l 1
 277.77734375 111.333007812 l 1
 166.666992188 111.333007812 l 1
 166.666992188 55.77734375 l 1025
166.666992188 0.22265625 m 1
 277.77734375 0.22265625 l 1
 277.77734375 55.77734375 l 1
 166.666992188 55.77734375 l 1
 166.666992188 0.22265625 l 1025
222.22265625 -55.3330078125 m 1
 333.333007812 -55.3330078125 l 1
 333.333007812 0.22265625 l 1
 222.22265625 0.22265625 l 1
 222.22265625 -55.3330078125 l 1
EndSplineSet
EndChar

StartChar: parenright
Encoding: 41 41 10
Width: 500
VWidth: 0
Flags: HW
LayerCount: 2
Back
Fore
SplineSet
111.111328125 555.77734375 m 1
 222.22265625 555.77734375 l 1
 222.22265625 611.333007812 l 1
 111.111328125 611.333007812 l 1
 111.111328125 555.77734375 l 1025
166.666992188 500.22265625 m 1
 277.77734375 500.22265625 l 1
 277.77734375 555.77734375 l 1
 166.666992188 555.77734375 l 1
 166.666992188 500.22265625 l 1025
166.666992188 444.666992188 m 1
 277.77734375 444.666992188 l 1
 277.77734375 500.22265625 l 1
 166.666992188 500.22265625 l 1
 166.666992188 444.666992188 l 1025
222.22265625 389.111328125 m 1
 333.333007812 389.111328125 l 1
 333.333007812 444.666992188 l 1
 222.22265625 444.666992188 l 1
 222.22265625 389.111328125 l 1025
222.22265625 333.555664062 m 1
 333.333007812 333.555664062 l 1
 333.333007812 389.111328125 l 1
 222.22265625 389.111328125 l 1
 222.22265625 333.555664062 l 1025
222.22265625 278 m 1
 333.333007812 278 l 1
 333.333007812 333.555664062 l 1
 222.22265625 333.555664062 l 1
 222.22265625 278 l 1025
222.22265625 222.444335938 m 1
 333.333007812 222.444335938 l 1
 333.333007812 278 l 1
 222.22265625 278 l 1
 222.22265625 222.444335938 l 1025
222.22265625 166.888671875 m 1
 333.333007812 166.888671875 l 1
 333.333007812 222.444335938 l 1
 222.22265625 222.444335938 l 1
 222.22265625 166.888671875 l 1025
222.22265625 111.333007812 m 1
 333.333007812 111.333007812 l 1
 333.333007812 166.888671875 l 1
 222.22265625 166.888671875 l 1
 222.22265625 111.333007812 l 1025
166.666992188 55.77734375 m 1
 277.77734375 55.77734375 l 1
 277.77734375 111.333007812 l 1
 166.666992188 111.333007812 l 1
 166.666992188 55.77734375 l 1025
166.666992188 0.22265625 m 1
 277.77734375 0.22265625 l 1
 277.77734375 55.77734375 l 1
 166.666992188 55.77734375 l 1
 166.666992188 0.22265625 l 1025
111.111328125 -55.3330078125 m 1
 222.22265625 -55.3330078125 l 1
 222.22265625 0.22265625 l 1
 111.111328125 0.22265625 l 1
 111.111328125 -55.3330078125 l 1
EndSplineSet
EndChar

StartChar: asterisk
Encoding: 42 42 11
Width: 500
VWidth: 0
Flags: HW
LayerCount: 2
Back
Fore
SplineSet
166.666992188 389.111328125 m 1
 277.77734375 389.111328125 l 1
 277.77734375 444.666992188 l 1
 166.666992188 444.666992188 l 1
 166.666992188 389.111328125 l 1025
0 333.555664062 m 1
 111.111328125 333.555664062 l 1
 111.111328125 389.111328125 l 1
 0 389.111328125 l 1
 0 333.555664062 l 1025
166.666992188 333.555664062 m 1
 277.77734375 333.555664062 l 1
 277.77734375 389.111328125 l 1
 166.666992188 389.111328125 l 1
 166.666992188 333.555664062 l 1025
333.333007812 333.555664062 m 1
 444.444335938 333.555664062 l 1
 444.444335938 389.111328125 l 1
 333.333007812 389.111328125 l 1
 333.333007812 333.555664062 l 1025
55.5556640625 278 m 1
 388.888671875 278 l 1
 388.888671875 333.555664062 l 1
 55.5556640625 333.555664062 l 1
 55.5556640625 278 l 1025
111.111328125 222.444335938 m 1
 333.333007812 222.444335938 l 1
 333.333007812 278 l 1
 111.111328125 278 l 1
 111.111328125 222.444335938 l 1025
55.5556640625 166.888671875 m 1
 388.888671875 166.888671875 l 1
 388.888671875 222.444335938 l 1
 55.5556640625 222.444335938 l 1
 55.5556640625 166.888671875 l 1025
0 111.333007812 m 1
 111.111328125 111.333007812 l 1
 111.111328125 166.888671875 l 1
 0 166.888671875 l 1
 0 111.333007812 l 1025
166.666992188 111.333007812 m 1
 277.77734375 111.333007812 l 1
 277.77734375 166.888671875 l 1
 166.666992188 166.888671875 l 1
 166.666992188 111.333007812 l 1025
333.333007812 111.333007812 m 1
 444.444335938 111.333007812 l 1
 444.444335938 166.888671875 l 1
 333.333007812 166.888671875 l 1
 333.333007812 111.333007812 l 1025
166.666992188 55.77734375 m 1
 277.77734375 55.77734375 l 1
 277.77734375 111.333007812 l 1
 166.666992188 111.333007812 l 1
 166.666992188 55.77734375 l 1
EndSplineSet
EndChar

StartChar: plus
Encoding: 43 43 12
Width: 500
VWidth: 0
Flags: HW
LayerCount: 2
Back
Fore
SplineSet
166.666992188 389.111328125 m 1
 277.77734375 389.111328125 l 1
 277.77734375 444.666992188 l 1
 166.666992188 444.666992188 l 1
 166.666992188 389.111328125 l 1025
166.666992188 333.555664062 m 1
 277.77734375 333.555664062 l 1
 277.77734375 389.111328125 l 1
 166.666992188 389.111328125 l 1
 166.666992188 333.555664062 l 1025
166.666992188 278 m 1
 277.77734375 278 l 1
 277.77734375 333.555664062 l 1
 166.666992188 333.555664062 l 1
 166.666992188 278 l 1025
0 222.444335938 m 1
 444.444335938 222.444335938 l 1
 444.444335938 278 l 1
 0 278 l 1
 0 222.444335938 l 1025
166.666992188 166.888671875 m 1
 277.77734375 166.888671875 l 1
 277.77734375 222.444335938 l 1
 166.666992188 222.444335938 l 1
 166.666992188 166.888671875 l 1025
166.666992188 111.333007812 m 1
 277.77734375 111.333007812 l 1
 277.77734375 166.888671875 l 1
 166.666992188 166.888671875 l 1
 166.666992188 111.333007812 l 1025
166.666992188 55.77734375 m 1
 277.77734375 55.77734375 l 1
 277.77734375 111.333007812 l 1
 166.666992188 111.333007812 l 1
 166.666992188 55.77734375 l 1
EndSplineSet
EndChar

StartChar: comma
Encoding: 44 44 13
Width: 500
VWidth: 0
Flags: HW
LayerCount: 2
Back
Fore
SplineSet
166.666992188 55.77734375 m 1
 333.333007812 55.77734375 l 1
 333.333007812 111.333007812 l 1
 166.666992188 111.333007812 l 1
 166.666992188 55.77734375 l 1025
166.666992188 0.22265625 m 1
 333.333007812 0.22265625 l 1
 333.333007812 55.77734375 l 1
 166.666992188 55.77734375 l 1
 166.666992188 0.22265625 l 1025
222.22265625 -55.3330078125 m 1
 333.333007812 -55.3330078125 l 1
 333.333007812 0.22265625 l 1
 222.22265625 0.22265625 l 1
 222.22265625 -55.3330078125 l 1025
166.666992188 -110.888671875 m 1
 277.77734375 -110.888671875 l 1
 277.77734375 -55.3330078125 l 1
 166.666992188 -55.3330078125 l 1
 166.666992188 -110.888671875 l 1
EndSplineSet
EndChar

StartChar: hyphen
Encoding: 45 45 14
Width: 500
VWidth: 0
Flags: HW
LayerCount: 2
Back
Fore
SplineSet
55.5556640625 222.444335938 m 1
 444.444335938 222.444335938 l 1
 444.444335938 278 l 1
 55.5556640625 278 l 1
 55.5556640625 222.444335938 l 1
EndSplineSet
EndChar

StartChar: period
Encoding: 46 46 15
Width: 500
VWidth: 0
Flags: HW
LayerCount: 2
Back
Fore
SplineSet
166.666992188 55.77734375 m 1
 333.333007812 55.77734375 l 1
 333.333007812 111.333007812 l 1
 166.666992188 111.333007812 l 1
 166.666992188 55.77734375 l 1025
166.666992188 0.22265625 m 1
 333.333007812 0.22265625 l 1
 333.333007812 55.77734375 l 1
 166.666992188 55.77734375 l 1
 166.666992188 0.22265625 l 1
EndSplineSet
EndChar

StartChar: slash
Encoding: 47 47 16
Width: 500
VWidth: 0
Flags: HW
LayerCount: 2
Back
Fore
SplineSet
333.333007812 500.22265625 m 1
 444.444335938 500.22265625 l 1
 444.444335938 555.77734375 l 1
 333.333007812 555.77734375 l 1
 333.333007812 500.22265625 l 1025
277.77734375 444.666992188 m 1
 388.888671875 444.666992188 l 1
 388.888671875 500.22265625 l 1
 277.77734375 500.22265625 l 1
 277.77734375 444.666992188 l 1025
277.77734375 389.111328125 m 1
 388.888671875 389.111328125 l 1
 388.888671875 444.666992188 l 1
 277.77734375 444.666992188 l 1
 277.77734375 389.111328125 l 1025
222.22265625 333.555664062 m 1
 333.333007812 333.555664062 l 1
 333.333007812 389.111328125 l 1
 222.22265625 389.111328125 l 1
 222.22265625 333.555664062 l 1025
166.666992188 278 m 1
 277.77734375 278 l 1
 277.77734375 333.555664062 l 1
 166.666992188 333.555664062 l 1
 166.666992188 278 l 1025
166.666992188 222.444335938 m 1
 277.77734375 222.444335938 l 1
 277.77734375 278 l 1
 166.666992188 278 l 1
 166.666992188 222.444335938 l 1025
111.111328125 166.888671875 m 1
 222.22265625 166.888671875 l 1
 222.22265625 222.444335938 l 1
 111.111328125 222.444335938 l 1
 111.111328125 166.888671875 l 1025
55.5556640625 111.333007812 m 1
 166.666992188 111.333007812 l 1
 166.666992188 166.888671875 l 1
 55.5556640625 166.888671875 l 1
 55.5556640625 111.333007812 l 1025
55.5556640625 55.77734375 m 1
 166.666992188 55.77734375 l 1
 166.666992188 111.333007812 l 1
 55.5556640625 111.333007812 l 1
 55.5556640625 55.77734375 l 1025
0 0.22265625 m 1
 111.111328125 0.22265625 l 1
 111.111328125 55.77734375 l 1
 0 55.77734375 l 1
 0 0.22265625 l 1
EndSplineSet
EndChar

StartChar: zero
Encoding: 48 48 17
Width: 500
VWidth: 0
Flags: HW
LayerCount: 2
Back
Fore
SplineSet
166.666992188 500.22265625 m 1
 333.333007812 500.22265625 l 1
 333.333007812 555.77734375 l 1
 166.666992188 555.77734375 l 1
 166.666992188 500.22265625 l 1025
111.111328125 444.666992188 m 1
 222.22265625 444.666992188 l 1
 222.22265625 500.22265625 l 1
 111.111328125 500.22265625 l 1
 111.111328125 444.666992188 l 1025
277.77734375 444.666992188 m 1
 388.888671875 444.666992188 l 1
 388.888671875 500.22265625 l 1
 277.77734375 500.22265625 l 1
 277.77734375 444.666992188 l 1025
55.5556640625 389.111328125 m 1
 166.666992188 389.111328125 l 1
 166.666992188 444.666992188 l 1
 55.5556640625 444.666992188 l 1
 55.5556640625 389.111328125 l 1025
333.333007812 389.111328125 m 1
 444.444335938 389.111328125 l 1
 444.444335938 444.666992188 l 1
 333.333007812 444.666992188 l 1
 333.333007812 389.111328125 l 1025
55.5556640625 333.555664062 m 1
 166.666992188 333.555664062 l 1
 166.666992188 389.111328125 l 1
 55.5556640625 389.111328125 l 1
 55.5556640625 333.555664062 l 1025
333.333007812 333.555664062 m 1
 444.444335938 333.555664062 l 1
 444.444335938 389.111328125 l 1
 333.333007812 389.111328125 l 1
 333.333007812 333.555664062 l 1025
55.5556640625 278 m 1
 166.666992188 278 l 1
 166.666992188 333.555664062 l 1
 55.5556640625 333.555664062 l 1
 55.5556640625 278 l 1025
333.333007812 278 m 1
 444.444335938 278 l 1
 444.444335938 333.555664062 l 1
 333.333007812 333.555664062 l 1
 333.333007812 278 l 1025
55.5556640625 222.444335938 m 1
 166.666992188 222.444335938 l 1
 166.666992188 278 l 1
 55.5556640625 278 l 1
 55.5556640625 222.444335938 l 1025
333.333007812 222.444335938 m 1
 444.444335938 222.444335938 l 1
 444.444335938 278 l 1
 333.333007812 278 l 1
 333.333007812 222.444335938 l 1025
55.5556640625 166.888671875 m 1
 166.666992188 166.888671875 l 1
 166.666992188 222.444335938 l 1
 55.5556640625 222.444335938 l 1
 55.5556640625 166.888671875 l 1025
333.333007812 166.888671875 m 1
 444.444335938 166.888671875 l 1
 444.444335938 222.444335938 l 1
 333.333007812 222.444335938 l 1
 333.333007812 166.888671875 l 1025
55.5556640625 111.333007812 m 1
 166.666992188 111.333007812 l 1
 166.666992188 166.888671875 l 1
 55.5556640625 166.888671875 l 1
 55.5556640625 111.333007812 l 1025
333.333007812 111.333007812 m 1
 444.444335938 111.333007812 l 1
 444.444335938 166.888671875 l 1
 333.333007812 166.888671875 l 1
 333.333007812 111.333007812 l 1025
111.111328125 55.77734375 m 1
 222.22265625 55.77734375 l 1
 222.22265625 111.333007812 l 1
 111.111328125 111.333007812 l 1
 111.111328125 55.77734375 l 1025
277.77734375 55.77734375 m 1
 388.888671875 55.77734375 l 1
 388.888671875 111.333007812 l 1
 277.77734375 111.333007812 l 1
 277.77734375 55.77734375 l 1025
166.666992188 0.22265625 m 1
 333.333007812 0.22265625 l 1
 333.333007812 55.77734375 l 1
 166.666992188 55.77734375 l 1
 166.666992188 0.22265625 l 1
EndSplineSet
EndChar

StartChar: one
Encoding: 49 49 18
Width: 500
VWidth: 0
Flags: HW
LayerCount: 2
Back
Fore
SplineSet
166.666992188 500.22265625 m 1
 277.77734375 500.22265625 l 1
 277.77734375 555.77734375 l 1
 166.666992188 555.77734375 l 1
 166.666992188 500.22265625 l 1025
111.111328125 444.666992188 m 1
 277.77734375 444.666992188 l 1
 277.77734375 500.22265625 l 1
 111.111328125 500.22265625 l 1
 111.111328125 444.666992188 l 1025
55.5556640625 389.111328125 m 1
 277.77734375 389.111328125 l 1
 277.77734375 444.666992188 l 1
 55.5556640625 444.666992188 l 1
 55.5556640625 389.111328125 l 1025
0 333.555664062 m 1
 111.111328125 333.555664062 l 1
 111.111328125 389.111328125 l 1
 0 389.111328125 l 1
 0 333.555664062 l 1025
166.666992188 333.555664062 m 1
 277.77734375 333.555664062 l 1
 277.77734375 389.111328125 l 1
 166.666992188 389.111328125 l 1
 166.666992188 333.555664062 l 1025
166.666992188 278 m 1
 277.77734375 278 l 1
 277.77734375 333.555664062 l 1
 166.666992188 333.555664062 l 1
 166.666992188 278 l 1025
166.666992188 222.444335938 m 1
 277.77734375 222.444335938 l 1
 277.77734375 278 l 1
 166.666992188 278 l 1
 166.666992188 222.444335938 l 1025
166.666992188 166.888671875 m 1
 277.77734375 166.888671875 l 1
 277.77734375 222.444335938 l 1
 166.666992188 222.444335938 l 1
 166.666992188 166.888671875 l 1025
166.666992188 111.333007812 m 1
 277.77734375 111.333007812 l 1
 277.77734375 166.888671875 l 1
 166.666992188 166.888671875 l 1
 166.666992188 111.333007812 l 1025
166.666992188 55.77734375 m 1
 277.77734375 55.77734375 l 1
 277.77734375 111.333007812 l 1
 166.666992188 111.333007812 l 1
 166.666992188 55.77734375 l 1025
0 0.22265625 m 1
 444.444335938 0.22265625 l 1
 444.444335938 55.77734375 l 1
 0 55.77734375 l 1
 0 0.22265625 l 1
EndSplineSet
EndChar

StartChar: two
Encoding: 50 50 19
Width: 500
VWidth: 0
Flags: HW
LayerCount: 2
Back
Fore
SplineSet
166.666992188 500.22265625 m 1
 333.333007812 500.22265625 l 1
 333.333007812 555.77734375 l 1
 166.666992188 555.77734375 l 1
 166.666992188 500.22265625 l 1025
111.111328125 444.666992188 m 1
 222.22265625 444.666992188 l 1
 222.22265625 500.22265625 l 1
 111.111328125 500.22265625 l 1
 111.111328125 444.666992188 l 1025
277.77734375 444.666992188 m 1
 388.888671875 444.666992188 l 1
 388.888671875 500.22265625 l 1
 277.77734375 500.22265625 l 1
 277.77734375 444.666992188 l 1025
55.5556640625 389.111328125 m 1
 166.666992188 389.111328125 l 1
 166.666992188 444.666992188 l 1
 55.5556640625 444.666992188 l 1
 55.5556640625 389.111328125 l 1025
333.333007812 389.111328125 m 1
 444.444335938 389.111328125 l 1
 444.444335938 444.666992188 l 1
 333.333007812 444.666992188 l 1
 333.333007812 389.111328125 l 1025
333.333007812 333.555664062 m 1
 444.444335938 333.555664062 l 1
 444.444335938 389.111328125 l 1
 333.333007812 389.111328125 l 1
 333.333007812 333.555664062 l 1025
333.333007812 278 m 1
 444.444335938 278 l 1
 444.444335938 333.555664062 l 1
 333.333007812 333.555664062 l 1
 333.333007812 278 l 1025
277.77734375 222.444335938 m 1
 388.888671875 222.444335938 l 1
 388.888671875 278 l 1
 277.77734375 278 l 1
 277.77734375 222.444335938 l 1025
222.22265625 166.888671875 m 1
 333.333007812 166.888671875 l 1
 333.333007812 222.444335938 l 1
 222.22265625 222.444335938 l 1
 222.22265625 166.888671875 l 1025
166.666992188 111.333007812 m 1
 277.77734375 111.333007812 l 1
 277.77734375 166.888671875 l 1
 166.666992188 166.888671875 l 1
 166.666992188 111.333007812 l 1025
111.111328125 55.77734375 m 1
 222.22265625 55.77734375 l 1
 222.22265625 111.333007812 l 1
 111.111328125 111.333007812 l 1
 111.111328125 55.77734375 l 1025
55.5556640625 0.22265625 m 1
 444.444335938 0.22265625 l 1
 444.444335938 55.77734375 l 1
 55.5556640625 55.77734375 l 1
 55.5556640625 0.22265625 l 1
EndSplineSet
EndChar

StartChar: three
Encoding: 51 51 20
Width: 500
VWidth: 0
Flags: HW
LayerCount: 2
Back
Fore
SplineSet
55.5556640625 500.22265625 m 1
 444.444335938 500.22265625 l 1
 444.444335938 555.77734375 l 1
 55.5556640625 555.77734375 l 1
 55.5556640625 500.22265625 l 1025
333.333007812 444.666992188 m 1
 444.444335938 444.666992188 l 1
 444.444335938 500.22265625 l 1
 333.333007812 500.22265625 l 1
 333.333007812 444.666992188 l 1025
277.77734375 389.111328125 m 1
 388.888671875 389.111328125 l 1
 388.888671875 444.666992188 l 1
 277.77734375 444.666992188 l 1
 277.77734375 389.111328125 l 1025
222.22265625 333.555664062 m 1
 333.333007812 333.555664062 l 1
 333.333007812 389.111328125 l 1
 222.22265625 389.111328125 l 1
 222.22265625 333.555664062 l 1025
166.666992188 278 m 1
 333.333007812 278 l 1
 333.333007812 333.555664062 l 1
 166.666992188 333.555664062 l 1
 166.666992188 278 l 1025
277.77734375 222.444335938 m 1
 388.888671875 222.444335938 l 1
 388.888671875 278 l 1
 277.77734375 278 l 1
 277.77734375 222.444335938 l 1025
333.333007812 166.888671875 m 1
 444.444335938 166.888671875 l 1
 444.444335938 222.444335938 l 1
 333.333007812 222.444335938 l 1
 333.333007812 166.888671875 l 1025
333.333007812 111.333007812 m 1
 444.444335938 111.333007812 l 1
 444.444335938 166.888671875 l 1
 333.333007812 166.888671875 l 1
 333.333007812 111.333007812 l 1025
55.5556640625 55.77734375 m 1
 166.666992188 55.77734375 l 1
 166.666992188 111.333007812 l 1
 55.5556640625 111.333007812 l 1
 55.5556640625 55.77734375 l 1025
277.77734375 55.77734375 m 1
 388.888671875 55.77734375 l 1
 388.888671875 111.333007812 l 1
 277.77734375 111.333007812 l 1
 277.77734375 55.77734375 l 1025
111.111328125 0.22265625 m 1
 333.333007812 0.22265625 l 1
 333.333007812 55.77734375 l 1
 111.111328125 55.77734375 l 1
 111.111328125 0.22265625 l 1
EndSplineSet
EndChar

StartChar: four
Encoding: 52 52 21
Width: 500
VWidth: 0
Flags: HW
LayerCount: 2
Back
Fore
SplineSet
277.77734375 500.22265625 m 1
 388.888671875 500.22265625 l 1
 388.888671875 555.77734375 l 1
 277.77734375 555.77734375 l 1
 277.77734375 500.22265625 l 1025
222.22265625 444.666992188 m 1
 388.888671875 444.666992188 l 1
 388.888671875 500.22265625 l 1
 222.22265625 500.22265625 l 1
 222.22265625 444.666992188 l 1025
166.666992188 389.111328125 m 1
 388.888671875 389.111328125 l 1
 388.888671875 444.666992188 l 1
 166.666992188 444.666992188 l 1
 166.666992188 389.111328125 l 1025
111.111328125 333.555664062 m 1
 222.22265625 333.555664062 l 1
 222.22265625 389.111328125 l 1
 111.111328125 389.111328125 l 1
 111.111328125 333.555664062 l 1025
277.77734375 333.555664062 m 1
 388.888671875 333.555664062 l 1
 388.888671875 389.111328125 l 1
 277.77734375 389.111328125 l 1
 277.77734375 333.555664062 l 1025
55.5556640625 278 m 1
 166.666992188 278 l 1
 166.666992188 333.555664062 l 1
 55.5556640625 333.555664062 l 1
 55.5556640625 278 l 1025
277.77734375 278 m 1
 388.888671875 278 l 1
 388.888671875 333.555664062 l 1
 277.77734375 333.555664062 l 1
 277.77734375 278 l 1025
55.5556640625 222.444335938 m 1
 166.666992188 222.444335938 l 1
 166.666992188 278 l 1
 55.5556640625 278 l 1
 55.5556640625 222.444335938 l 1025
277.77734375 222.444335938 m 1
 388.888671875 222.444335938 l 1
 388.888671875 278 l 1
 277.77734375 278 l 1
 277.77734375 222.444335938 l 1025
55.5556640625 166.888671875 m 1
 444.444335938 166.888671875 l 1
 444.444335938 222.444335938 l 1
 55.5556640625 222.444335938 l 1
 55.5556640625 166.888671875 l 1025
277.77734375 111.333007812 m 1
 388.888671875 111.333007812 l 1
 388.888671875 166.888671875 l 1
 277.77734375 166.888671875 l 1
 277.77734375 111.333007812 l 1025
277.77734375 55.77734375 m 1
 388.888671875 55.77734375 l 1
 388.888671875 111.333007812 l 1
 277.77734375 111.333007812 l 1
 277.77734375 55.77734375 l 1025
277.77734375 0.22265625 m 1
 388.888671875 0.22265625 l 1
 388.888671875 55.77734375 l 1
 277.77734375 55.77734375 l 1
 277.77734375 0.22265625 l 1
EndSplineSet
EndChar

StartChar: five
Encoding: 53 53 22
Width: 500
VWidth: 0
Flags: HW
LayerCount: 2
Back
Fore
SplineSet
55.5556640625 500.22265625 m 1
 444.444335938 500.22265625 l 1
 444.444335938 555.77734375 l 1
 55.5556640625 555.77734375 l 1
 55.5556640625 500.22265625 l 1025
55.5556640625 444.666992188 m 1
 166.666992188 444.666992188 l 1
 166.666992188 500.22265625 l 1
 55.5556640625 500.22265625 l 1
 55.5556640625 444.666992188 l 1025
55.5556640625 389.111328125 m 1
 166.666992188 389.111328125 l 1
 166.666992188 444.666992188 l 1
 55.5556640625 444.666992188 l 1
 55.5556640625 389.111328125 l 1025
55.5556640625 333.555664062 m 1
 166.666992188 333.555664062 l 1
 166.666992188 389.111328125 l 1
 55.5556640625 389.111328125 l 1
 55.5556640625 333.555664062 l 1025
55.5556640625 278 m 1
 333.333007812 278 l 1
 333.333007812 333.555664062 l 1
 55.5556640625 333.555664062 l 1
 55.5556640625 278 l 1025
277.77734375 222.444335938 m 1
 388.888671875 222.444335938 l 1
 388.888671875 278 l 1
 277.77734375 278 l 1
 277.77734375 222.444335938 l 1025
333.333007812 166.888671875 m 1
 444.444335938 166.888671875 l 1
 444.444335938 222.444335938 l 1
 333.333007812 222.444335938 l 1
 333.333007812 166.888671875 l 1025
333.333007812 111.333007812 m 1
 444.444335938 111.333007812 l 1
 444.444335938 166.888671875 l 1
 333.333007812 166.888671875 l 1
 333.333007812 111.333007812 l 1025
55.5556640625 55.77734375 m 1
 166.666992188 55.77734375 l 1
 166.666992188 111.333007812 l 1
 55.5556640625 111.333007812 l 1
 55.5556640625 55.77734375 l 1025
277.77734375 55.77734375 m 1
 388.888671875 55.77734375 l 1
 388.888671875 111.333007812 l 1
 277.77734375 111.333007812 l 1
 277.77734375 55.77734375 l 1025
111.111328125 0.22265625 m 1
 333.333007812 0.22265625 l 1
 333.333007812 55.77734375 l 1
 111.111328125 55.77734375 l 1
 111.111328125 0.22265625 l 1
EndSplineSet
EndChar

StartChar: six
Encoding: 54 54 23
Width: 500
VWidth: 0
Flags: HW
LayerCount: 2
Back
Fore
SplineSet
166.666992188 500.22265625 m 1
 388.888671875 500.22265625 l 1
 388.888671875 555.77734375 l 1
 166.666992188 555.77734375 l 1
 166.666992188 500.22265625 l 1025
111.111328125 444.666992188 m 1
 222.22265625 444.666992188 l 1
 222.22265625 500.22265625 l 1
 111.111328125 500.22265625 l 1
 111.111328125 444.666992188 l 1025
55.5556640625 389.111328125 m 1
 166.666992188 389.111328125 l 1
 166.666992188 444.666992188 l 1
 55.5556640625 444.666992188 l 1
 55.5556640625 389.111328125 l 1025
55.5556640625 333.555664062 m 1
 166.666992188 333.555664062 l 1
 166.666992188 389.111328125 l 1
 55.5556640625 389.111328125 l 1
 55.5556640625 333.555664062 l 1025
55.5556640625 278 m 1
 333.333007812 278 l 1
 333.333007812 333.555664062 l 1
 55.5556640625 333.555664062 l 1
 55.5556640625 278 l 1025
55.5556640625 222.444335938 m 1
 166.666992188 222.444335938 l 1
 166.666992188 278 l 1
 55.5556640625 278 l 1
 55.5556640625 222.444335938 l 1025
277.77734375 222.444335938 m 1
 388.888671875 222.444335938 l 1
 388.888671875 278 l 1
 277.77734375 278 l 1
 277.77734375 222.444335938 l 1025
55.5556640625 166.888671875 m 1
 166.666992188 166.888671875 l 1
 166.666992188 222.444335938 l 1
 55.5556640625 222.444335938 l 1
 55.5556640625 166.888671875 l 1025
333.333007812 166.888671875 m 1
 444.444335938 166.888671875 l 1
 444.444335938 222.444335938 l 1
 333.333007812 222.444335938 l 1
 333.333007812 166.888671875 l 1025
55.5556640625 111.333007812 m 1
 166.666992188 111.333007812 l 1
 166.666992188 166.888671875 l 1
 55.5556640625 166.888671875 l 1
 55.5556640625 111.333007812 l 1025
333.333007812 111.333007812 m 1
 444.444335938 111.333007812 l 1
 444.444335938 166.888671875 l 1
 333.333007812 166.888671875 l 1
 333.333007812 111.333007812 l 1025
111.111328125 55.77734375 m 1
 222.22265625 55.77734375 l 1
 222.22265625 111.333007812 l 1
 111.111328125 111.333007812 l 1
 111.111328125 55.77734375 l 1025
277.77734375 55.77734375 m 1
 388.888671875 55.77734375 l 1
 388.888671875 111.333007812 l 1
 277.77734375 111.333007812 l 1
 277.77734375 55.77734375 l 1025
166.666992188 0.22265625 m 1
 333.333007812 0.22265625 l 1
 333.333007812 55.77734375 l 1
 166.666992188 55.77734375 l 1
 166.666992188 0.22265625 l 1
EndSplineSet
EndChar

StartChar: seven
Encoding: 55 55 24
Width: 500
VWidth: 0
Flags: HW
LayerCount: 2
Back
Fore
SplineSet
55.5556640625 500.22265625 m 1
 444.444335938 500.22265625 l 1
 444.444335938 555.77734375 l 1
 55.5556640625 555.77734375 l 1
 55.5556640625 500.22265625 l 1025
333.333007812 444.666992188 m 1
 444.444335938 444.666992188 l 1
 444.444335938 500.22265625 l 1
 333.333007812 500.22265625 l 1
 333.333007812 444.666992188 l 1025
277.77734375 389.111328125 m 1
 388.888671875 389.111328125 l 1
 388.888671875 444.666992188 l 1
 277.77734375 444.666992188 l 1
 277.77734375 389.111328125 l 1025
277.77734375 333.555664062 m 1
 388.888671875 333.555664062 l 1
 388.888671875 389.111328125 l 1
 277.77734375 389.111328125 l 1
 277.77734375 333.555664062 l 1025
222.22265625 278 m 1
 333.333007812 278 l 1
 333.333007812 333.555664062 l 1
 222.22265625 333.555664062 l 1
 222.22265625 278 l 1025
222.22265625 222.444335938 m 1
 333.333007812 222.444335938 l 1
 333.333007812 278 l 1
 222.22265625 278 l 1
 222.22265625 222.444335938 l 1025
166.666992188 166.888671875 m 1
 277.77734375 166.888671875 l 1
 277.77734375 222.444335938 l 1
 166.666992188 222.444335938 l 1
 166.666992188 166.888671875 l 1025
166.666992188 111.333007812 m 1
 277.77734375 111.333007812 l 1
 277.77734375 166.888671875 l 1
 166.666992188 166.888671875 l 1
 166.666992188 111.333007812 l 1025
166.666992188 55.77734375 m 1
 277.77734375 55.77734375 l 1
 277.77734375 111.333007812 l 1
 166.666992188 111.333007812 l 1
 166.666992188 55.77734375 l 1025
166.666992188 0.22265625 m 1
 277.77734375 0.22265625 l 1
 277.77734375 55.77734375 l 1
 166.666992188 55.77734375 l 1
 166.666992188 0.22265625 l 1
EndSplineSet
EndChar

StartChar: eight
Encoding: 56 56 25
Width: 500
VWidth: 0
Flags: HW
LayerCount: 2
Back
Fore
SplineSet
166.666992188 500.22265625 m 1
 333.333007812 500.22265625 l 1
 333.333007812 555.77734375 l 1
 166.666992188 555.77734375 l 1
 166.666992188 500.22265625 l 1025
111.111328125 444.666992188 m 1
 222.22265625 444.666992188 l 1
 222.22265625 500.22265625 l 1
 111.111328125 500.22265625 l 1
 111.111328125 444.666992188 l 1025
277.77734375 444.666992188 m 1
 388.888671875 444.666992188 l 1
 388.888671875 500.22265625 l 1
 277.77734375 500.22265625 l 1
 277.77734375 444.666992188 l 1025
55.5556640625 389.111328125 m 1
 166.666992188 389.111328125 l 1
 166.666992188 444.666992188 l 1
 55.5556640625 444.666992188 l 1
 55.5556640625 389.111328125 l 1025
333.333007812 389.111328125 m 1
 444.444335938 389.111328125 l 1
 444.444335938 444.666992188 l 1
 333.333007812 444.666992188 l 1
 333.333007812 389.111328125 l 1025
111.111328125 333.555664062 m 1
 222.22265625 333.555664062 l 1
 222.22265625 389.111328125 l 1
 111.111328125 389.111328125 l 1
 111.111328125 333.555664062 l 1025
277.77734375 333.555664062 m 1
 388.888671875 333.555664062 l 1
 388.888671875 389.111328125 l 1
 277.77734375 389.111328125 l 1
 277.77734375 333.555664062 l 1025
166.666992188 278 m 1
 333.333007812 278 l 1
 333.333007812 333.555664062 l 1
 166.666992188 333.555664062 l 1
 166.666992188 278 l 1025
111.111328125 222.444335938 m 1
 222.22265625 222.444335938 l 1
 222.22265625 278 l 1
 111.111328125 278 l 1
 111.111328125 222.444335938 l 1025
277.77734375 222.444335938 m 1
 388.888671875 222.444335938 l 1
 388.888671875 278 l 1
 277.77734375 278 l 1
 277.77734375 222.444335938 l 1025
55.5556640625 166.888671875 m 1
 166.666992188 166.888671875 l 1
 166.666992188 222.444335938 l 1
 55.5556640625 222.444335938 l 1
 55.5556640625 166.888671875 l 1025
333.333007812 166.888671875 m 1
 444.444335938 166.888671875 l 1
 444.444335938 222.444335938 l 1
 333.333007812 222.444335938 l 1
 333.333007812 166.888671875 l 1025
55.5556640625 111.333007812 m 1
 166.666992188 111.333007812 l 1
 166.666992188 166.888671875 l 1
 55.5556640625 166.888671875 l 1
 55.5556640625 111.333007812 l 1025
333.333007812 111.333007812 m 1
 444.444335938 111.333007812 l 1
 444.444335938 166.888671875 l 1
 333.333007812 166.888671875 l 1
 333.333007812 111.333007812 l 1025
111.111328125 55.77734375 m 1
 222.22265625 55.77734375 l 1
 222.22265625 111.333007812 l 1
 111.111328125 111.333007812 l 1
 111.111328125 55.77734375 l 1025
277.77734375 55.77734375 m 1
 388.888671875 55.77734375 l 1
 388.888671875 111.333007812 l 1
 277.77734375 111.333007812 l 1
 277.77734375 55.77734375 l 1025
166.666992188 0.22265625 m 1
 333.333007812 0.22265625 l 1
 333.333007812 55.77734375 l 1
 166.666992188 55.77734375 l 1
 166.666992188 0.22265625 l 1
EndSplineSet
EndChar

StartChar: nine
Encoding: 57 57 26
Width: 500
VWidth: 0
Flags: HW
LayerCount: 2
Back
Fore
SplineSet
166.666992188 500.22265625 m 1
 333.333007812 500.22265625 l 1
 333.333007812 555.77734375 l 1
 166.666992188 555.77734375 l 1
 166.666992188 500.22265625 l 1025
111.111328125 444.666992188 m 1
 222.22265625 444.666992188 l 1
 222.22265625 500.22265625 l 1
 111.111328125 500.22265625 l 1
 111.111328125 444.666992188 l 1025
277.77734375 444.666992188 m 1
 388.888671875 444.666992188 l 1
 388.888671875 500.22265625 l 1
 277.77734375 500.22265625 l 1
 277.77734375 444.666992188 l 1025
55.5556640625 389.111328125 m 1
 166.666992188 389.111328125 l 1
 166.666992188 444.666992188 l 1
 55.5556640625 444.666992188 l 1
 55.5556640625 389.111328125 l 1025
333.333007812 389.111328125 m 1
 444.444335938 389.111328125 l 1
 444.444335938 444.666992188 l 1
 333.333007812 444.666992188 l 1
 333.333007812 389.111328125 l 1025
55.5556640625 333.555664062 m 1
 166.666992188 333.555664062 l 1
 166.666992188 389.111328125 l 1
 55.5556640625 389.111328125 l 1
 55.5556640625 333.555664062 l 1025
333.333007812 333.555664062 m 1
 444.444335938 333.555664062 l 1
 444.444335938 389.111328125 l 1
 333.333007812 389.111328125 l 1
 333.333007812 333.555664062 l 1025
111.111328125 278 m 1
 222.22265625 278 l 1
 222.22265625 333.555664062 l 1
 111.111328125 333.555664062 l 1
 111.111328125 278 l 1025
277.77734375 278 m 1
 444.444335938 278 l 1
 444.444335938 333.555664062 l 1
 277.77734375 333.555664062 l 1
 277.77734375 278 l 1025
166.666992188 222.444335938 m 1
 444.444335938 222.444335938 l 1
 444.444335938 278 l 1
 166.666992188 278 l 1
 166.666992188 222.444335938 l 1025
333.333007812 166.888671875 m 1
 444.444335938 166.888671875 l 1
 444.444335938 222.444335938 l 1
 333.333007812 222.444335938 l 1
 333.333007812 166.888671875 l 1025
333.333007812 111.333007812 m 1
 444.444335938 111.333007812 l 1
 444.444335938 166.888671875 l 1
 333.333007812 166.888671875 l 1
 333.333007812 111.333007812 l 1025
277.77734375 55.77734375 m 1
 388.888671875 55.77734375 l 1
 388.888671875 111.333007812 l 1
 277.77734375 111.333007812 l 1
 277.77734375 55.77734375 l 1025
111.111328125 0.22265625 m 1
 333.333007812 0.22265625 l 1
 333.333007812 55.77734375 l 1
 111.111328125 55.77734375 l 1
 111.111328125 0.22265625 l 1
EndSplineSet
EndChar

StartChar: colon
Encoding: 58 58 27
Width: 500
VWidth: 0
Flags: HW
LayerCount: 2
Back
Fore
SplineSet
166.666992188 333.555664062 m 1
 333.333007812 333.555664062 l 1
 333.333007812 389.111328125 l 1
 166.666992188 389.111328125 l 1
 166.666992188 333.555664062 l 1025
166.666992188 278 m 1
 333.333007812 278 l 1
 333.333007812 333.555664062 l 1
 166.666992188 333.555664062 l 1
 166.666992188 278 l 1025
166.666992188 55.77734375 m 1
 333.333007812 55.77734375 l 1
 333.333007812 111.333007812 l 1
 166.666992188 111.333007812 l 1
 166.666992188 55.77734375 l 1025
166.666992188 0.22265625 m 1
 333.333007812 0.22265625 l 1
 333.333007812 55.77734375 l 1
 166.666992188 55.77734375 l 1
 166.666992188 0.22265625 l 1
EndSplineSet
EndChar

StartChar: semicolon
Encoding: 59 59 28
Width: 500
VWidth: 0
Flags: HW
LayerCount: 2
Back
Fore
SplineSet
166.666992188 333.555664062 m 1
 333.333007812 333.555664062 l 1
 333.333007812 389.111328125 l 1
 166.666992188 389.111328125 l 1
 166.666992188 333.555664062 l 1025
166.666992188 278 m 1
 333.333007812 278 l 1
 333.333007812 333.555664062 l 1
 166.666992188 333.555664062 l 1
 166.666992188 278 l 1025
166.666992188 55.77734375 m 1
 333.333007812 55.77734375 l 1
 333.333007812 111.333007812 l 1
 166.666992188 111.333007812 l 1
 166.666992188 55.77734375 l 1025
166.666992188 0.22265625 m 1
 333.333007812 0.22265625 l 1
 333.333007812 55.77734375 l 1
 166.666992188 55.77734375 l 1
 166.666992188 0.22265625 l 1025
222.22265625 -55.3330078125 m 1
 333.333007812 -55.3330078125 l 1
 333.333007812 0.22265625 l 1
 222.22265625 0.22265625 l 1
 222.22265625 -55.3330078125 l 1025
166.666992188 -110.888671875 m 1
 277.77734375 -110.888671875 l 1
 277.77734375 -55.3330078125 l 1
 166.666992188 -55.3330078125 l 1
 166.666992188 -110.888671875 l 1
EndSplineSet
EndChar

StartChar: less
Encoding: 60 60 29
Width: 500
VWidth: 0
Flags: HW
LayerCount: 2
Back
Fore
SplineSet
277.77734375 444.666992188 m 1
 388.888671875 444.666992188 l 1
 388.888671875 500.22265625 l 1
 277.77734375 500.22265625 l 1
 277.77734375 444.666992188 l 1025
222.22265625 389.111328125 m 1
 333.333007812 389.111328125 l 1
 333.333007812 444.666992188 l 1
 222.22265625 444.666992188 l 1
 222.22265625 389.111328125 l 1025
166.666992188 333.555664062 m 1
 277.77734375 333.555664062 l 1
 277.77734375 389.111328125 l 1
 166.666992188 389.111328125 l 1
 166.666992188 333.555664062 l 1025
111.111328125 278 m 1
 222.22265625 278 l 1
 222.22265625 333.555664062 l 1
 111.111328125 333.555664062 l 1
 111.111328125 278 l 1025
55.5556640625 222.444335938 m 1
 166.666992188 222.444335938 l 1
 166.666992188 278 l 1
 55.5556640625 278 l 1
 55.5556640625 222.444335938 l 1025
111.111328125 166.888671875 m 1
 222.22265625 166.888671875 l 1
 222.22265625 222.444335938 l 1
 111.111328125 222.444335938 l 1
 111.111328125 166.888671875 l 1025
166.666992188 111.333007812 m 1
 277.77734375 111.333007812 l 1
 277.77734375 166.888671875 l 1
 166.666992188 166.888671875 l 1
 166.666992188 111.333007812 l 1025
222.22265625 55.77734375 m 1
 333.333007812 55.77734375 l 1
 333.333007812 111.333007812 l 1
 222.22265625 111.333007812 l 1
 222.22265625 55.77734375 l 1025
277.77734375 0.22265625 m 1
 388.888671875 0.22265625 l 1
 388.888671875 55.77734375 l 1
 277.77734375 55.77734375 l 1
 277.77734375 0.22265625 l 1
EndSplineSet
EndChar

StartChar: equal
Encoding: 61 61 30
Width: 500
VWidth: 0
Flags: HW
LayerCount: 2
Back
Fore
SplineSet
55.5556640625 278 m 1
 444.444335938 278 l 1
 444.444335938 333.555664062 l 1
 55.5556640625 333.555664062 l 1
 55.5556640625 278 l 1025
55.5556640625 111.333007812 m 1
 444.444335938 111.333007812 l 1
 444.444335938 166.888671875 l 1
 55.5556640625 166.888671875 l 1
 55.5556640625 111.333007812 l 1
EndSplineSet
EndChar

StartChar: greater
Encoding: 62 62 31
Width: 500
VWidth: 0
Flags: HW
LayerCount: 2
Back
Fore
SplineSet
55.5556640625 444.666992188 m 1
 166.666992188 444.666992188 l 1
 166.666992188 500.22265625 l 1
 55.5556640625 500.22265625 l 1
 55.5556640625 444.666992188 l 1025
111.111328125 389.111328125 m 1
 222.22265625 389.111328125 l 1
 222.22265625 444.666992188 l 1
 111.111328125 444.666992188 l 1
 111.111328125 389.111328125 l 1025
166.666992188 333.555664062 m 1
 277.77734375 333.555664062 l 1
 277.77734375 389.111328125 l 1
 166.666992188 389.111328125 l 1
 166.666992188 333.555664062 l 1025
222.22265625 278 m 1
 333.333007812 278 l 1
 333.333007812 333.555664062 l 1
 222.22265625 333.555664062 l 1
 222.22265625 278 l 1025
277.77734375 222.444335938 m 1
 388.888671875 222.444335938 l 1
 388.888671875 278 l 1
 277.77734375 278 l 1
 277.77734375 222.444335938 l 1025
222.22265625 166.888671875 m 1
 333.333007812 166.888671875 l 1
 333.333007812 222.444335938 l 1
 222.22265625 222.444335938 l 1
 222.22265625 166.888671875 l 1025
166.666992188 111.333007812 m 1
 277.77734375 111.333007812 l 1
 277.77734375 166.888671875 l 1
 166.666992188 166.888671875 l 1
 166.666992188 111.333007812 l 1025
111.111328125 55.77734375 m 1
 222.22265625 55.77734375 l 1
 222.22265625 111.333007812 l 1
 111.111328125 111.333007812 l 1
 111.111328125 55.77734375 l 1025
55.5556640625 0.22265625 m 1
 166.666992188 0.22265625 l 1
 166.666992188 55.77734375 l 1
 55.5556640625 55.77734375 l 1
 55.5556640625 0.22265625 l 1
EndSplineSet
EndChar

StartChar: question
Encoding: 63 63 32
Width: 500
VWidth: 0
Flags: HW
LayerCount: 2
Back
Fore
SplineSet
166.666992188 500.22265625 m 1
 333.333007812 500.22265625 l 1
 333.333007812 555.77734375 l 1
 166.666992188 555.77734375 l 1
 166.666992188 500.22265625 l 1025
111.111328125 444.666992188 m 1
 222.22265625 444.666992188 l 1
 222.22265625 500.22265625 l 1
 111.111328125 500.22265625 l 1
 111.111328125 444.666992188 l 1025
277.77734375 444.666992188 m 1
 388.888671875 444.666992188 l 1
 388.888671875 500.22265625 l 1
 277.77734375 500.22265625 l 1
 277.77734375 444.666992188 l 1025
55.5556640625 389.111328125 m 1
 166.666992188 389.111328125 l 1
 166.666992188 444.666992188 l 1
 55.5556640625 444.666992188 l 1
 55.5556640625 389.111328125 l 1025
333.333007812 389.111328125 m 1
 444.444335938 389.111328125 l 1
 444.444335938 444.666992188 l 1
 333.333007812 444.666992188 l 1
 333.333007812 389.111328125 l 1025
333.333007812 333.555664062 m 1
 444.444335938 333.555664062 l 1
 444.444335938 389.111328125 l 1
 333.333007812 389.111328125 l 1
 333.333007812 333.555664062 l 1025
277.77734375 278 m 1
 388.888671875 278 l 1
 388.888671875 333.555664062 l 1
 277.77734375 333.555664062 l 1
 277.77734375 278 l 1025
222.22265625 222.444335938 m 1
 333.333007812 222.444335938 l 1
 333.333007812 278 l 1
 222.22265625 278 l 1
 222.22265625 222.444335938 l 1025
166.666992188 166.888671875 m 1
 277.77734375 166.888671875 l 1
 277.77734375 222.444335938 l 1
 166.666992188 222.444335938 l 1
 166.666992188 166.888671875 l 1025
166.666992188 111.333007812 m 1
 277.77734375 111.333007812 l 1
 277.77734375 166.888671875 l 1
 166.666992188 166.888671875 l 1
 166.666992188 111.333007812 l 1025
166.666992188 0.22265625 m 1
 277.77734375 0.22265625 l 1
 277.77734375 55.77734375 l 1
 166.666992188 55.77734375 l 1
 166.666992188 0.22265625 l 1
EndSplineSet
EndChar

StartChar: at
Encoding: 64 64 33
Width: 500
VWidth: 0
Flags: HW
LayerCount: 2
Back
Fore
SplineSet
111.111328125 500.22265625 m 1
 388.888671875 500.22265625 l 1
 388.888671875 555.77734375 l 1
 111.111328125 555.77734375 l 1
 111.111328125 500.22265625 l 1025
55.5556640625 444.666992188 m 1
 166.666992188 444.666992188 l 1
 166.666992188 500.22265625 l 1
 55.5556640625 500.22265625 l 1
 55.5556640625 444.666992188 l 1025
333.333007812 444.666992188 m 1
 444.444335938 444.666992188 l 1
 444.444335938 500.22265625 l 1
 333.333007812 500.22265625 l 1
 333.333007812 444.666992188 l 1025
0 389.111328125 m 1
 111.111328125 389.111328125 l 1
 111.111328125 444.666992188 l 1
 0 444.666992188 l 1
 0 389.111328125 l 1025
222.22265625 389.111328125 m 1
 333.333007812 389.111328125 l 1
 333.333007812 444.666992188 l 1
 222.22265625 444.666992188 l 1
 222.22265625 389.111328125 l 1025
388.888671875 389.111328125 m 1
 500 389.111328125 l 1
 500 444.666992188 l 1
 388.888671875 444.666992188 l 1
 388.888671875 389.111328125 l 1025
0 333.555664062 m 1
 111.111328125 333.555664062 l 1
 111.111328125 389.111328125 l 1
 0 389.111328125 l 1
 0 333.555664062 l 1025
166.666992188 333.555664062 m 1
 222.22265625 333.555664062 l 1
 222.22265625 389.111328125 l 1
 166.666992188 389.111328125 l 1
 166.666992188 333.555664062 l 1025
277.77734375 333.555664062 m 1
 333.333007812 333.555664062 l 1
 333.333007812 389.111328125 l 1
 277.77734375 389.111328125 l 1
 277.77734375 333.555664062 l 1025
388.888671875 333.555664062 m 1
 500 333.555664062 l 1
 500 389.111328125 l 1
 388.888671875 389.111328125 l 1
 388.888671875 333.555664062 l 1025
0 278 m 1
 111.111328125 278 l 1
 111.111328125 333.555664062 l 1
 0 333.555664062 l 1
 0 278 l 1025
166.666992188 278 m 1
 222.22265625 278 l 1
 222.22265625 333.555664062 l 1
 166.666992188 333.555664062 l 1
 166.666992188 278 l 1025
277.77734375 278 m 1
 333.333007812 278 l 1
 333.333007812 333.555664062 l 1
 277.77734375 333.555664062 l 1
 277.77734375 278 l 1025
388.888671875 278 m 1
 500 278 l 1
 500 333.555664062 l 1
 388.888671875 333.555664062 l 1
 388.888671875 278 l 1025
0 222.444335938 m 1
 111.111328125 222.444335938 l 1
 111.111328125 278 l 1
 0 278 l 1
 0 222.444335938 l 1025
166.666992188 222.444335938 m 1
 222.22265625 222.444335938 l 1
 222.22265625 278 l 1
 166.666992188 278 l 1
 166.666992188 222.444335938 l 1025
277.77734375 222.444335938 m 1
 333.333007812 222.444335938 l 1
 333.333007812 278 l 1
 277.77734375 278 l 1
 277.77734375 222.444335938 l 1025
388.888671875 222.444335938 m 1
 500 222.444335938 l 1
 500 278 l 1
 388.888671875 278 l 1
 388.888671875 222.444335938 l 1025
0 166.888671875 m 1
 111.111328125 166.888671875 l 1
 111.111328125 222.444335938 l 1
 0 222.444335938 l 1
 0 166.888671875 l 1025
166.666992188 166.888671875 m 1
 222.22265625 166.888671875 l 1
 222.22265625 222.444335938 l 1
 166.666992188 222.444335938 l 1
 166.666992188 166.888671875 l 1025
277.77734375 166.888671875 m 1
 333.333007812 166.888671875 l 1
 333.333007812 222.444335938 l 1
 277.77734375 222.444335938 l 1
 277.77734375 166.888671875 l 1025
388.888671875 166.888671875 m 1
 500 166.888671875 l 1
 500 222.444335938 l 1
 388.888671875 222.444335938 l 1
 388.888671875 166.888671875 l 1025
0 111.333007812 m 1
 111.111328125 111.333007812 l 1
 111.111328125 166.888671875 l 1
 0 166.888671875 l 1
 0 111.333007812 l 1025
222.22265625 111.333007812 m 1
 444.444335938 111.333007812 l 1
 444.444335938 166.888671875 l 1
 222.22265625 166.888671875 l 1
 222.22265625 111.333007812 l 1025
55.5556640625 55.77734375 m 1
 166.666992188 55.77734375 l 1
 166.666992188 111.333007812 l 1
 55.5556640625 111.333007812 l 1
 55.5556640625 55.77734375 l 1025
111.111328125 0.22265625 m 1
 388.888671875 0.22265625 l 1
 388.888671875 55.77734375 l 1
 111.111328125 55.77734375 l 1
 111.111328125 0.22265625 l 1
EndSplineSet
EndChar

StartChar: A
Encoding: 65 65 34
Width: 500
VWidth: 0
Flags: HW
LayerCount: 2
Back
Fore
SplineSet
222.22265625 500.22265625 m 1
 277.77734375 500.22265625 l 1
 277.77734375 555.77734375 l 1
 222.22265625 555.77734375 l 1
 222.22265625 500.22265625 l 1025
166.666992188 444.666992188 m 1
 333.333007812 444.666992188 l 1
 333.333007812 500.22265625 l 1
 166.666992188 500.22265625 l 1
 166.666992188 444.666992188 l 1025
166.666992188 389.111328125 m 1
 333.333007812 389.111328125 l 1
 333.333007812 444.666992188 l 1
 166.666992188 444.666992188 l 1
 166.666992188 389.111328125 l 1025
166.666992188 333.555664062 m 1
 333.333007812 333.555664062 l 1
 333.333007812 389.111328125 l 1
 166.666992188 389.111328125 l 1
 166.666992188 333.555664062 l 1025
111.111328125 278 m 1
 222.22265625 278 l 1
 222.22265625 333.555664062 l 1
 111.111328125 333.555664062 l 1
 111.111328125 278 l 1025
277.77734375 278 m 1
 388.888671875 278 l 1
 388.888671875 333.555664062 l 1
 277.77734375 333.555664062 l 1
 277.77734375 278 l 1025
111.111328125 222.444335938 m 1
 388.888671875 222.444335938 l 1
 388.888671875 278 l 1
 111.111328125 278 l 1
 111.111328125 222.444335938 l 1025
111.111328125 166.888671875 m 1
 222.22265625 166.888671875 l 1
 222.22265625 222.444335938 l 1
 111.111328125 222.444335938 l 1
 111.111328125 166.888671875 l 1025
277.77734375 166.888671875 m 1
 388.888671875 166.888671875 l 1
 388.888671875 222.444335938 l 1
 277.77734375 222.444335938 l 1
 277.77734375 166.888671875 l 1025
55.5556640625 111.333007812 m 1
 166.666992188 111.333007812 l 1
 166.666992188 166.888671875 l 1
 55.5556640625 166.888671875 l 1
 55.5556640625 111.333007812 l 1025
333.333007812 111.333007812 m 1
 444.444335938 111.333007812 l 1
 444.444335938 166.888671875 l 1
 333.333007812 166.888671875 l 1
 333.333007812 111.333007812 l 1025
55.5556640625 55.77734375 m 1
 166.666992188 55.77734375 l 1
 166.666992188 111.333007812 l 1
 55.5556640625 111.333007812 l 1
 55.5556640625 55.77734375 l 1025
333.333007812 55.77734375 m 1
 444.444335938 55.77734375 l 1
 444.444335938 111.333007812 l 1
 333.333007812 111.333007812 l 1
 333.333007812 55.77734375 l 1025
55.5556640625 0.22265625 m 1
 166.666992188 0.22265625 l 1
 166.666992188 55.77734375 l 1
 55.5556640625 55.77734375 l 1
 55.5556640625 0.22265625 l 1025
333.333007812 0.22265625 m 1
 444.444335938 0.22265625 l 1
 444.444335938 55.77734375 l 1
 333.333007812 55.77734375 l 1
 333.333007812 0.22265625 l 1
EndSplineSet
EndChar

StartChar: B
Encoding: 66 66 35
Width: 500
VWidth: 0
Flags: HW
LayerCount: 2
Back
Fore
SplineSet
55.5556640625 500.22265625 m 1
 388.888671875 500.22265625 l 1
 388.888671875 555.77734375 l 1
 55.5556640625 555.77734375 l 1
 55.5556640625 500.22265625 l 1025
55.5556640625 444.666992188 m 1
 166.666992188 444.666992188 l 1
 166.666992188 500.22265625 l 1
 55.5556640625 500.22265625 l 1
 55.5556640625 444.666992188 l 1025
333.333007812 444.666992188 m 1
 444.444335938 444.666992188 l 1
 444.444335938 500.22265625 l 1
 333.333007812 500.22265625 l 1
 333.333007812 444.666992188 l 1025
55.5556640625 389.111328125 m 1
 166.666992188 389.111328125 l 1
 166.666992188 444.666992188 l 1
 55.5556640625 444.666992188 l 1
 55.5556640625 389.111328125 l 1025
333.333007812 389.111328125 m 1
 444.444335938 389.111328125 l 1
 444.444335938 444.666992188 l 1
 333.333007812 444.666992188 l 1
 333.333007812 389.111328125 l 1025
55.5556640625 333.555664062 m 1
 166.666992188 333.555664062 l 1
 166.666992188 389.111328125 l 1
 55.5556640625 389.111328125 l 1
 55.5556640625 333.555664062 l 1025
333.333007812 333.555664062 m 1
 444.444335938 333.555664062 l 1
 444.444335938 389.111328125 l 1
 333.333007812 389.111328125 l 1
 333.333007812 333.555664062 l 1025
55.5556640625 278 m 1
 388.888671875 278 l 1
 388.888671875 333.555664062 l 1
 55.5556640625 333.555664062 l 1
 55.5556640625 278 l 1025
55.5556640625 222.444335938 m 1
 166.666992188 222.444335938 l 1
 166.666992188 278 l 1
 55.5556640625 278 l 1
 55.5556640625 222.444335938 l 1025
333.333007812 222.444335938 m 1
 444.444335938 222.444335938 l 1
 444.444335938 278 l 1
 333.333007812 278 l 1
 333.333007812 222.444335938 l 1025
55.5556640625 166.888671875 m 1
 166.666992188 166.888671875 l 1
 166.666992188 222.444335938 l 1
 55.5556640625 222.444335938 l 1
 55.5556640625 166.888671875 l 1025
333.333007812 166.888671875 m 1
 444.444335938 166.888671875 l 1
 444.444335938 222.444335938 l 1
 333.333007812 222.444335938 l 1
 333.333007812 166.888671875 l 1025
55.5556640625 111.333007812 m 1
 166.666992188 111.333007812 l 1
 166.666992188 166.888671875 l 1
 55.5556640625 166.888671875 l 1
 55.5556640625 111.333007812 l 1025
333.333007812 111.333007812 m 1
 444.444335938 111.333007812 l 1
 444.444335938 166.888671875 l 1
 333.333007812 166.888671875 l 1
 333.333007812 111.333007812 l 1025
55.5556640625 55.77734375 m 1
 166.666992188 55.77734375 l 1
 166.666992188 111.333007812 l 1
 55.5556640625 111.333007812 l 1
 55.5556640625 55.77734375 l 1025
333.333007812 55.77734375 m 1
 444.444335938 55.77734375 l 1
 444.444335938 111.333007812 l 1
 333.333007812 111.333007812 l 1
 333.333007812 55.77734375 l 1025
55.5556640625 0.22265625 m 1
 388.888671875 0.22265625 l 1
 388.888671875 55.77734375 l 1
 55.5556640625 55.77734375 l 1
 55.5556640625 0.22265625 l 1
EndSplineSet
EndChar

StartChar: C
Encoding: 67 67 36
Width: 500
VWidth: 0
Flags: HW
LayerCount: 2
Back
Fore
SplineSet
166.666992188 500.22265625 m 1
 388.888671875 500.22265625 l 1
 388.888671875 555.77734375 l 1
 166.666992188 555.77734375 l 1
 166.666992188 500.22265625 l 1025
111.111328125 444.666992188 m 1
 222.22265625 444.666992188 l 1
 222.22265625 500.22265625 l 1
 111.111328125 500.22265625 l 1
 111.111328125 444.666992188 l 1025
333.333007812 444.666992188 m 1
 444.444335938 444.666992188 l 1
 444.444335938 500.22265625 l 1
 333.333007812 500.22265625 l 1
 333.333007812 444.666992188 l 1025
55.5556640625 389.111328125 m 1
 166.666992188 389.111328125 l 1
 166.666992188 444.666992188 l 1
 55.5556640625 444.666992188 l 1
 55.5556640625 389.111328125 l 1025
55.5556640625 333.555664062 m 1
 166.666992188 333.555664062 l 1
 166.666992188 389.111328125 l 1
 55.5556640625 389.111328125 l 1
 55.5556640625 333.555664062 l 1025
55.5556640625 278 m 1
 166.666992188 278 l 1
 166.666992188 333.555664062 l 1
 55.5556640625 333.555664062 l 1
 55.5556640625 278 l 1025
55.5556640625 222.444335938 m 1
 166.666992188 222.444335938 l 1
 166.666992188 278 l 1
 55.5556640625 278 l 1
 55.5556640625 222.444335938 l 1025
55.5556640625 166.888671875 m 1
 166.666992188 166.888671875 l 1
 166.666992188 222.444335938 l 1
 55.5556640625 222.444335938 l 1
 55.5556640625 166.888671875 l 1025
55.5556640625 111.333007812 m 1
 166.666992188 111.333007812 l 1
 166.666992188 166.888671875 l 1
 55.5556640625 166.888671875 l 1
 55.5556640625 111.333007812 l 1025
111.111328125 55.77734375 m 1
 222.22265625 55.77734375 l 1
 222.22265625 111.333007812 l 1
 111.111328125 111.333007812 l 1
 111.111328125 55.77734375 l 1025
333.333007812 55.77734375 m 1
 444.444335938 55.77734375 l 1
 444.444335938 111.333007812 l 1
 333.333007812 111.333007812 l 1
 333.333007812 55.77734375 l 1025
166.666992188 0.22265625 m 1
 388.888671875 0.22265625 l 1
 388.888671875 55.77734375 l 1
 166.666992188 55.77734375 l 1
 166.666992188 0.22265625 l 1
EndSplineSet
EndChar

StartChar: D
Encoding: 68 68 37
Width: 500
VWidth: 0
Flags: HW
LayerCount: 2
Back
Fore
SplineSet
55.5556640625 500.22265625 m 1
 333.333007812 500.22265625 l 1
 333.333007812 555.77734375 l 1
 55.5556640625 555.77734375 l 1
 55.5556640625 500.22265625 l 1025
55.5556640625 444.666992188 m 1
 166.666992188 444.666992188 l 1
 166.666992188 500.22265625 l 1
 55.5556640625 500.22265625 l 1
 55.5556640625 444.666992188 l 1025
277.77734375 444.666992188 m 1
 388.888671875 444.666992188 l 1
 388.888671875 500.22265625 l 1
 277.77734375 500.22265625 l 1
 277.77734375 444.666992188 l 1025
55.5556640625 389.111328125 m 1
 166.666992188 389.111328125 l 1
 166.666992188 444.666992188 l 1
 55.5556640625 444.666992188 l 1
 55.5556640625 389.111328125 l 1025
333.333007812 389.111328125 m 1
 444.444335938 389.111328125 l 1
 444.444335938 444.666992188 l 1
 333.333007812 444.666992188 l 1
 333.333007812 389.111328125 l 1025
55.5556640625 333.555664062 m 1
 166.666992188 333.555664062 l 1
 166.666992188 389.111328125 l 1
 55.5556640625 389.111328125 l 1
 55.5556640625 333.555664062 l 1025
333.333007812 333.555664062 m 1
 444.444335938 333.555664062 l 1
 444.444335938 389.111328125 l 1
 333.333007812 389.111328125 l 1
 333.333007812 333.555664062 l 1025
55.5556640625 278 m 1
 166.666992188 278 l 1
 166.666992188 333.555664062 l 1
 55.5556640625 333.555664062 l 1
 55.5556640625 278 l 1025
333.333007812 278 m 1
 444.444335938 278 l 1
 444.444335938 333.555664062 l 1
 333.333007812 333.555664062 l 1
 333.333007812 278 l 1025
55.5556640625 222.444335938 m 1
 166.666992188 222.444335938 l 1
 166.666992188 278 l 1
 55.5556640625 278 l 1
 55.5556640625 222.444335938 l 1025
333.333007812 222.444335938 m 1
 444.444335938 222.444335938 l 1
 444.444335938 278 l 1
 333.333007812 278 l 1
 333.333007812 222.444335938 l 1025
55.5556640625 166.888671875 m 1
 166.666992188 166.888671875 l 1
 166.666992188 222.444335938 l 1
 55.5556640625 222.444335938 l 1
 55.5556640625 166.888671875 l 1025
333.333007812 166.888671875 m 1
 444.444335938 166.888671875 l 1
 444.444335938 222.444335938 l 1
 333.333007812 222.444335938 l 1
 333.333007812 166.888671875 l 1025
55.5556640625 111.333007812 m 1
 166.666992188 111.333007812 l 1
 166.666992188 166.888671875 l 1
 55.5556640625 166.888671875 l 1
 55.5556640625 111.333007812 l 1025
333.333007812 111.333007812 m 1
 444.444335938 111.333007812 l 1
 444.444335938 166.888671875 l 1
 333.333007812 166.888671875 l 1
 333.333007812 111.333007812 l 1025
55.5556640625 55.77734375 m 1
 166.666992188 55.77734375 l 1
 166.666992188 111.333007812 l 1
 55.5556640625 111.333007812 l 1
 55.5556640625 55.77734375 l 1025
277.77734375 55.77734375 m 1
 388.888671875 55.77734375 l 1
 388.888671875 111.333007812 l 1
 277.77734375 111.333007812 l 1
 277.77734375 55.77734375 l 1025
55.5556640625 0.22265625 m 1
 333.333007812 0.22265625 l 1
 333.333007812 55.77734375 l 1
 55.5556640625 55.77734375 l 1
 55.5556640625 0.22265625 l 1
EndSplineSet
EndChar

StartChar: E
Encoding: 69 69 38
Width: 500
VWidth: 0
Flags: HW
LayerCount: 2
Back
Fore
SplineSet
55.5556640625 500.22265625 m 1
 444.444335938 500.22265625 l 1
 444.444335938 555.77734375 l 1
 55.5556640625 555.77734375 l 1
 55.5556640625 500.22265625 l 1025
55.5556640625 444.666992188 m 1
 166.666992188 444.666992188 l 1
 166.666992188 500.22265625 l 1
 55.5556640625 500.22265625 l 1
 55.5556640625 444.666992188 l 1025
55.5556640625 389.111328125 m 1
 166.666992188 389.111328125 l 1
 166.666992188 444.666992188 l 1
 55.5556640625 444.666992188 l 1
 55.5556640625 389.111328125 l 1025
55.5556640625 333.555664062 m 1
 166.666992188 333.555664062 l 1
 166.666992188 389.111328125 l 1
 55.5556640625 389.111328125 l 1
 55.5556640625 333.555664062 l 1025
55.5556640625 278 m 1
 333.333007812 278 l 1
 333.333007812 333.555664062 l 1
 55.5556640625 333.555664062 l 1
 55.5556640625 278 l 1025
55.5556640625 222.444335938 m 1
 166.666992188 222.444335938 l 1
 166.666992188 278 l 1
 55.5556640625 278 l 1
 55.5556640625 222.444335938 l 1025
55.5556640625 166.888671875 m 1
 166.666992188 166.888671875 l 1
 166.666992188 222.444335938 l 1
 55.5556640625 222.444335938 l 1
 55.5556640625 166.888671875 l 1025
55.5556640625 111.333007812 m 1
 166.666992188 111.333007812 l 1
 166.666992188 166.888671875 l 1
 55.5556640625 166.888671875 l 1
 55.5556640625 111.333007812 l 1025
55.5556640625 55.77734375 m 1
 166.666992188 55.77734375 l 1
 166.666992188 111.333007812 l 1
 55.5556640625 111.333007812 l 1
 55.5556640625 55.77734375 l 1025
55.5556640625 0.22265625 m 1
 444.444335938 0.22265625 l 1
 444.444335938 55.77734375 l 1
 55.5556640625 55.77734375 l 1
 55.5556640625 0.22265625 l 1
EndSplineSet
EndChar

StartChar: F
Encoding: 70 70 39
Width: 500
VWidth: 0
Flags: HW
LayerCount: 2
Back
Fore
SplineSet
55.5556640625 500.22265625 m 1
 444.444335938 500.22265625 l 1
 444.444335938 555.77734375 l 1
 55.5556640625 555.77734375 l 1
 55.5556640625 500.22265625 l 1025
55.5556640625 444.666992188 m 1
 166.666992188 444.666992188 l 1
 166.666992188 500.22265625 l 1
 55.5556640625 500.22265625 l 1
 55.5556640625 444.666992188 l 1025
55.5556640625 389.111328125 m 1
 166.666992188 389.111328125 l 1
 166.666992188 444.666992188 l 1
 55.5556640625 444.666992188 l 1
 55.5556640625 389.111328125 l 1025
55.5556640625 333.555664062 m 1
 166.666992188 333.555664062 l 1
 166.666992188 389.111328125 l 1
 55.5556640625 389.111328125 l 1
 55.5556640625 333.555664062 l 1025
55.5556640625 278 m 1
 333.333007812 278 l 1
 333.333007812 333.555664062 l 1
 55.5556640625 333.555664062 l 1
 55.5556640625 278 l 1025
55.5556640625 222.444335938 m 1
 166.666992188 222.444335938 l 1
 166.666992188 278 l 1
 55.5556640625 278 l 1
 55.5556640625 222.444335938 l 1025
55.5556640625 166.888671875 m 1
 166.666992188 166.888671875 l 1
 166.666992188 222.444335938 l 1
 55.5556640625 222.444335938 l 1
 55.5556640625 166.888671875 l 1025
55.5556640625 111.333007812 m 1
 166.666992188 111.333007812 l 1
 166.666992188 166.888671875 l 1
 55.5556640625 166.888671875 l 1
 55.5556640625 111.333007812 l 1025
55.5556640625 55.77734375 m 1
 166.666992188 55.77734375 l 1
 166.666992188 111.333007812 l 1
 55.5556640625 111.333007812 l 1
 55.5556640625 55.77734375 l 1025
55.5556640625 0.22265625 m 1
 166.666992188 0.22265625 l 1
 166.666992188 55.77734375 l 1
 55.5556640625 55.77734375 l 1
 55.5556640625 0.22265625 l 1
EndSplineSet
EndChar

StartChar: G
Encoding: 71 71 40
Width: 500
VWidth: 0
Flags: HW
LayerCount: 2
Back
Fore
SplineSet
166.666992188 500.22265625 m 1
 333.333007812 500.22265625 l 1
 333.333007812 555.77734375 l 1
 166.666992188 555.77734375 l 1
 166.666992188 500.22265625 l 1025
111.111328125 444.666992188 m 1
 222.22265625 444.666992188 l 1
 222.22265625 500.22265625 l 1
 111.111328125 500.22265625 l 1
 111.111328125 444.666992188 l 1025
277.77734375 444.666992188 m 1
 388.888671875 444.666992188 l 1
 388.888671875 500.22265625 l 1
 277.77734375 500.22265625 l 1
 277.77734375 444.666992188 l 1025
55.5556640625 389.111328125 m 1
 166.666992188 389.111328125 l 1
 166.666992188 444.666992188 l 1
 55.5556640625 444.666992188 l 1
 55.5556640625 389.111328125 l 1025
333.333007812 389.111328125 m 1
 444.444335938 389.111328125 l 1
 444.444335938 444.666992188 l 1
 333.333007812 444.666992188 l 1
 333.333007812 389.111328125 l 1025
55.5556640625 333.555664062 m 1
 166.666992188 333.555664062 l 1
 166.666992188 389.111328125 l 1
 55.5556640625 389.111328125 l 1
 55.5556640625 333.555664062 l 1025
55.5556640625 278 m 1
 166.666992188 278 l 1
 166.666992188 333.555664062 l 1
 55.5556640625 333.555664062 l 1
 55.5556640625 278 l 1025
55.5556640625 222.444335938 m 1
 166.666992188 222.444335938 l 1
 166.666992188 278 l 1
 55.5556640625 278 l 1
 55.5556640625 222.444335938 l 1025
277.77734375 222.444335938 m 1
 444.444335938 222.444335938 l 1
 444.444335938 278 l 1
 277.77734375 278 l 1
 277.77734375 222.444335938 l 1025
55.5556640625 166.888671875 m 1
 166.666992188 166.888671875 l 1
 166.666992188 222.444335938 l 1
 55.5556640625 222.444335938 l 1
 55.5556640625 166.888671875 l 1025
333.333007812 166.888671875 m 1
 444.444335938 166.888671875 l 1
 444.444335938 222.444335938 l 1
 333.333007812 222.444335938 l 1
 333.333007812 166.888671875 l 1025
55.5556640625 111.333007812 m 1
 166.666992188 111.333007812 l 1
 166.666992188 166.888671875 l 1
 55.5556640625 166.888671875 l 1
 55.5556640625 111.333007812 l 1025
333.333007812 111.333007812 m 1
 444.444335938 111.333007812 l 1
 444.444335938 166.888671875 l 1
 333.333007812 166.888671875 l 1
 333.333007812 111.333007812 l 1025
111.111328125 55.77734375 m 1
 222.22265625 55.77734375 l 1
 222.22265625 111.333007812 l 1
 111.111328125 111.333007812 l 1
 111.111328125 55.77734375 l 1025
277.77734375 55.77734375 m 1
 388.888671875 55.77734375 l 1
 388.888671875 111.333007812 l 1
 277.77734375 111.333007812 l 1
 277.77734375 55.77734375 l 1025
166.666992188 0.22265625 m 1
 333.333007812 0.22265625 l 1
 333.333007812 55.77734375 l 1
 166.666992188 55.77734375 l 1
 166.666992188 0.22265625 l 1
EndSplineSet
EndChar

StartChar: H
Encoding: 72 72 41
Width: 500
VWidth: 0
Flags: HW
LayerCount: 2
Back
Fore
SplineSet
55.5556640625 500.22265625 m 1
 166.666992188 500.22265625 l 1
 166.666992188 555.77734375 l 1
 55.5556640625 555.77734375 l 1
 55.5556640625 500.22265625 l 1025
333.333007812 500.22265625 m 1
 444.444335938 500.22265625 l 1
 444.444335938 555.77734375 l 1
 333.333007812 555.77734375 l 1
 333.333007812 500.22265625 l 1025
55.5556640625 444.666992188 m 1
 166.666992188 444.666992188 l 1
 166.666992188 500.22265625 l 1
 55.5556640625 500.22265625 l 1
 55.5556640625 444.666992188 l 1025
333.333007812 444.666992188 m 1
 444.444335938 444.666992188 l 1
 444.444335938 500.22265625 l 1
 333.333007812 500.22265625 l 1
 333.333007812 444.666992188 l 1025
55.5556640625 389.111328125 m 1
 166.666992188 389.111328125 l 1
 166.666992188 444.666992188 l 1
 55.5556640625 444.666992188 l 1
 55.5556640625 389.111328125 l 1025
333.333007812 389.111328125 m 1
 444.444335938 389.111328125 l 1
 444.444335938 444.666992188 l 1
 333.333007812 444.666992188 l 1
 333.333007812 389.111328125 l 1025
55.5556640625 333.555664062 m 1
 166.666992188 333.555664062 l 1
 166.666992188 389.111328125 l 1
 55.5556640625 389.111328125 l 1
 55.5556640625 333.555664062 l 1025
333.333007812 333.555664062 m 1
 444.444335938 333.555664062 l 1
 444.444335938 389.111328125 l 1
 333.333007812 389.111328125 l 1
 333.333007812 333.555664062 l 1025
55.5556640625 278 m 1
 444.444335938 278 l 1
 444.444335938 333.555664062 l 1
 55.5556640625 333.555664062 l 1
 55.5556640625 278 l 1025
55.5556640625 222.444335938 m 1
 166.666992188 222.444335938 l 1
 166.666992188 278 l 1
 55.5556640625 278 l 1
 55.5556640625 222.444335938 l 1025
333.333007812 222.444335938 m 1
 444.444335938 222.444335938 l 1
 444.444335938 278 l 1
 333.333007812 278 l 1
 333.333007812 222.444335938 l 1025
55.5556640625 166.888671875 m 1
 166.666992188 166.888671875 l 1
 166.666992188 222.444335938 l 1
 55.5556640625 222.444335938 l 1
 55.5556640625 166.888671875 l 1025
333.333007812 166.888671875 m 1
 444.444335938 166.888671875 l 1
 444.444335938 222.444335938 l 1
 333.333007812 222.444335938 l 1
 333.333007812 166.888671875 l 1025
55.5556640625 111.333007812 m 1
 166.666992188 111.333007812 l 1
 166.666992188 166.888671875 l 1
 55.5556640625 166.888671875 l 1
 55.5556640625 111.333007812 l 1025
333.333007812 111.333007812 m 1
 444.444335938 111.333007812 l 1
 444.444335938 166.888671875 l 1
 333.333007812 166.888671875 l 1
 333.333007812 111.333007812 l 1025
55.5556640625 55.77734375 m 1
 166.666992188 55.77734375 l 1
 166.666992188 111.333007812 l 1
 55.5556640625 111.333007812 l 1
 55.5556640625 55.77734375 l 1025
333.333007812 55.77734375 m 1
 444.444335938 55.77734375 l 1
 444.444335938 111.333007812 l 1
 333.333007812 111.333007812 l 1
 333.333007812 55.77734375 l 1025
55.5556640625 0.22265625 m 1
 166.666992188 0.22265625 l 1
 166.666992188 55.77734375 l 1
 55.5556640625 55.77734375 l 1
 55.5556640625 0.22265625 l 1025
333.333007812 0.22265625 m 1
 444.444335938 0.22265625 l 1
 444.444335938 55.77734375 l 1
 333.333007812 55.77734375 l 1
 333.333007812 0.22265625 l 1
EndSplineSet
EndChar

StartChar: I
Encoding: 73 73 42
Width: 500
VWidth: 0
Flags: HW
LayerCount: 2
Back
Fore
SplineSet
55.5556640625 500.22265625 m 1
 388.888671875 500.22265625 l 1
 388.888671875 555.77734375 l 1
 55.5556640625 555.77734375 l 1
 55.5556640625 500.22265625 l 1025
166.666992188 444.666992188 m 1
 277.77734375 444.666992188 l 1
 277.77734375 500.22265625 l 1
 166.666992188 500.22265625 l 1
 166.666992188 444.666992188 l 1025
166.666992188 389.111328125 m 1
 277.77734375 389.111328125 l 1
 277.77734375 444.666992188 l 1
 166.666992188 444.666992188 l 1
 166.666992188 389.111328125 l 1025
166.666992188 333.555664062 m 1
 277.77734375 333.555664062 l 1
 277.77734375 389.111328125 l 1
 166.666992188 389.111328125 l 1
 166.666992188 333.555664062 l 1025
166.666992188 278 m 1
 277.77734375 278 l 1
 277.77734375 333.555664062 l 1
 166.666992188 333.555664062 l 1
 166.666992188 278 l 1025
166.666992188 222.444335938 m 1
 277.77734375 222.444335938 l 1
 277.77734375 278 l 1
 166.666992188 278 l 1
 166.666992188 222.444335938 l 1025
166.666992188 166.888671875 m 1
 277.77734375 166.888671875 l 1
 277.77734375 222.444335938 l 1
 166.666992188 222.444335938 l 1
 166.666992188 166.888671875 l 1025
166.666992188 111.333007812 m 1
 277.77734375 111.333007812 l 1
 277.77734375 166.888671875 l 1
 166.666992188 166.888671875 l 1
 166.666992188 111.333007812 l 1025
166.666992188 55.77734375 m 1
 277.77734375 55.77734375 l 1
 277.77734375 111.333007812 l 1
 166.666992188 111.333007812 l 1
 166.666992188 55.77734375 l 1025
55.5556640625 0.22265625 m 1
 388.888671875 0.22265625 l 1
 388.888671875 55.77734375 l 1
 55.5556640625 55.77734375 l 1
 55.5556640625 0.22265625 l 1
EndSplineSet
EndChar

StartChar: J
Encoding: 74 74 43
Width: 500
VWidth: 0
Flags: HW
LayerCount: 2
Back
Fore
SplineSet
222.22265625 500.22265625 m 1
 444.444335938 500.22265625 l 1
 444.444335938 555.77734375 l 1
 222.22265625 555.77734375 l 1
 222.22265625 500.22265625 l 1025
277.77734375 444.666992188 m 1
 388.888671875 444.666992188 l 1
 388.888671875 500.22265625 l 1
 277.77734375 500.22265625 l 1
 277.77734375 444.666992188 l 1025
277.77734375 389.111328125 m 1
 388.888671875 389.111328125 l 1
 388.888671875 444.666992188 l 1
 277.77734375 444.666992188 l 1
 277.77734375 389.111328125 l 1025
277.77734375 333.555664062 m 1
 388.888671875 333.555664062 l 1
 388.888671875 389.111328125 l 1
 277.77734375 389.111328125 l 1
 277.77734375 333.555664062 l 1025
277.77734375 278 m 1
 388.888671875 278 l 1
 388.888671875 333.555664062 l 1
 277.77734375 333.555664062 l 1
 277.77734375 278 l 1025
277.77734375 222.444335938 m 1
 388.888671875 222.444335938 l 1
 388.888671875 278 l 1
 277.77734375 278 l 1
 277.77734375 222.444335938 l 1025
277.77734375 166.888671875 m 1
 388.888671875 166.888671875 l 1
 388.888671875 222.444335938 l 1
 277.77734375 222.444335938 l 1
 277.77734375 166.888671875 l 1025
55.5556640625 111.333007812 m 1
 166.666992188 111.333007812 l 1
 166.666992188 166.888671875 l 1
 55.5556640625 166.888671875 l 1
 55.5556640625 111.333007812 l 1025
277.77734375 111.333007812 m 1
 388.888671875 111.333007812 l 1
 388.888671875 166.888671875 l 1
 277.77734375 166.888671875 l 1
 277.77734375 111.333007812 l 1025
55.5556640625 55.77734375 m 1
 166.666992188 55.77734375 l 1
 166.666992188 111.333007812 l 1
 55.5556640625 111.333007812 l 1
 55.5556640625 55.77734375 l 1025
277.77734375 55.77734375 m 1
 388.888671875 55.77734375 l 1
 388.888671875 111.333007812 l 1
 277.77734375 111.333007812 l 1
 277.77734375 55.77734375 l 1025
111.111328125 0.22265625 m 1
 333.333007812 0.22265625 l 1
 333.333007812 55.77734375 l 1
 111.111328125 55.77734375 l 1
 111.111328125 0.22265625 l 1
EndSplineSet
EndChar

StartChar: K
Encoding: 75 75 44
Width: 500
VWidth: 0
Flags: HW
LayerCount: 2
Back
Fore
SplineSet
55.5556640625 500.22265625 m 1
 166.666992188 500.22265625 l 1
 166.666992188 555.77734375 l 1
 55.5556640625 555.77734375 l 1
 55.5556640625 500.22265625 l 1025
333.333007812 500.22265625 m 1
 444.444335938 500.22265625 l 1
 444.444335938 555.77734375 l 1
 333.333007812 555.77734375 l 1
 333.333007812 500.22265625 l 1025
55.5556640625 444.666992188 m 1
 166.666992188 444.666992188 l 1
 166.666992188 500.22265625 l 1
 55.5556640625 500.22265625 l 1
 55.5556640625 444.666992188 l 1025
277.77734375 444.666992188 m 1
 388.888671875 444.666992188 l 1
 388.888671875 500.22265625 l 1
 277.77734375 500.22265625 l 1
 277.77734375 444.666992188 l 1025
55.5556640625 389.111328125 m 1
 166.666992188 389.111328125 l 1
 166.666992188 444.666992188 l 1
 55.5556640625 444.666992188 l 1
 55.5556640625 389.111328125 l 1025
222.22265625 389.111328125 m 1
 333.333007812 389.111328125 l 1
 333.333007812 444.666992188 l 1
 222.22265625 444.666992188 l 1
 222.22265625 389.111328125 l 1025
55.5556640625 333.555664062 m 1
 277.77734375 333.555664062 l 1
 277.77734375 389.111328125 l 1
 55.5556640625 389.111328125 l 1
 55.5556640625 333.555664062 l 1025
55.5556640625 278 m 1
 222.22265625 278 l 1
 222.22265625 333.555664062 l 1
 55.5556640625 333.555664062 l 1
 55.5556640625 278 l 1025
55.5556640625 222.444335938 m 1
 277.77734375 222.444335938 l 1
 277.77734375 278 l 1
 55.5556640625 278 l 1
 55.5556640625 222.444335938 l 1025
55.5556640625 166.888671875 m 1
 166.666992188 166.888671875 l 1
 166.666992188 222.444335938 l 1
 55.5556640625 222.444335938 l 1
 55.5556640625 166.888671875 l 1025
222.22265625 166.888671875 m 1
 333.333007812 166.888671875 l 1
 333.333007812 222.444335938 l 1
 222.22265625 222.444335938 l 1
 222.22265625 166.888671875 l 1025
55.5556640625 111.333007812 m 1
 166.666992188 111.333007812 l 1
 166.666992188 166.888671875 l 1
 55.5556640625 166.888671875 l 1
 55.5556640625 111.333007812 l 1025
277.77734375 111.333007812 m 1
 388.888671875 111.333007812 l 1
 388.888671875 166.888671875 l 1
 277.77734375 166.888671875 l 1
 277.77734375 111.333007812 l 1025
55.5556640625 55.77734375 m 1
 166.666992188 55.77734375 l 1
 166.666992188 111.333007812 l 1
 55.5556640625 111.333007812 l 1
 55.5556640625 55.77734375 l 1025
333.333007812 55.77734375 m 1
 444.444335938 55.77734375 l 1
 444.444335938 111.333007812 l 1
 333.333007812 111.333007812 l 1
 333.333007812 55.77734375 l 1025
55.5556640625 0.22265625 m 1
 166.666992188 0.22265625 l 1
 166.666992188 55.77734375 l 1
 55.5556640625 55.77734375 l 1
 55.5556640625 0.22265625 l 1025
333.333007812 0.22265625 m 1
 444.444335938 0.22265625 l 1
 444.444335938 55.77734375 l 1
 333.333007812 55.77734375 l 1
 333.333007812 0.22265625 l 1
EndSplineSet
EndChar

StartChar: L
Encoding: 76 76 45
Width: 500
VWidth: 0
Flags: HW
LayerCount: 2
Back
Fore
SplineSet
55.5556640625 500.22265625 m 1
 166.666992188 500.22265625 l 1
 166.666992188 555.77734375 l 1
 55.5556640625 555.77734375 l 1
 55.5556640625 500.22265625 l 1025
55.5556640625 444.666992188 m 1
 166.666992188 444.666992188 l 1
 166.666992188 500.22265625 l 1
 55.5556640625 500.22265625 l 1
 55.5556640625 444.666992188 l 1025
55.5556640625 389.111328125 m 1
 166.666992188 389.111328125 l 1
 166.666992188 444.666992188 l 1
 55.5556640625 444.666992188 l 1
 55.5556640625 389.111328125 l 1025
55.5556640625 333.555664062 m 1
 166.666992188 333.555664062 l 1
 166.666992188 389.111328125 l 1
 55.5556640625 389.111328125 l 1
 55.5556640625 333.555664062 l 1025
55.5556640625 278 m 1
 166.666992188 278 l 1
 166.666992188 333.555664062 l 1
 55.5556640625 333.555664062 l 1
 55.5556640625 278 l 1025
55.5556640625 222.444335938 m 1
 166.666992188 222.444335938 l 1
 166.666992188 278 l 1
 55.5556640625 278 l 1
 55.5556640625 222.444335938 l 1025
55.5556640625 166.888671875 m 1
 166.666992188 166.888671875 l 1
 166.666992188 222.444335938 l 1
 55.5556640625 222.444335938 l 1
 55.5556640625 166.888671875 l 1025
55.5556640625 111.333007812 m 1
 166.666992188 111.333007812 l 1
 166.666992188 166.888671875 l 1
 55.5556640625 166.888671875 l 1
 55.5556640625 111.333007812 l 1025
55.5556640625 55.77734375 m 1
 166.666992188 55.77734375 l 1
 166.666992188 111.333007812 l 1
 55.5556640625 111.333007812 l 1
 55.5556640625 55.77734375 l 1025
55.5556640625 0.22265625 m 1
 444.444335938 0.22265625 l 1
 444.444335938 55.77734375 l 1
 55.5556640625 55.77734375 l 1
 55.5556640625 0.22265625 l 1
EndSplineSet
EndChar

StartChar: M
Encoding: 77 77 46
Width: 500
VWidth: 0
Flags: HW
LayerCount: 2
Back
Fore
SplineSet
55.5556640625 500.22265625 m 1
 166.666992188 500.22265625 l 1
 166.666992188 555.77734375 l 1
 55.5556640625 555.77734375 l 1
 55.5556640625 500.22265625 l 1025
333.333007812 500.22265625 m 1
 444.444335938 500.22265625 l 1
 444.444335938 555.77734375 l 1
 333.333007812 555.77734375 l 1
 333.333007812 500.22265625 l 1025
55.5556640625 444.666992188 m 1
 222.22265625 444.666992188 l 1
 222.22265625 500.22265625 l 1
 55.5556640625 500.22265625 l 1
 55.5556640625 444.666992188 l 1025
277.77734375 444.666992188 m 1
 444.444335938 444.666992188 l 1
 444.444335938 500.22265625 l 1
 277.77734375 500.22265625 l 1
 277.77734375 444.666992188 l 1025
55.5556640625 389.111328125 m 1
 444.444335938 389.111328125 l 1
 444.444335938 444.666992188 l 1
 55.5556640625 444.666992188 l 1
 55.5556640625 389.111328125 l 1025
55.5556640625 333.555664062 m 1
 166.666992188 333.555664062 l 1
 166.666992188 389.111328125 l 1
 55.5556640625 389.111328125 l 1
 55.5556640625 333.555664062 l 1025
222.22265625 333.555664062 m 1
 277.77734375 333.555664062 l 1
 277.77734375 389.111328125 l 1
 222.22265625 389.111328125 l 1
 222.22265625 333.555664062 l 1025
333.333007812 333.555664062 m 1
 444.444335938 333.555664062 l 1
 444.444335938 389.111328125 l 1
 333.333007812 389.111328125 l 1
 333.333007812 333.555664062 l 1025
55.5556640625 278 m 1
 166.666992188 278 l 1
 166.666992188 333.555664062 l 1
 55.5556640625 333.555664062 l 1
 55.5556640625 278 l 1025
333.333007812 278 m 1
 444.444335938 278 l 1
 444.444335938 333.555664062 l 1
 333.333007812 333.555664062 l 1
 333.333007812 278 l 1025
55.5556640625 222.444335938 m 1
 166.666992188 222.444335938 l 1
 166.666992188 278 l 1
 55.5556640625 278 l 1
 55.5556640625 222.444335938 l 1025
333.333007812 222.444335938 m 1
 444.444335938 222.444335938 l 1
 444.444335938 278 l 1
 333.333007812 278 l 1
 333.333007812 222.444335938 l 1025
55.5556640625 166.888671875 m 1
 166.666992188 166.888671875 l 1
 166.666992188 222.444335938 l 1
 55.5556640625 222.444335938 l 1
 55.5556640625 166.888671875 l 1025
333.333007812 166.888671875 m 1
 444.444335938 166.888671875 l 1
 444.444335938 222.444335938 l 1
 333.333007812 222.444335938 l 1
 333.333007812 166.888671875 l 1025
55.5556640625 111.333007812 m 1
 166.666992188 111.333007812 l 1
 166.666992188 166.888671875 l 1
 55.5556640625 166.888671875 l 1
 55.5556640625 111.333007812 l 1025
333.333007812 111.333007812 m 1
 444.444335938 111.333007812 l 1
 444.444335938 166.888671875 l 1
 333.333007812 166.888671875 l 1
 333.333007812 111.333007812 l 1025
55.5556640625 55.77734375 m 1
 166.666992188 55.77734375 l 1
 166.666992188 111.333007812 l 1
 55.5556640625 111.333007812 l 1
 55.5556640625 55.77734375 l 1025
333.333007812 55.77734375 m 1
 444.444335938 55.77734375 l 1
 444.444335938 111.333007812 l 1
 333.333007812 111.333007812 l 1
 333.333007812 55.77734375 l 1025
55.5556640625 0.22265625 m 1
 166.666992188 0.22265625 l 1
 166.666992188 55.77734375 l 1
 55.5556640625 55.77734375 l 1
 55.5556640625 0.22265625 l 1025
333.333007812 0.22265625 m 1
 444.444335938 0.22265625 l 1
 444.444335938 55.77734375 l 1
 333.333007812 55.77734375 l 1
 333.333007812 0.22265625 l 1
EndSplineSet
EndChar

StartChar: N
Encoding: 78 78 47
Width: 500
VWidth: 0
Flags: HW
LayerCount: 2
Back
Fore
SplineSet
55.5556640625 500.22265625 m 1
 166.666992188 500.22265625 l 1
 166.666992188 555.77734375 l 1
 55.5556640625 555.77734375 l 1
 55.5556640625 500.22265625 l 1025
333.333007812 500.22265625 m 1
 444.444335938 500.22265625 l 1
 444.444335938 555.77734375 l 1
 333.333007812 555.77734375 l 1
 333.333007812 500.22265625 l 1025
55.5556640625 444.666992188 m 1
 166.666992188 444.666992188 l 1
 166.666992188 500.22265625 l 1
 55.5556640625 500.22265625 l 1
 55.5556640625 444.666992188 l 1025
333.333007812 444.666992188 m 1
 444.444335938 444.666992188 l 1
 444.444335938 500.22265625 l 1
 333.333007812 500.22265625 l 1
 333.333007812 444.666992188 l 1025
55.5556640625 389.111328125 m 1
 222.22265625 389.111328125 l 1
 222.22265625 444.666992188 l 1
 55.5556640625 444.666992188 l 1
 55.5556640625 389.111328125 l 1025
333.333007812 389.111328125 m 1
 444.444335938 389.111328125 l 1
 444.444335938 444.666992188 l 1
 333.333007812 444.666992188 l 1
 333.333007812 389.111328125 l 1025
55.5556640625 333.555664062 m 1
 277.77734375 333.555664062 l 1
 277.77734375 389.111328125 l 1
 55.5556640625 389.111328125 l 1
 55.5556640625 333.555664062 l 1025
333.333007812 333.555664062 m 1
 444.444335938 333.555664062 l 1
 444.444335938 389.111328125 l 1
 333.333007812 389.111328125 l 1
 333.333007812 333.555664062 l 1025
55.5556640625 278 m 1
 166.666992188 278 l 1
 166.666992188 333.555664062 l 1
 55.5556640625 333.555664062 l 1
 55.5556640625 278 l 1025
222.22265625 278 m 1
 444.444335938 278 l 1
 444.444335938 333.555664062 l 1
 222.22265625 333.555664062 l 1
 222.22265625 278 l 1025
55.5556640625 222.444335938 m 1
 166.666992188 222.444335938 l 1
 166.666992188 278 l 1
 55.5556640625 278 l 1
 55.5556640625 222.444335938 l 1025
277.77734375 222.444335938 m 1
 444.444335938 222.444335938 l 1
 444.444335938 278 l 1
 277.77734375 278 l 1
 277.77734375 222.444335938 l 1025
55.5556640625 166.888671875 m 1
 166.666992188 166.888671875 l 1
 166.666992188 222.444335938 l 1
 55.5556640625 222.444335938 l 1
 55.5556640625 166.888671875 l 1025
333.333007812 166.888671875 m 1
 444.444335938 166.888671875 l 1
 444.444335938 222.444335938 l 1
 333.333007812 222.444335938 l 1
 333.333007812 166.888671875 l 1025
55.5556640625 111.333007812 m 1
 166.666992188 111.333007812 l 1
 166.666992188 166.888671875 l 1
 55.5556640625 166.888671875 l 1
 55.5556640625 111.333007812 l 1025
333.333007812 111.333007812 m 1
 444.444335938 111.333007812 l 1
 444.444335938 166.888671875 l 1
 333.333007812 166.888671875 l 1
 333.333007812 111.333007812 l 1025
55.5556640625 55.77734375 m 1
 166.666992188 55.77734375 l 1
 166.666992188 111.333007812 l 1
 55.5556640625 111.333007812 l 1
 55.5556640625 55.77734375 l 1025
333.333007812 55.77734375 m 1
 444.444335938 55.77734375 l 1
 444.444335938 111.333007812 l 1
 333.333007812 111.333007812 l 1
 333.333007812 55.77734375 l 1025
55.5556640625 0.22265625 m 1
 166.666992188 0.22265625 l 1
 166.666992188 55.77734375 l 1
 55.5556640625 55.77734375 l 1
 55.5556640625 0.22265625 l 1025
333.333007812 0.22265625 m 1
 444.444335938 0.22265625 l 1
 444.444335938 55.77734375 l 1
 333.333007812 55.77734375 l 1
 333.333007812 0.22265625 l 1
EndSplineSet
EndChar

StartChar: O
Encoding: 79 79 48
Width: 500
VWidth: 0
Flags: HW
LayerCount: 2
Back
Fore
SplineSet
111.111328125 500.22265625 m 1
 388.888671875 500.22265625 l 1
 388.888671875 555.77734375 l 1
 111.111328125 555.77734375 l 1
 111.111328125 500.22265625 l 1025
55.5556640625 444.666992188 m 1
 166.666992188 444.666992188 l 1
 166.666992188 500.22265625 l 1
 55.5556640625 500.22265625 l 1
 55.5556640625 444.666992188 l 1025
333.333007812 444.666992188 m 1
 444.444335938 444.666992188 l 1
 444.444335938 500.22265625 l 1
 333.333007812 500.22265625 l 1
 333.333007812 444.666992188 l 1025
55.5556640625 389.111328125 m 1
 166.666992188 389.111328125 l 1
 166.666992188 444.666992188 l 1
 55.5556640625 444.666992188 l 1
 55.5556640625 389.111328125 l 1025
333.333007812 389.111328125 m 1
 444.444335938 389.111328125 l 1
 444.444335938 444.666992188 l 1
 333.333007812 444.666992188 l 1
 333.333007812 389.111328125 l 1025
55.5556640625 333.555664062 m 1
 166.666992188 333.555664062 l 1
 166.666992188 389.111328125 l 1
 55.5556640625 389.111328125 l 1
 55.5556640625 333.555664062 l 1025
333.333007812 333.555664062 m 1
 444.444335938 333.555664062 l 1
 444.444335938 389.111328125 l 1
 333.333007812 389.111328125 l 1
 333.333007812 333.555664062 l 1025
55.5556640625 278 m 1
 166.666992188 278 l 1
 166.666992188 333.555664062 l 1
 55.5556640625 333.555664062 l 1
 55.5556640625 278 l 1025
333.333007812 278 m 1
 444.444335938 278 l 1
 444.444335938 333.555664062 l 1
 333.333007812 333.555664062 l 1
 333.333007812 278 l 1025
55.5556640625 222.444335938 m 1
 166.666992188 222.444335938 l 1
 166.666992188 278 l 1
 55.5556640625 278 l 1
 55.5556640625 222.444335938 l 1025
333.333007812 222.444335938 m 1
 444.444335938 222.444335938 l 1
 444.444335938 278 l 1
 333.333007812 278 l 1
 333.333007812 222.444335938 l 1025
55.5556640625 166.888671875 m 1
 166.666992188 166.888671875 l 1
 166.666992188 222.444335938 l 1
 55.5556640625 222.444335938 l 1
 55.5556640625 166.888671875 l 1025
333.333007812 166.888671875 m 1
 444.444335938 166.888671875 l 1
 444.444335938 222.444335938 l 1
 333.333007812 222.444335938 l 1
 333.333007812 166.888671875 l 1025
55.5556640625 111.333007812 m 1
 166.666992188 111.333007812 l 1
 166.666992188 166.888671875 l 1
 55.5556640625 166.888671875 l 1
 55.5556640625 111.333007812 l 1025
333.333007812 111.333007812 m 1
 444.444335938 111.333007812 l 1
 444.444335938 166.888671875 l 1
 333.333007812 166.888671875 l 1
 333.333007812 111.333007812 l 1025
55.5556640625 55.77734375 m 1
 166.666992188 55.77734375 l 1
 166.666992188 111.333007812 l 1
 55.5556640625 111.333007812 l 1
 55.5556640625 55.77734375 l 1025
333.333007812 55.77734375 m 1
 444.444335938 55.77734375 l 1
 444.444335938 111.333007812 l 1
 333.333007812 111.333007812 l 1
 333.333007812 55.77734375 l 1025
111.111328125 0.22265625 m 1
 388.888671875 0.22265625 l 1
 388.888671875 55.77734375 l 1
 111.111328125 55.77734375 l 1
 111.111328125 0.22265625 l 1
EndSplineSet
EndChar

StartChar: P
Encoding: 80 80 49
Width: 500
VWidth: 0
Flags: HW
LayerCount: 2
Back
Fore
SplineSet
55.5556640625 500.22265625 m 1
 333.333007812 500.22265625 l 1
 333.333007812 555.77734375 l 1
 55.5556640625 555.77734375 l 1
 55.5556640625 500.22265625 l 1025
55.5556640625 444.666992188 m 1
 166.666992188 444.666992188 l 1
 166.666992188 500.22265625 l 1
 55.5556640625 500.22265625 l 1
 55.5556640625 444.666992188 l 1025
277.77734375 444.666992188 m 1
 388.888671875 444.666992188 l 1
 388.888671875 500.22265625 l 1
 277.77734375 500.22265625 l 1
 277.77734375 444.666992188 l 1025
55.5556640625 389.111328125 m 1
 166.666992188 389.111328125 l 1
 166.666992188 444.666992188 l 1
 55.5556640625 444.666992188 l 1
 55.5556640625 389.111328125 l 1025
333.333007812 389.111328125 m 1
 444.444335938 389.111328125 l 1
 444.444335938 444.666992188 l 1
 333.333007812 444.666992188 l 1
 333.333007812 389.111328125 l 1025
55.5556640625 333.555664062 m 1
 166.666992188 333.555664062 l 1
 166.666992188 389.111328125 l 1
 55.5556640625 389.111328125 l 1
 55.5556640625 333.555664062 l 1025
333.333007812 333.555664062 m 1
 444.444335938 333.555664062 l 1
 444.444335938 389.111328125 l 1
 333.333007812 389.111328125 l 1
 333.333007812 333.555664062 l 1025
55.5556640625 278 m 1
 166.666992188 278 l 1
 166.666992188 333.555664062 l 1
 55.5556640625 333.555664062 l 1
 55.5556640625 278 l 1025
277.77734375 278 m 1
 388.888671875 278 l 1
 388.888671875 333.555664062 l 1
 277.77734375 333.555664062 l 1
 277.77734375 278 l 1025
55.5556640625 222.444335938 m 1
 333.333007812 222.444335938 l 1
 333.333007812 278 l 1
 55.5556640625 278 l 1
 55.5556640625 222.444335938 l 1025
55.5556640625 166.888671875 m 1
 166.666992188 166.888671875 l 1
 166.666992188 222.444335938 l 1
 55.5556640625 222.444335938 l 1
 55.5556640625 166.888671875 l 1025
55.5556640625 111.333007812 m 1
 166.666992188 111.333007812 l 1
 166.666992188 166.888671875 l 1
 55.5556640625 166.888671875 l 1
 55.5556640625 111.333007812 l 1025
55.5556640625 55.77734375 m 1
 166.666992188 55.77734375 l 1
 166.666992188 111.333007812 l 1
 55.5556640625 111.333007812 l 1
 55.5556640625 55.77734375 l 1025
55.5556640625 0.22265625 m 1
 166.666992188 0.22265625 l 1
 166.666992188 55.77734375 l 1
 55.5556640625 55.77734375 l 1
 55.5556640625 0.22265625 l 1
EndSplineSet
EndChar

StartChar: Q
Encoding: 81 81 50
Width: 500
VWidth: 0
Flags: HW
LayerCount: 2
Back
Fore
SplineSet
166.666992188 500.22265625 m 1
 333.333007812 500.22265625 l 1
 333.333007812 555.77734375 l 1
 166.666992188 555.77734375 l 1
 166.666992188 500.22265625 l 1025
111.111328125 444.666992188 m 1
 222.22265625 444.666992188 l 1
 222.22265625 500.22265625 l 1
 111.111328125 500.22265625 l 1
 111.111328125 444.666992188 l 1025
277.77734375 444.666992188 m 1
 388.888671875 444.666992188 l 1
 388.888671875 500.22265625 l 1
 277.77734375 500.22265625 l 1
 277.77734375 444.666992188 l 1025
55.5556640625 389.111328125 m 1
 166.666992188 389.111328125 l 1
 166.666992188 444.666992188 l 1
 55.5556640625 444.666992188 l 1
 55.5556640625 389.111328125 l 1025
333.333007812 389.111328125 m 1
 444.444335938 389.111328125 l 1
 444.444335938 444.666992188 l 1
 333.333007812 444.666992188 l 1
 333.333007812 389.111328125 l 1025
55.5556640625 333.555664062 m 1
 166.666992188 333.555664062 l 1
 166.666992188 389.111328125 l 1
 55.5556640625 389.111328125 l 1
 55.5556640625 333.555664062 l 1025
333.333007812 333.555664062 m 1
 444.444335938 333.555664062 l 1
 444.444335938 389.111328125 l 1
 333.333007812 389.111328125 l 1
 333.333007812 333.555664062 l 1025
55.5556640625 278 m 1
 166.666992188 278 l 1
 166.666992188 333.555664062 l 1
 55.5556640625 333.555664062 l 1
 55.5556640625 278 l 1025
333.333007812 278 m 1
 444.444335938 278 l 1
 444.444335938 333.555664062 l 1
 333.333007812 333.555664062 l 1
 333.333007812 278 l 1025
55.5556640625 222.444335938 m 1
 166.666992188 222.444335938 l 1
 166.666992188 278 l 1
 55.5556640625 278 l 1
 55.5556640625 222.444335938 l 1025
333.333007812 222.444335938 m 1
 444.444335938 222.444335938 l 1
 444.444335938 278 l 1
 333.333007812 278 l 1
 333.333007812 222.444335938 l 1025
55.5556640625 166.888671875 m 1
 166.666992188 166.888671875 l 1
 166.666992188 222.444335938 l 1
 55.5556640625 222.444335938 l 1
 55.5556640625 166.888671875 l 1025
333.333007812 166.888671875 m 1
 444.444335938 166.888671875 l 1
 444.444335938 222.444335938 l 1
 333.333007812 222.444335938 l 1
 333.333007812 166.888671875 l 1025
55.5556640625 111.333007812 m 1
 166.666992188 111.333007812 l 1
 166.666992188 166.888671875 l 1
 55.5556640625 166.888671875 l 1
 55.5556640625 111.333007812 l 1025
222.22265625 111.333007812 m 1
 444.444335938 111.333007812 l 1
 444.444335938 166.888671875 l 1
 222.22265625 166.888671875 l 1
 222.22265625 111.333007812 l 1025
111.111328125 55.77734375 m 1
 222.22265625 55.77734375 l 1
 222.22265625 111.333007812 l 1
 111.111328125 111.333007812 l 1
 111.111328125 55.77734375 l 1025
277.77734375 55.77734375 m 1
 388.888671875 55.77734375 l 1
 388.888671875 111.333007812 l 1
 277.77734375 111.333007812 l 1
 277.77734375 55.77734375 l 1025
166.666992188 0.22265625 m 1
 444.444335938 0.22265625 l 1
 444.444335938 55.77734375 l 1
 166.666992188 55.77734375 l 1
 166.666992188 0.22265625 l 1025
388.888671875 -55.3330078125 m 1
 500 -55.3330078125 l 1
 500 0.22265625 l 1
 388.888671875 0.22265625 l 1
 388.888671875 -55.3330078125 l 1
EndSplineSet
EndChar

StartChar: R
Encoding: 82 82 51
Width: 500
VWidth: 0
Flags: HW
LayerCount: 2
Back
Fore
SplineSet
55.5556640625 500.22265625 m 1
 388.888671875 500.22265625 l 1
 388.888671875 555.77734375 l 1
 55.5556640625 555.77734375 l 1
 55.5556640625 500.22265625 l 1025
55.5556640625 444.666992188 m 1
 166.666992188 444.666992188 l 1
 166.666992188 500.22265625 l 1
 55.5556640625 500.22265625 l 1
 55.5556640625 444.666992188 l 1025
333.333007812 444.666992188 m 1
 444.444335938 444.666992188 l 1
 444.444335938 500.22265625 l 1
 333.333007812 500.22265625 l 1
 333.333007812 444.666992188 l 1025
55.5556640625 389.111328125 m 1
 166.666992188 389.111328125 l 1
 166.666992188 444.666992188 l 1
 55.5556640625 444.666992188 l 1
 55.5556640625 389.111328125 l 1025
333.333007812 389.111328125 m 1
 444.444335938 389.111328125 l 1
 444.444335938 444.666992188 l 1
 333.333007812 444.666992188 l 1
 333.333007812 389.111328125 l 1025
55.5556640625 333.555664062 m 1
 166.666992188 333.555664062 l 1
 166.666992188 389.111328125 l 1
 55.5556640625 389.111328125 l 1
 55.5556640625 333.555664062 l 1025
333.333007812 333.555664062 m 1
 444.444335938 333.555664062 l 1
 444.444335938 389.111328125 l 1
 333.333007812 389.111328125 l 1
 333.333007812 333.555664062 l 1025
55.5556640625 278 m 1
 166.666992188 278 l 1
 166.666992188 333.555664062 l 1
 55.5556640625 333.555664062 l 1
 55.5556640625 278 l 1025
333.333007812 278 m 1
 444.444335938 278 l 1
 444.444335938 333.555664062 l 1
 333.333007812 333.555664062 l 1
 333.333007812 278 l 1025
55.5556640625 222.444335938 m 1
 388.888671875 222.444335938 l 1
 388.888671875 278 l 1
 55.5556640625 278 l 1
 55.5556640625 222.444335938 l 1025
55.5556640625 166.888671875 m 1
 166.666992188 166.888671875 l 1
 166.666992188 222.444335938 l 1
 55.5556640625 222.444335938 l 1
 55.5556640625 166.888671875 l 1025
222.22265625 166.888671875 m 1
 333.333007812 166.888671875 l 1
 333.333007812 222.444335938 l 1
 222.22265625 222.444335938 l 1
 222.22265625 166.888671875 l 1025
55.5556640625 111.333007812 m 1
 166.666992188 111.333007812 l 1
 166.666992188 166.888671875 l 1
 55.5556640625 166.888671875 l 1
 55.5556640625 111.333007812 l 1025
277.77734375 111.333007812 m 1
 388.888671875 111.333007812 l 1
 388.888671875 166.888671875 l 1
 277.77734375 166.888671875 l 1
 277.77734375 111.333007812 l 1025
55.5556640625 55.77734375 m 1
 166.666992188 55.77734375 l 1
 166.666992188 111.333007812 l 1
 55.5556640625 111.333007812 l 1
 55.5556640625 55.77734375 l 1025
333.333007812 55.77734375 m 1
 444.444335938 55.77734375 l 1
 444.444335938 111.333007812 l 1
 333.333007812 111.333007812 l 1
 333.333007812 55.77734375 l 1025
55.5556640625 0.22265625 m 1
 166.666992188 0.22265625 l 1
 166.666992188 55.77734375 l 1
 55.5556640625 55.77734375 l 1
 55.5556640625 0.22265625 l 1025
333.333007812 0.22265625 m 1
 444.444335938 0.22265625 l 1
 444.444335938 55.77734375 l 1
 333.333007812 55.77734375 l 1
 333.333007812 0.22265625 l 1
EndSplineSet
EndChar

StartChar: S
Encoding: 83 83 52
Width: 500
VWidth: 0
Flags: HW
LayerCount: 2
Back
Fore
SplineSet
111.111328125 500.22265625 m 1
 388.888671875 500.22265625 l 1
 388.888671875 555.77734375 l 1
 111.111328125 555.77734375 l 1
 111.111328125 500.22265625 l 1025
55.5556640625 444.666992188 m 1
 166.666992188 444.666992188 l 1
 166.666992188 500.22265625 l 1
 55.5556640625 500.22265625 l 1
 55.5556640625 444.666992188 l 1025
333.333007812 444.666992188 m 1
 444.444335938 444.666992188 l 1
 444.444335938 500.22265625 l 1
 333.333007812 500.22265625 l 1
 333.333007812 444.666992188 l 1025
55.5556640625 389.111328125 m 1
 166.666992188 389.111328125 l 1
 166.666992188 444.666992188 l 1
 55.5556640625 444.666992188 l 1
 55.5556640625 389.111328125 l 1025
55.5556640625 333.555664062 m 1
 166.666992188 333.555664062 l 1
 166.666992188 389.111328125 l 1
 55.5556640625 389.111328125 l 1
 55.5556640625 333.555664062 l 1025
111.111328125 278 m 1
 388.888671875 278 l 1
 388.888671875 333.555664062 l 1
 111.111328125 333.555664062 l 1
 111.111328125 278 l 1025
333.333007812 222.444335938 m 1
 444.444335938 222.444335938 l 1
 444.444335938 278 l 1
 333.333007812 278 l 1
 333.333007812 222.444335938 l 1025
333.333007812 166.888671875 m 1
 444.444335938 166.888671875 l 1
 444.444335938 222.444335938 l 1
 333.333007812 222.444335938 l 1
 333.333007812 166.888671875 l 1025
333.333007812 111.333007812 m 1
 444.444335938 111.333007812 l 1
 444.444335938 166.888671875 l 1
 333.333007812 166.888671875 l 1
 333.333007812 111.333007812 l 1025
55.5556640625 55.77734375 m 1
 166.666992188 55.77734375 l 1
 166.666992188 111.333007812 l 1
 55.5556640625 111.333007812 l 1
 55.5556640625 55.77734375 l 1025
333.333007812 55.77734375 m 1
 444.444335938 55.77734375 l 1
 444.444335938 111.333007812 l 1
 333.333007812 111.333007812 l 1
 333.333007812 55.77734375 l 1025
111.111328125 0.22265625 m 1
 388.888671875 0.22265625 l 1
 388.888671875 55.77734375 l 1
 111.111328125 55.77734375 l 1
 111.111328125 0.22265625 l 1
EndSplineSet
EndChar

StartChar: T
Encoding: 84 84 53
Width: 500
VWidth: 0
Flags: HW
LayerCount: 2
Back
Fore
SplineSet
55.5556640625 500.22265625 m 1
 388.888671875 500.22265625 l 1
 388.888671875 555.77734375 l 1
 55.5556640625 555.77734375 l 1
 55.5556640625 500.22265625 l 1025
166.666992188 444.666992188 m 1
 277.77734375 444.666992188 l 1
 277.77734375 500.22265625 l 1
 166.666992188 500.22265625 l 1
 166.666992188 444.666992188 l 1025
166.666992188 389.111328125 m 1
 277.77734375 389.111328125 l 1
 277.77734375 444.666992188 l 1
 166.666992188 444.666992188 l 1
 166.666992188 389.111328125 l 1025
166.666992188 333.555664062 m 1
 277.77734375 333.555664062 l 1
 277.77734375 389.111328125 l 1
 166.666992188 389.111328125 l 1
 166.666992188 333.555664062 l 1025
166.666992188 278 m 1
 277.77734375 278 l 1
 277.77734375 333.555664062 l 1
 166.666992188 333.555664062 l 1
 166.666992188 278 l 1025
166.666992188 222.444335938 m 1
 277.77734375 222.444335938 l 1
 277.77734375 278 l 1
 166.666992188 278 l 1
 166.666992188 222.444335938 l 1025
166.666992188 166.888671875 m 1
 277.77734375 166.888671875 l 1
 277.77734375 222.444335938 l 1
 166.666992188 222.444335938 l 1
 166.666992188 166.888671875 l 1025
166.666992188 111.333007812 m 1
 277.77734375 111.333007812 l 1
 277.77734375 166.888671875 l 1
 166.666992188 166.888671875 l 1
 166.666992188 111.333007812 l 1025
166.666992188 55.77734375 m 1
 277.77734375 55.77734375 l 1
 277.77734375 111.333007812 l 1
 166.666992188 111.333007812 l 1
 166.666992188 55.77734375 l 1025
166.666992188 0.22265625 m 1
 277.77734375 0.22265625 l 1
 277.77734375 55.77734375 l 1
 166.666992188 55.77734375 l 1
 166.666992188 0.22265625 l 1
EndSplineSet
EndChar

StartChar: U
Encoding: 85 85 54
Width: 500
VWidth: 0
Flags: HW
LayerCount: 2
Back
Fore
SplineSet
55.5556640625 500.22265625 m 1
 166.666992188 500.22265625 l 1
 166.666992188 555.77734375 l 1
 55.5556640625 555.77734375 l 1
 55.5556640625 500.22265625 l 1025
333.333007812 500.22265625 m 1
 444.444335938 500.22265625 l 1
 444.444335938 555.77734375 l 1
 333.333007812 555.77734375 l 1
 333.333007812 500.22265625 l 1025
55.5556640625 444.666992188 m 1
 166.666992188 444.666992188 l 1
 166.666992188 500.22265625 l 1
 55.5556640625 500.22265625 l 1
 55.5556640625 444.666992188 l 1025
333.333007812 444.666992188 m 1
 444.444335938 444.666992188 l 1
 444.444335938 500.22265625 l 1
 333.333007812 500.22265625 l 1
 333.333007812 444.666992188 l 1025
55.5556640625 389.111328125 m 1
 166.666992188 389.111328125 l 1
 166.666992188 444.666992188 l 1
 55.5556640625 444.666992188 l 1
 55.5556640625 389.111328125 l 1025
333.333007812 389.111328125 m 1
 444.444335938 389.111328125 l 1
 444.444335938 444.666992188 l 1
 333.333007812 444.666992188 l 1
 333.333007812 389.111328125 l 1025
55.5556640625 333.555664062 m 1
 166.666992188 333.555664062 l 1
 166.666992188 389.111328125 l 1
 55.5556640625 389.111328125 l 1
 55.5556640625 333.555664062 l 1025
333.333007812 333.555664062 m 1
 444.444335938 333.555664062 l 1
 444.444335938 389.111328125 l 1
 333.333007812 389.111328125 l 1
 333.333007812 333.555664062 l 1025
55.5556640625 278 m 1
 166.666992188 278 l 1
 166.666992188 333.555664062 l 1
 55.5556640625 333.555664062 l 1
 55.5556640625 278 l 1025
333.333007812 278 m 1
 444.444335938 278 l 1
 444.444335938 333.555664062 l 1
 333.333007812 333.555664062 l 1
 333.333007812 278 l 1025
55.5556640625 222.444335938 m 1
 166.666992188 222.444335938 l 1
 166.666992188 278 l 1
 55.5556640625 278 l 1
 55.5556640625 222.444335938 l 1025
333.333007812 222.444335938 m 1
 444.444335938 222.444335938 l 1
 444.444335938 278 l 1
 333.333007812 278 l 1
 333.333007812 222.444335938 l 1025
55.5556640625 166.888671875 m 1
 166.666992188 166.888671875 l 1
 166.666992188 222.444335938 l 1
 55.5556640625 222.444335938 l 1
 55.5556640625 166.888671875 l 1025
333.333007812 166.888671875 m 1
 444.444335938 166.888671875 l 1
 444.444335938 222.444335938 l 1
 333.333007812 222.444335938 l 1
 333.333007812 166.888671875 l 1025
55.5556640625 111.333007812 m 1
 166.666992188 111.333007812 l 1
 166.666992188 166.888671875 l 1
 55.5556640625 166.888671875 l 1
 55.5556640625 111.333007812 l 1025
333.333007812 111.333007812 m 1
 444.444335938 111.333007812 l 1
 444.444335938 166.888671875 l 1
 333.333007812 166.888671875 l 1
 333.333007812 111.333007812 l 1025
111.111328125 55.77734375 m 1
 222.22265625 55.77734375 l 1
 222.22265625 111.333007812 l 1
 111.111328125 111.333007812 l 1
 111.111328125 55.77734375 l 1025
277.77734375 55.77734375 m 1
 388.888671875 55.77734375 l 1
 388.888671875 111.333007812 l 1
 277.77734375 111.333007812 l 1
 277.77734375 55.77734375 l 1025
166.666992188 0.22265625 m 1
 333.333007812 0.22265625 l 1
 333.333007812 55.77734375 l 1
 166.666992188 55.77734375 l 1
 166.666992188 0.22265625 l 1
EndSplineSet
EndChar

StartChar: V
Encoding: 86 86 55
Width: 500
VWidth: 0
Flags: HW
LayerCount: 2
Back
Fore
SplineSet
55.5556640625 500.22265625 m 1
 166.666992188 500.22265625 l 1
 166.666992188 555.77734375 l 1
 55.5556640625 555.77734375 l 1
 55.5556640625 500.22265625 l 1025
333.333007812 500.22265625 m 1
 444.444335938 500.22265625 l 1
 444.444335938 555.77734375 l 1
 333.333007812 555.77734375 l 1
 333.333007812 500.22265625 l 1025
55.5556640625 444.666992188 m 1
 166.666992188 444.666992188 l 1
 166.666992188 500.22265625 l 1
 55.5556640625 500.22265625 l 1
 55.5556640625 444.666992188 l 1025
333.333007812 444.666992188 m 1
 444.444335938 444.666992188 l 1
 444.444335938 500.22265625 l 1
 333.333007812 500.22265625 l 1
 333.333007812 444.666992188 l 1025
55.5556640625 389.111328125 m 1
 166.666992188 389.111328125 l 1
 166.666992188 444.666992188 l 1
 55.5556640625 444.666992188 l 1
 55.5556640625 389.111328125 l 1025
333.333007812 389.111328125 m 1
 444.444335938 389.111328125 l 1
 444.444335938 444.666992188 l 1
 333.333007812 444.666992188 l 1
 333.333007812 389.111328125 l 1025
111.111328125 333.555664062 m 1
 222.22265625 333.555664062 l 1
 222.22265625 389.111328125 l 1
 111.111328125 389.111328125 l 1
 111.111328125 333.555664062 l 1025
277.77734375 333.555664062 m 1
 388.888671875 333.555664062 l 1
 388.888671875 389.111328125 l 1
 277.77734375 389.111328125 l 1
 277.77734375 333.555664062 l 1025
111.111328125 278 m 1
 222.22265625 278 l 1
 222.22265625 333.555664062 l 1
 111.111328125 333.555664062 l 1
 111.111328125 278 l 1025
277.77734375 278 m 1
 388.888671875 278 l 1
 388.888671875 333.555664062 l 1
 277.77734375 333.555664062 l 1
 277.77734375 278 l 1025
111.111328125 222.444335938 m 1
 222.22265625 222.444335938 l 1
 222.22265625 278 l 1
 111.111328125 278 l 1
 111.111328125 222.444335938 l 1025
277.77734375 222.444335938 m 1
 388.888671875 222.444335938 l 1
 388.888671875 278 l 1
 277.77734375 278 l 1
 277.77734375 222.444335938 l 1025
166.666992188 166.888671875 m 1
 333.333007812 166.888671875 l 1
 333.333007812 222.444335938 l 1
 166.666992188 222.444335938 l 1
 166.666992188 166.888671875 l 1025
166.666992188 111.333007812 m 1
 333.333007812 111.333007812 l 1
 333.333007812 166.888671875 l 1
 166.666992188 166.888671875 l 1
 166.666992188 111.333007812 l 1025
166.666992188 55.77734375 m 1
 333.333007812 55.77734375 l 1
 333.333007812 111.333007812 l 1
 166.666992188 111.333007812 l 1
 166.666992188 55.77734375 l 1025
222.22265625 0.22265625 m 1
 277.77734375 0.22265625 l 1
 277.77734375 55.77734375 l 1
 222.22265625 55.77734375 l 1
 222.22265625 0.22265625 l 1
EndSplineSet
EndChar

StartChar: W
Encoding: 87 87 56
Width: 500
VWidth: 0
Flags: HW
LayerCount: 2
Back
Fore
SplineSet
55.5556640625 500.22265625 m 1
 166.666992188 500.22265625 l 1
 166.666992188 555.77734375 l 1
 55.5556640625 555.77734375 l 1
 55.5556640625 500.22265625 l 1025
333.333007812 500.22265625 m 1
 444.444335938 500.22265625 l 1
 444.444335938 555.77734375 l 1
 333.333007812 555.77734375 l 1
 333.333007812 500.22265625 l 1025
55.5556640625 444.666992188 m 1
 166.666992188 444.666992188 l 1
 166.666992188 500.22265625 l 1
 55.5556640625 500.22265625 l 1
 55.5556640625 444.666992188 l 1025
333.333007812 444.666992188 m 1
 444.444335938 444.666992188 l 1
 444.444335938 500.22265625 l 1
 333.333007812 500.22265625 l 1
 333.333007812 444.666992188 l 1025
55.5556640625 389.111328125 m 1
 166.666992188 389.111328125 l 1
 166.666992188 444.666992188 l 1
 55.5556640625 444.666992188 l 1
 55.5556640625 389.111328125 l 1025
333.333007812 389.111328125 m 1
 444.444335938 389.111328125 l 1
 444.444335938 444.666992188 l 1
 333.333007812 444.666992188 l 1
 333.333007812 389.111328125 l 1025
55.5556640625 333.555664062 m 1
 166.666992188 333.555664062 l 1
 166.666992188 389.111328125 l 1
 55.5556640625 389.111328125 l 1
 55.5556640625 333.555664062 l 1025
333.333007812 333.555664062 m 1
 444.444335938 333.555664062 l 1
 444.444335938 389.111328125 l 1
 333.333007812 389.111328125 l 1
 333.333007812 333.555664062 l 1025
55.5556640625 278 m 1
 166.666992188 278 l 1
 166.666992188 333.555664062 l 1
 55.5556640625 333.555664062 l 1
 55.5556640625 278 l 1025
222.22265625 278 m 1
 277.77734375 278 l 1
 277.77734375 333.555664062 l 1
 222.22265625 333.555664062 l 1
 222.22265625 278 l 1025
333.333007812 278 m 1
 444.444335938 278 l 1
 444.444335938 333.555664062 l 1
 333.333007812 333.555664062 l 1
 333.333007812 278 l 1025
55.5556640625 222.444335938 m 1
 166.666992188 222.444335938 l 1
 166.666992188 278 l 1
 55.5556640625 278 l 1
 55.5556640625 222.444335938 l 1025
222.22265625 222.444335938 m 1
 277.77734375 222.444335938 l 1
 277.77734375 278 l 1
 222.22265625 278 l 1
 222.22265625 222.444335938 l 1025
333.333007812 222.444335938 m 1
 444.444335938 222.444335938 l 1
 444.444335938 278 l 1
 333.333007812 278 l 1
 333.333007812 222.444335938 l 1025
55.5556640625 166.888671875 m 1
 166.666992188 166.888671875 l 1
 166.666992188 222.444335938 l 1
 55.5556640625 222.444335938 l 1
 55.5556640625 166.888671875 l 1025
222.22265625 166.888671875 m 1
 277.77734375 166.888671875 l 1
 277.77734375 222.444335938 l 1
 222.22265625 222.444335938 l 1
 222.22265625 166.888671875 l 1025
333.333007812 166.888671875 m 1
 444.444335938 166.888671875 l 1
 444.444335938 222.444335938 l 1
 333.333007812 222.444335938 l 1
 333.333007812 166.888671875 l 1025
55.5556640625 111.333007812 m 1
 444.444335938 111.333007812 l 1
 444.444335938 166.888671875 l 1
 55.5556640625 166.888671875 l 1
 55.5556640625 111.333007812 l 1025
55.5556640625 55.77734375 m 1
 222.22265625 55.77734375 l 1
 222.22265625 111.333007812 l 1
 55.5556640625 111.333007812 l 1
 55.5556640625 55.77734375 l 1025
277.77734375 55.77734375 m 1
 444.444335938 55.77734375 l 1
 444.444335938 111.333007812 l 1
 277.77734375 111.333007812 l 1
 277.77734375 55.77734375 l 1025
111.111328125 0.22265625 m 1
 166.666992188 0.22265625 l 1
 166.666992188 55.77734375 l 1
 111.111328125 55.77734375 l 1
 111.111328125 0.22265625 l 1025
333.333007812 0.22265625 m 1
 388.888671875 0.22265625 l 1
 388.888671875 55.77734375 l 1
 333.333007812 55.77734375 l 1
 333.333007812 0.22265625 l 1
EndSplineSet
EndChar

StartChar: X
Encoding: 88 88 57
Width: 500
VWidth: 0
Flags: HW
LayerCount: 2
Back
Fore
SplineSet
55.5556640625 500.22265625 m 1
 166.666992188 500.22265625 l 1
 166.666992188 555.77734375 l 1
 55.5556640625 555.77734375 l 1
 55.5556640625 500.22265625 l 1025
333.333007812 500.22265625 m 1
 444.444335938 500.22265625 l 1
 444.444335938 555.77734375 l 1
 333.333007812 555.77734375 l 1
 333.333007812 500.22265625 l 1025
55.5556640625 444.666992188 m 1
 166.666992188 444.666992188 l 1
 166.666992188 500.22265625 l 1
 55.5556640625 500.22265625 l 1
 55.5556640625 444.666992188 l 1025
333.333007812 444.666992188 m 1
 444.444335938 444.666992188 l 1
 444.444335938 500.22265625 l 1
 333.333007812 500.22265625 l 1
 333.333007812 444.666992188 l 1025
111.111328125 389.111328125 m 1
 222.22265625 389.111328125 l 1
 222.22265625 444.666992188 l 1
 111.111328125 444.666992188 l 1
 111.111328125 389.111328125 l 1025
277.77734375 389.111328125 m 1
 388.888671875 389.111328125 l 1
 388.888671875 444.666992188 l 1
 277.77734375 444.666992188 l 1
 277.77734375 389.111328125 l 1025
166.666992188 333.555664062 m 1
 333.333007812 333.555664062 l 1
 333.333007812 389.111328125 l 1
 166.666992188 389.111328125 l 1
 166.666992188 333.555664062 l 1025
222.22265625 278 m 1
 277.77734375 278 l 1
 277.77734375 333.555664062 l 1
 222.22265625 333.555664062 l 1
 222.22265625 278 l 1025
222.22265625 222.444335938 m 1
 277.77734375 222.444335938 l 1
 277.77734375 278 l 1
 222.22265625 278 l 1
 222.22265625 222.444335938 l 1025
166.666992188 166.888671875 m 1
 333.333007812 166.888671875 l 1
 333.333007812 222.444335938 l 1
 166.666992188 222.444335938 l 1
 166.666992188 166.888671875 l 1025
111.111328125 111.333007812 m 1
 222.22265625 111.333007812 l 1
 222.22265625 166.888671875 l 1
 111.111328125 166.888671875 l 1
 111.111328125 111.333007812 l 1025
277.77734375 111.333007812 m 1
 388.888671875 111.333007812 l 1
 388.888671875 166.888671875 l 1
 277.77734375 166.888671875 l 1
 277.77734375 111.333007812 l 1025
55.5556640625 55.77734375 m 1
 166.666992188 55.77734375 l 1
 166.666992188 111.333007812 l 1
 55.5556640625 111.333007812 l 1
 55.5556640625 55.77734375 l 1025
333.333007812 55.77734375 m 1
 444.444335938 55.77734375 l 1
 444.444335938 111.333007812 l 1
 333.333007812 111.333007812 l 1
 333.333007812 55.77734375 l 1025
55.5556640625 0.22265625 m 1
 166.666992188 0.22265625 l 1
 166.666992188 55.77734375 l 1
 55.5556640625 55.77734375 l 1
 55.5556640625 0.22265625 l 1025
333.333007812 0.22265625 m 1
 444.444335938 0.22265625 l 1
 444.444335938 55.77734375 l 1
 333.333007812 55.77734375 l 1
 333.333007812 0.22265625 l 1
EndSplineSet
EndChar

StartChar: Y
Encoding: 89 89 58
Width: 500
VWidth: 0
Flags: HW
LayerCount: 2
Back
Fore
SplineSet
0 500.22265625 m 1
 111.111328125 500.22265625 l 1
 111.111328125 555.77734375 l 1
 0 555.77734375 l 1
 0 500.22265625 l 1025
333.333007812 500.22265625 m 1
 444.444335938 500.22265625 l 1
 444.444335938 555.77734375 l 1
 333.333007812 555.77734375 l 1
 333.333007812 500.22265625 l 1025
0 444.666992188 m 1
 111.111328125 444.666992188 l 1
 111.111328125 500.22265625 l 1
 0 500.22265625 l 1
 0 444.666992188 l 1025
333.333007812 444.666992188 m 1
 444.444335938 444.666992188 l 1
 444.444335938 500.22265625 l 1
 333.333007812 500.22265625 l 1
 333.333007812 444.666992188 l 1025
55.5556640625 389.111328125 m 1
 166.666992188 389.111328125 l 1
 166.666992188 444.666992188 l 1
 55.5556640625 444.666992188 l 1
 55.5556640625 389.111328125 l 1025
277.77734375 389.111328125 m 1
 388.888671875 389.111328125 l 1
 388.888671875 444.666992188 l 1
 277.77734375 444.666992188 l 1
 277.77734375 389.111328125 l 1025
111.111328125 333.555664062 m 1
 333.333007812 333.555664062 l 1
 333.333007812 389.111328125 l 1
 111.111328125 389.111328125 l 1
 111.111328125 333.555664062 l 1025
166.666992188 278 m 1
 277.77734375 278 l 1
 277.77734375 333.555664062 l 1
 166.666992188 333.555664062 l 1
 166.666992188 278 l 1025
166.666992188 222.444335938 m 1
 277.77734375 222.444335938 l 1
 277.77734375 278 l 1
 166.666992188 278 l 1
 166.666992188 222.444335938 l 1025
166.666992188 166.888671875 m 1
 277.77734375 166.888671875 l 1
 277.77734375 222.444335938 l 1
 166.666992188 222.444335938 l 1
 166.666992188 166.888671875 l 1025
166.666992188 111.333007812 m 1
 277.77734375 111.333007812 l 1
 277.77734375 166.888671875 l 1
 166.666992188 166.888671875 l 1
 166.666992188 111.333007812 l 1025
166.666992188 55.77734375 m 1
 277.77734375 55.77734375 l 1
 277.77734375 111.333007812 l 1
 166.666992188 111.333007812 l 1
 166.666992188 55.77734375 l 1025
166.666992188 0.22265625 m 1
 277.77734375 0.22265625 l 1
 277.77734375 55.77734375 l 1
 166.666992188 55.77734375 l 1
 166.666992188 0.22265625 l 1
EndSplineSet
EndChar

StartChar: Z
Encoding: 90 90 59
Width: 500
VWidth: 0
Flags: HW
LayerCount: 2
Back
Fore
SplineSet
55.5556640625 500.22265625 m 1
 444.444335938 500.22265625 l 1
 444.444335938 555.77734375 l 1
 55.5556640625 555.77734375 l 1
 55.5556640625 500.22265625 l 1025
333.333007812 444.666992188 m 1
 444.444335938 444.666992188 l 1
 444.444335938 500.22265625 l 1
 333.333007812 500.22265625 l 1
 333.333007812 444.666992188 l 1025
333.333007812 389.111328125 m 1
 444.444335938 389.111328125 l 1
 444.444335938 444.666992188 l 1
 333.333007812 444.666992188 l 1
 333.333007812 389.111328125 l 1025
277.77734375 333.555664062 m 1
 388.888671875 333.555664062 l 1
 388.888671875 389.111328125 l 1
 277.77734375 389.111328125 l 1
 277.77734375 333.555664062 l 1025
222.22265625 278 m 1
 333.333007812 278 l 1
 333.333007812 333.555664062 l 1
 222.22265625 333.555664062 l 1
 222.22265625 278 l 1025
166.666992188 222.444335938 m 1
 277.77734375 222.444335938 l 1
 277.77734375 278 l 1
 166.666992188 278 l 1
 166.666992188 222.444335938 l 1025
111.111328125 166.888671875 m 1
 222.22265625 166.888671875 l 1
 222.22265625 222.444335938 l 1
 111.111328125 222.444335938 l 1
 111.111328125 166.888671875 l 1025
55.5556640625 111.333007812 m 1
 166.666992188 111.333007812 l 1
 166.666992188 166.888671875 l 1
 55.5556640625 166.888671875 l 1
 55.5556640625 111.333007812 l 1025
55.5556640625 55.77734375 m 1
 166.666992188 55.77734375 l 1
 166.666992188 111.333007812 l 1
 55.5556640625 111.333007812 l 1
 55.5556640625 55.77734375 l 1025
55.5556640625 0.22265625 m 1
 444.444335938 0.22265625 l 1
 444.444335938 55.77734375 l 1
 55.5556640625 55.77734375 l 1
 55.5556640625 0.22265625 l 1
EndSplineSet
EndChar

StartChar: bracketleft
Encoding: 91 91 60
Width: 500
VWidth: 0
Flags: HW
LayerCount: 2
Back
Fore
SplineSet
111.111328125 555.77734375 m 1
 388.888671875 555.77734375 l 1
 388.888671875 611.333007812 l 1
 111.111328125 611.333007812 l 1
 111.111328125 555.77734375 l 1025
111.111328125 500.22265625 m 1
 222.22265625 500.22265625 l 1
 222.22265625 555.77734375 l 1
 111.111328125 555.77734375 l 1
 111.111328125 500.22265625 l 1025
111.111328125 444.666992188 m 1
 222.22265625 444.666992188 l 1
 222.22265625 500.22265625 l 1
 111.111328125 500.22265625 l 1
 111.111328125 444.666992188 l 1025
111.111328125 389.111328125 m 1
 222.22265625 389.111328125 l 1
 222.22265625 444.666992188 l 1
 111.111328125 444.666992188 l 1
 111.111328125 389.111328125 l 1025
111.111328125 333.555664062 m 1
 222.22265625 333.555664062 l 1
 222.22265625 389.111328125 l 1
 111.111328125 389.111328125 l 1
 111.111328125 333.555664062 l 1025
111.111328125 278 m 1
 222.22265625 278 l 1
 222.22265625 333.555664062 l 1
 111.111328125 333.555664062 l 1
 111.111328125 278 l 1025
111.111328125 222.444335938 m 1
 222.22265625 222.444335938 l 1
 222.22265625 278 l 1
 111.111328125 278 l 1
 111.111328125 222.444335938 l 1025
111.111328125 166.888671875 m 1
 222.22265625 166.888671875 l 1
 222.22265625 222.444335938 l 1
 111.111328125 222.444335938 l 1
 111.111328125 166.888671875 l 1025
111.111328125 111.333007812 m 1
 222.22265625 111.333007812 l 1
 222.22265625 166.888671875 l 1
 111.111328125 166.888671875 l 1
 111.111328125 111.333007812 l 1025
111.111328125 55.77734375 m 1
 222.22265625 55.77734375 l 1
 222.22265625 111.333007812 l 1
 111.111328125 111.333007812 l 1
 111.111328125 55.77734375 l 1025
111.111328125 0.22265625 m 1
 222.22265625 0.22265625 l 1
 222.22265625 55.77734375 l 1
 111.111328125 55.77734375 l 1
 111.111328125 0.22265625 l 1025
111.111328125 -55.3330078125 m 1
 388.888671875 -55.3330078125 l 1
 388.888671875 0.22265625 l 1
 111.111328125 0.22265625 l 1
 111.111328125 -55.3330078125 l 1
EndSplineSet
EndChar

StartChar: backslash
Encoding: 92 92 61
Width: 500
VWidth: 0
Flags: HW
LayerCount: 2
Back
Fore
SplineSet
0 500.22265625 m 1
 111.111328125 500.22265625 l 1
 111.111328125 555.77734375 l 1
 0 555.77734375 l 1
 0 500.22265625 l 1025
55.5556640625 444.666992188 m 1
 166.666992188 444.666992188 l 1
 166.666992188 500.22265625 l 1
 55.5556640625 500.22265625 l 1
 55.5556640625 444.666992188 l 1025
55.5556640625 389.111328125 m 1
 166.666992188 389.111328125 l 1
 166.666992188 444.666992188 l 1
 55.5556640625 444.666992188 l 1
 55.5556640625 389.111328125 l 1025
111.111328125 333.555664062 m 1
 222.22265625 333.555664062 l 1
 222.22265625 389.111328125 l 1
 111.111328125 389.111328125 l 1
 111.111328125 333.555664062 l 1025
166.666992188 278 m 1
 277.77734375 278 l 1
 277.77734375 333.555664062 l 1
 166.666992188 333.555664062 l 1
 166.666992188 278 l 1025
166.666992188 222.444335938 m 1
 277.77734375 222.444335938 l 1
 277.77734375 278 l 1
 166.666992188 278 l 1
 166.666992188 222.444335938 l 1025
222.22265625 166.888671875 m 1
 333.333007812 166.888671875 l 1
 333.333007812 222.444335938 l 1
 222.22265625 222.444335938 l 1
 222.22265625 166.888671875 l 1025
277.77734375 111.333007812 m 1
 388.888671875 111.333007812 l 1
 388.888671875 166.888671875 l 1
 277.77734375 166.888671875 l 1
 277.77734375 111.333007812 l 1025
277.77734375 55.77734375 m 1
 388.888671875 55.77734375 l 1
 388.888671875 111.333007812 l 1
 277.77734375 111.333007812 l 1
 277.77734375 55.77734375 l 1025
333.333007812 0.22265625 m 1
 444.444335938 0.22265625 l 1
 444.444335938 55.77734375 l 1
 333.333007812 55.77734375 l 1
 333.333007812 0.22265625 l 1
EndSplineSet
EndChar

StartChar: bracketright
Encoding: 93 93 62
Width: 500
VWidth: 0
Flags: HW
LayerCount: 2
Back
Fore
SplineSet
111.111328125 555.77734375 m 1
 333.333007812 555.77734375 l 1
 333.333007812 611.333007812 l 1
 111.111328125 611.333007812 l 1
 111.111328125 555.77734375 l 1025
222.22265625 500.22265625 m 1
 333.333007812 500.22265625 l 1
 333.333007812 555.77734375 l 1
 222.22265625 555.77734375 l 1
 222.22265625 500.22265625 l 1025
222.22265625 444.666992188 m 1
 333.333007812 444.666992188 l 1
 333.333007812 500.22265625 l 1
 222.22265625 500.22265625 l 1
 222.22265625 444.666992188 l 1025
222.22265625 389.111328125 m 1
 333.333007812 389.111328125 l 1
 333.333007812 444.666992188 l 1
 222.22265625 444.666992188 l 1
 222.22265625 389.111328125 l 1025
222.22265625 333.555664062 m 1
 333.333007812 333.555664062 l 1
 333.333007812 389.111328125 l 1
 222.22265625 389.111328125 l 1
 222.22265625 333.555664062 l 1025
222.22265625 278 m 1
 333.333007812 278 l 1
 333.333007812 333.555664062 l 1
 222.22265625 333.555664062 l 1
 222.22265625 278 l 1025
222.22265625 222.444335938 m 1
 333.333007812 222.444335938 l 1
 333.333007812 278 l 1
 222.22265625 278 l 1
 222.22265625 222.444335938 l 1025
222.22265625 166.888671875 m 1
 333.333007812 166.888671875 l 1
 333.333007812 222.444335938 l 1
 222.22265625 222.444335938 l 1
 222.22265625 166.888671875 l 1025
222.22265625 111.333007812 m 1
 333.333007812 111.333007812 l 1
 333.333007812 166.888671875 l 1
 222.22265625 166.888671875 l 1
 222.22265625 111.333007812 l 1025
222.22265625 55.77734375 m 1
 333.333007812 55.77734375 l 1
 333.333007812 111.333007812 l 1
 222.22265625 111.333007812 l 1
 222.22265625 55.77734375 l 1025
222.22265625 0.22265625 m 1
 333.333007812 0.22265625 l 1
 333.333007812 55.77734375 l 1
 222.22265625 55.77734375 l 1
 222.22265625 0.22265625 l 1025
111.111328125 -55.3330078125 m 1
 333.333007812 -55.3330078125 l 1
 333.333007812 0.22265625 l 1
 111.111328125 0.22265625 l 1
 111.111328125 -55.3330078125 l 1
EndSplineSet
EndChar

StartChar: asciicircum
Encoding: 94 94 63
Width: 500
VWidth: 0
Flags: HW
LayerCount: 2
Back
Fore
SplineSet
166.666992188 500.22265625 m 1
 277.77734375 500.22265625 l 1
 277.77734375 555.77734375 l 1
 166.666992188 555.77734375 l 1
 166.666992188 500.22265625 l 1025
111.111328125 444.666992188 m 1
 333.333007812 444.666992188 l 1
 333.333007812 500.22265625 l 1
 111.111328125 500.22265625 l 1
 111.111328125 444.666992188 l 1025
55.5556640625 389.111328125 m 1
 166.666992188 389.111328125 l 1
 166.666992188 444.666992188 l 1
 55.5556640625 444.666992188 l 1
 55.5556640625 389.111328125 l 1025
277.77734375 389.111328125 m 1
 388.888671875 389.111328125 l 1
 388.888671875 444.666992188 l 1
 277.77734375 444.666992188 l 1
 277.77734375 389.111328125 l 1025
0 333.555664062 m 1
 111.111328125 333.555664062 l 1
 111.111328125 389.111328125 l 1
 0 389.111328125 l 1
 0 333.555664062 l 1025
333.333007812 333.555664062 m 1
 444.444335938 333.555664062 l 1
 444.444335938 389.111328125 l 1
 333.333007812 389.111328125 l 1
 333.333007812 333.555664062 l 1
EndSplineSet
EndChar

StartChar: underscore
Encoding: 95 95 64
Width: 500
VWidth: 0
Flags: HW
LayerCount: 2
Back
Fore
SplineSet
0 -55.3330078125 m 1
 444.444335938 -55.3330078125 l 1
 444.444335938 0.22265625 l 1
 0 0.22265625 l 1
 0 -55.3330078125 l 1
EndSplineSet
EndChar

StartChar: grave
Encoding: 96 96 65
Width: 500
VWidth: 0
Flags: HW
LayerCount: 2
Back
Fore
SplineSet
111.111328125 666.888671875 m 1
 222.22265625 666.888671875 l 1
 222.22265625 722.444335938 l 1
 111.111328125 722.444335938 l 1
 111.111328125 666.888671875 l 1025
166.666992188 611.333007812 m 1
 277.77734375 611.333007812 l 1
 277.77734375 666.888671875 l 1
 166.666992188 666.888671875 l 1
 166.666992188 611.333007812 l 1025
222.22265625 555.77734375 m 1
 333.333007812 555.77734375 l 1
 333.333007812 611.333007812 l 1
 222.22265625 611.333007812 l 1
 222.22265625 555.77734375 l 1
EndSplineSet
EndChar

StartChar: a
Encoding: 97 97 66
Width: 500
VWidth: 0
Flags: HW
LayerCount: 2
Back
Fore
SplineSet
111.111328125 333.555664062 m 1
 388.888671875 333.555664062 l 1
 388.888671875 389.111328125 l 1
 111.111328125 389.111328125 l 1
 111.111328125 333.555664062 l 1025
333.333007812 278 m 1
 444.444335938 278 l 1
 444.444335938 333.555664062 l 1
 333.333007812 333.555664062 l 1
 333.333007812 278 l 1025
333.333007812 222.444335938 m 1
 444.444335938 222.444335938 l 1
 444.444335938 278 l 1
 333.333007812 278 l 1
 333.333007812 222.444335938 l 1025
111.111328125 166.888671875 m 1
 444.444335938 166.888671875 l 1
 444.444335938 222.444335938 l 1
 111.111328125 222.444335938 l 1
 111.111328125 166.888671875 l 1025
55.5556640625 111.333007812 m 1
 166.666992188 111.333007812 l 1
 166.666992188 166.888671875 l 1
 55.5556640625 166.888671875 l 1
 55.5556640625 111.333007812 l 1025
333.333007812 111.333007812 m 1
 444.444335938 111.333007812 l 1
 444.444335938 166.888671875 l 1
 333.333007812 166.888671875 l 1
 333.333007812 111.333007812 l 1025
55.5556640625 55.77734375 m 1
 166.666992188 55.77734375 l 1
 166.666992188 111.333007812 l 1
 55.5556640625 111.333007812 l 1
 55.5556640625 55.77734375 l 1025
333.333007812 55.77734375 m 1
 444.444335938 55.77734375 l 1
 444.444335938 111.333007812 l 1
 333.333007812 111.333007812 l 1
 333.333007812 55.77734375 l 1025
111.111328125 0.22265625 m 1
 444.444335938 0.22265625 l 1
 444.444335938 55.77734375 l 1
 111.111328125 55.77734375 l 1
 111.111328125 0.22265625 l 1
EndSplineSet
EndChar

StartChar: b
Encoding: 98 98 67
Width: 500
VWidth: 0
Flags: HW
LayerCount: 2
Back
Fore
SplineSet
55.5556640625 500.22265625 m 1
 166.666992188 500.22265625 l 1
 166.666992188 555.77734375 l 1
 55.5556640625 555.77734375 l 1
 55.5556640625 500.22265625 l 1025
55.5556640625 444.666992188 m 1
 166.666992188 444.666992188 l 1
 166.666992188 500.22265625 l 1
 55.5556640625 500.22265625 l 1
 55.5556640625 444.666992188 l 1025
55.5556640625 389.111328125 m 1
 166.666992188 389.111328125 l 1
 166.666992188 444.666992188 l 1
 55.5556640625 444.666992188 l 1
 55.5556640625 389.111328125 l 1025
55.5556640625 333.555664062 m 1
 388.888671875 333.555664062 l 1
 388.888671875 389.111328125 l 1
 55.5556640625 389.111328125 l 1
 55.5556640625 333.555664062 l 1025
55.5556640625 278 m 1
 166.666992188 278 l 1
 166.666992188 333.555664062 l 1
 55.5556640625 333.555664062 l 1
 55.5556640625 278 l 1025
333.333007812 278 m 1
 444.444335938 278 l 1
 444.444335938 333.555664062 l 1
 333.333007812 333.555664062 l 1
 333.333007812 278 l 1025
55.5556640625 222.444335938 m 1
 166.666992188 222.444335938 l 1
 166.666992188 278 l 1
 55.5556640625 278 l 1
 55.5556640625 222.444335938 l 1025
333.333007812 222.444335938 m 1
 444.444335938 222.444335938 l 1
 444.444335938 278 l 1
 333.333007812 278 l 1
 333.333007812 222.444335938 l 1025
55.5556640625 166.888671875 m 1
 166.666992188 166.888671875 l 1
 166.666992188 222.444335938 l 1
 55.5556640625 222.444335938 l 1
 55.5556640625 166.888671875 l 1025
333.333007812 166.888671875 m 1
 444.444335938 166.888671875 l 1
 444.444335938 222.444335938 l 1
 333.333007812 222.444335938 l 1
 333.333007812 166.888671875 l 1025
55.5556640625 111.333007812 m 1
 166.666992188 111.333007812 l 1
 166.666992188 166.888671875 l 1
 55.5556640625 166.888671875 l 1
 55.5556640625 111.333007812 l 1025
333.333007812 111.333007812 m 1
 444.444335938 111.333007812 l 1
 444.444335938 166.888671875 l 1
 333.333007812 166.888671875 l 1
 333.333007812 111.333007812 l 1025
55.5556640625 55.77734375 m 1
 166.666992188 55.77734375 l 1
 166.666992188 111.333007812 l 1
 55.5556640625 111.333007812 l 1
 55.5556640625 55.77734375 l 1025
333.333007812 55.77734375 m 1
 444.444335938 55.77734375 l 1
 444.444335938 111.333007812 l 1
 333.333007812 111.333007812 l 1
 333.333007812 55.77734375 l 1025
55.5556640625 0.22265625 m 1
 388.888671875 0.22265625 l 1
 388.888671875 55.77734375 l 1
 55.5556640625 55.77734375 l 1
 55.5556640625 0.22265625 l 1
EndSplineSet
EndChar

StartChar: c
Encoding: 99 99 68
Width: 500
VWidth: 0
Flags: HW
LayerCount: 2
Back
Fore
SplineSet
111.111328125 333.555664062 m 1
 388.888671875 333.555664062 l 1
 388.888671875 389.111328125 l 1
 111.111328125 389.111328125 l 1
 111.111328125 333.555664062 l 1025
55.5556640625 278 m 1
 166.666992188 278 l 1
 166.666992188 333.555664062 l 1
 55.5556640625 333.555664062 l 1
 55.5556640625 278 l 1025
333.333007812 278 m 1
 444.444335938 278 l 1
 444.444335938 333.555664062 l 1
 333.333007812 333.555664062 l 1
 333.333007812 278 l 1025
55.5556640625 222.444335938 m 1
 166.666992188 222.444335938 l 1
 166.666992188 278 l 1
 55.5556640625 278 l 1
 55.5556640625 222.444335938 l 1025
55.5556640625 166.888671875 m 1
 166.666992188 166.888671875 l 1
 166.666992188 222.444335938 l 1
 55.5556640625 222.444335938 l 1
 55.5556640625 166.888671875 l 1025
55.5556640625 111.333007812 m 1
 166.666992188 111.333007812 l 1
 166.666992188 166.888671875 l 1
 55.5556640625 166.888671875 l 1
 55.5556640625 111.333007812 l 1025
55.5556640625 55.77734375 m 1
 166.666992188 55.77734375 l 1
 166.666992188 111.333007812 l 1
 55.5556640625 111.333007812 l 1
 55.5556640625 55.77734375 l 1025
333.333007812 55.77734375 m 1
 444.444335938 55.77734375 l 1
 444.444335938 111.333007812 l 1
 333.333007812 111.333007812 l 1
 333.333007812 55.77734375 l 1025
111.111328125 0.22265625 m 1
 388.888671875 0.22265625 l 1
 388.888671875 55.77734375 l 1
 111.111328125 55.77734375 l 1
 111.111328125 0.22265625 l 1
EndSplineSet
EndChar

StartChar: d
Encoding: 100 100 69
Width: 500
VWidth: 0
Flags: HW
LayerCount: 2
Back
Fore
SplineSet
333.333007812 500.22265625 m 1
 444.444335938 500.22265625 l 1
 444.444335938 555.77734375 l 1
 333.333007812 555.77734375 l 1
 333.333007812 500.22265625 l 1025
333.333007812 444.666992188 m 1
 444.444335938 444.666992188 l 1
 444.444335938 500.22265625 l 1
 333.333007812 500.22265625 l 1
 333.333007812 444.666992188 l 1025
333.333007812 389.111328125 m 1
 444.444335938 389.111328125 l 1
 444.444335938 444.666992188 l 1
 333.333007812 444.666992188 l 1
 333.333007812 389.111328125 l 1025
111.111328125 333.555664062 m 1
 444.444335938 333.555664062 l 1
 444.444335938 389.111328125 l 1
 111.111328125 389.111328125 l 1
 111.111328125 333.555664062 l 1025
55.5556640625 278 m 1
 166.666992188 278 l 1
 166.666992188 333.555664062 l 1
 55.5556640625 333.555664062 l 1
 55.5556640625 278 l 1025
333.333007812 278 m 1
 444.444335938 278 l 1
 444.444335938 333.555664062 l 1
 333.333007812 333.555664062 l 1
 333.333007812 278 l 1025
55.5556640625 222.444335938 m 1
 166.666992188 222.444335938 l 1
 166.666992188 278 l 1
 55.5556640625 278 l 1
 55.5556640625 222.444335938 l 1025
333.333007812 222.444335938 m 1
 444.444335938 222.444335938 l 1
 444.444335938 278 l 1
 333.333007812 278 l 1
 333.333007812 222.444335938 l 1025
55.5556640625 166.888671875 m 1
 166.666992188 166.888671875 l 1
 166.666992188 222.444335938 l 1
 55.5556640625 222.444335938 l 1
 55.5556640625 166.888671875 l 1025
333.333007812 166.888671875 m 1
 444.444335938 166.888671875 l 1
 444.444335938 222.444335938 l 1
 333.333007812 222.444335938 l 1
 333.333007812 166.888671875 l 1025
55.5556640625 111.333007812 m 1
 166.666992188 111.333007812 l 1
 166.666992188 166.888671875 l 1
 55.5556640625 166.888671875 l 1
 55.5556640625 111.333007812 l 1025
333.333007812 111.333007812 m 1
 444.444335938 111.333007812 l 1
 444.444335938 166.888671875 l 1
 333.333007812 166.888671875 l 1
 333.333007812 111.333007812 l 1025
55.5556640625 55.77734375 m 1
 166.666992188 55.77734375 l 1
 166.666992188 111.333007812 l 1
 55.5556640625 111.333007812 l 1
 55.5556640625 55.77734375 l 1025
333.333007812 55.77734375 m 1
 444.444335938 55.77734375 l 1
 444.444335938 111.333007812 l 1
 333.333007812 111.333007812 l 1
 333.333007812 55.77734375 l 1025
111.111328125 0.22265625 m 1
 444.444335938 0.22265625 l 1
 444.444335938 55.77734375 l 1
 111.111328125 55.77734375 l 1
 111.111328125 0.22265625 l 1
EndSplineSet
EndChar

StartChar: e
Encoding: 101 101 70
Width: 500
VWidth: 0
Flags: HW
LayerCount: 2
Back
Fore
SplineSet
111.111328125 333.555664062 m 1
 388.888671875 333.555664062 l 1
 388.888671875 389.111328125 l 1
 111.111328125 389.111328125 l 1
 111.111328125 333.555664062 l 1025
55.5556640625 278 m 1
 166.666992188 278 l 1
 166.666992188 333.555664062 l 1
 55.5556640625 333.555664062 l 1
 55.5556640625 278 l 1025
333.333007812 278 m 1
 444.444335938 278 l 1
 444.444335938 333.555664062 l 1
 333.333007812 333.555664062 l 1
 333.333007812 278 l 1025
55.5556640625 222.444335938 m 1
 166.666992188 222.444335938 l 1
 166.666992188 278 l 1
 55.5556640625 278 l 1
 55.5556640625 222.444335938 l 1025
333.333007812 222.444335938 m 1
 444.444335938 222.444335938 l 1
 444.444335938 278 l 1
 333.333007812 278 l 1
 333.333007812 222.444335938 l 1025
55.5556640625 166.888671875 m 1
 444.444335938 166.888671875 l 1
 444.444335938 222.444335938 l 1
 55.5556640625 222.444335938 l 1
 55.5556640625 166.888671875 l 1025
55.5556640625 111.333007812 m 1
 166.666992188 111.333007812 l 1
 166.666992188 166.888671875 l 1
 55.5556640625 166.888671875 l 1
 55.5556640625 111.333007812 l 1025
55.5556640625 55.77734375 m 1
 166.666992188 55.77734375 l 1
 166.666992188 111.333007812 l 1
 55.5556640625 111.333007812 l 1
 55.5556640625 55.77734375 l 1025
333.333007812 55.77734375 m 1
 444.444335938 55.77734375 l 1
 444.444335938 111.333007812 l 1
 333.333007812 111.333007812 l 1
 333.333007812 55.77734375 l 1025
111.111328125 0.22265625 m 1
 388.888671875 0.22265625 l 1
 388.888671875 55.77734375 l 1
 111.111328125 55.77734375 l 1
 111.111328125 0.22265625 l 1
EndSplineSet
EndChar

StartChar: f
Encoding: 102 102 71
Width: 500
VWidth: 0
Flags: HW
LayerCount: 2
Back
Fore
SplineSet
166.666992188 500.22265625 m 1
 333.333007812 500.22265625 l 1
 333.333007812 555.77734375 l 1
 166.666992188 555.77734375 l 1
 166.666992188 500.22265625 l 1025
111.111328125 444.666992188 m 1
 222.22265625 444.666992188 l 1
 222.22265625 500.22265625 l 1
 111.111328125 500.22265625 l 1
 111.111328125 444.666992188 l 1025
277.77734375 444.666992188 m 1
 388.888671875 444.666992188 l 1
 388.888671875 500.22265625 l 1
 277.77734375 500.22265625 l 1
 277.77734375 444.666992188 l 1025
111.111328125 389.111328125 m 1
 222.22265625 389.111328125 l 1
 222.22265625 444.666992188 l 1
 111.111328125 444.666992188 l 1
 111.111328125 389.111328125 l 1025
277.77734375 389.111328125 m 1
 388.888671875 389.111328125 l 1
 388.888671875 444.666992188 l 1
 277.77734375 444.666992188 l 1
 277.77734375 389.111328125 l 1025
111.111328125 333.555664062 m 1
 222.22265625 333.555664062 l 1
 222.22265625 389.111328125 l 1
 111.111328125 389.111328125 l 1
 111.111328125 333.555664062 l 1025
111.111328125 278 m 1
 222.22265625 278 l 1
 222.22265625 333.555664062 l 1
 111.111328125 333.555664062 l 1
 111.111328125 278 l 1025
55.5556640625 222.444335938 m 1
 277.77734375 222.444335938 l 1
 277.77734375 278 l 1
 55.5556640625 278 l 1
 55.5556640625 222.444335938 l 1025
111.111328125 166.888671875 m 1
 222.22265625 166.888671875 l 1
 222.22265625 222.444335938 l 1
 111.111328125 222.444335938 l 1
 111.111328125 166.888671875 l 1025
111.111328125 111.333007812 m 1
 222.22265625 111.333007812 l 1
 222.22265625 166.888671875 l 1
 111.111328125 166.888671875 l 1
 111.111328125 111.333007812 l 1025
111.111328125 55.77734375 m 1
 222.22265625 55.77734375 l 1
 222.22265625 111.333007812 l 1
 111.111328125 111.333007812 l 1
 111.111328125 55.77734375 l 1025
111.111328125 0.22265625 m 1
 222.22265625 0.22265625 l 1
 222.22265625 55.77734375 l 1
 111.111328125 55.77734375 l 1
 111.111328125 0.22265625 l 1
EndSplineSet
EndChar

StartChar: g
Encoding: 103 103 72
Width: 500
VWidth: 0
Flags: HW
LayerCount: 2
Back
Fore
SplineSet
111.111328125 333.555664062 m 1
 444.444335938 333.555664062 l 1
 444.444335938 389.111328125 l 1
 111.111328125 389.111328125 l 1
 111.111328125 333.555664062 l 1025
55.5556640625 278 m 1
 166.666992188 278 l 1
 166.666992188 333.555664062 l 1
 55.5556640625 333.555664062 l 1
 55.5556640625 278 l 1025
277.77734375 278 m 1
 388.888671875 278 l 1
 388.888671875 333.555664062 l 1
 277.77734375 333.555664062 l 1
 277.77734375 278 l 1025
55.5556640625 222.444335938 m 1
 166.666992188 222.444335938 l 1
 166.666992188 278 l 1
 55.5556640625 278 l 1
 55.5556640625 222.444335938 l 1025
277.77734375 222.444335938 m 1
 388.888671875 222.444335938 l 1
 388.888671875 278 l 1
 277.77734375 278 l 1
 277.77734375 222.444335938 l 1025
55.5556640625 166.888671875 m 1
 166.666992188 166.888671875 l 1
 166.666992188 222.444335938 l 1
 55.5556640625 222.444335938 l 1
 55.5556640625 166.888671875 l 1025
277.77734375 166.888671875 m 1
 388.888671875 166.888671875 l 1
 388.888671875 222.444335938 l 1
 277.77734375 222.444335938 l 1
 277.77734375 166.888671875 l 1025
111.111328125 111.333007812 m 1
 333.333007812 111.333007812 l 1
 333.333007812 166.888671875 l 1
 111.111328125 166.888671875 l 1
 111.111328125 111.333007812 l 1025
55.5556640625 55.77734375 m 1
 166.666992188 55.77734375 l 1
 166.666992188 111.333007812 l 1
 55.5556640625 111.333007812 l 1
 55.5556640625 55.77734375 l 1025
111.111328125 0.22265625 m 1
 388.888671875 0.22265625 l 1
 388.888671875 55.77734375 l 1
 111.111328125 55.77734375 l 1
 111.111328125 0.22265625 l 1025
55.5556640625 -55.3330078125 m 1
 166.666992188 -55.3330078125 l 1
 166.666992188 0.22265625 l 1
 55.5556640625 0.22265625 l 1
 55.5556640625 -55.3330078125 l 1025
333.333007812 -55.3330078125 m 1
 444.444335938 -55.3330078125 l 1
 444.444335938 0.22265625 l 1
 333.333007812 0.22265625 l 1
 333.333007812 -55.3330078125 l 1025
55.5556640625 -110.888671875 m 1
 166.666992188 -110.888671875 l 1
 166.666992188 -55.3330078125 l 1
 55.5556640625 -55.3330078125 l 1
 55.5556640625 -110.888671875 l 1025
333.333007812 -110.888671875 m 1
 444.444335938 -110.888671875 l 1
 444.444335938 -55.3330078125 l 1
 333.333007812 -55.3330078125 l 1
 333.333007812 -110.888671875 l 1025
111.111328125 -166.444335938 m 1
 388.888671875 -166.444335938 l 1
 388.888671875 -110.888671875 l 1
 111.111328125 -110.888671875 l 1
 111.111328125 -166.444335938 l 1
EndSplineSet
EndChar

StartChar: h
Encoding: 104 104 73
Width: 500
VWidth: 0
Flags: HW
LayerCount: 2
Back
Fore
SplineSet
55.5556640625 500.22265625 m 1
 166.666992188 500.22265625 l 1
 166.666992188 555.77734375 l 1
 55.5556640625 555.77734375 l 1
 55.5556640625 500.22265625 l 1025
55.5556640625 444.666992188 m 1
 166.666992188 444.666992188 l 1
 166.666992188 500.22265625 l 1
 55.5556640625 500.22265625 l 1
 55.5556640625 444.666992188 l 1025
55.5556640625 389.111328125 m 1
 166.666992188 389.111328125 l 1
 166.666992188 444.666992188 l 1
 55.5556640625 444.666992188 l 1
 55.5556640625 389.111328125 l 1025
55.5556640625 333.555664062 m 1
 388.888671875 333.555664062 l 1
 388.888671875 389.111328125 l 1
 55.5556640625 389.111328125 l 1
 55.5556640625 333.555664062 l 1025
55.5556640625 278 m 1
 166.666992188 278 l 1
 166.666992188 333.555664062 l 1
 55.5556640625 333.555664062 l 1
 55.5556640625 278 l 1025
333.333007812 278 m 1
 444.444335938 278 l 1
 444.444335938 333.555664062 l 1
 333.333007812 333.555664062 l 1
 333.333007812 278 l 1025
55.5556640625 222.444335938 m 1
 166.666992188 222.444335938 l 1
 166.666992188 278 l 1
 55.5556640625 278 l 1
 55.5556640625 222.444335938 l 1025
333.333007812 222.444335938 m 1
 444.444335938 222.444335938 l 1
 444.444335938 278 l 1
 333.333007812 278 l 1
 333.333007812 222.444335938 l 1025
55.5556640625 166.888671875 m 1
 166.666992188 166.888671875 l 1
 166.666992188 222.444335938 l 1
 55.5556640625 222.444335938 l 1
 55.5556640625 166.888671875 l 1025
333.333007812 166.888671875 m 1
 444.444335938 166.888671875 l 1
 444.444335938 222.444335938 l 1
 333.333007812 222.444335938 l 1
 333.333007812 166.888671875 l 1025
55.5556640625 111.333007812 m 1
 166.666992188 111.333007812 l 1
 166.666992188 166.888671875 l 1
 55.5556640625 166.888671875 l 1
 55.5556640625 111.333007812 l 1025
333.333007812 111.333007812 m 1
 444.444335938 111.333007812 l 1
 444.444335938 166.888671875 l 1
 333.333007812 166.888671875 l 1
 333.333007812 111.333007812 l 1025
55.5556640625 55.77734375 m 1
 166.666992188 55.77734375 l 1
 166.666992188 111.333007812 l 1
 55.5556640625 111.333007812 l 1
 55.5556640625 55.77734375 l 1025
333.333007812 55.77734375 m 1
 444.444335938 55.77734375 l 1
 444.444335938 111.333007812 l 1
 333.333007812 111.333007812 l 1
 333.333007812 55.77734375 l 1025
55.5556640625 0.22265625 m 1
 166.666992188 0.22265625 l 1
 166.666992188 55.77734375 l 1
 55.5556640625 55.77734375 l 1
 55.5556640625 0.22265625 l 1025
333.333007812 0.22265625 m 1
 444.444335938 0.22265625 l 1
 444.444335938 55.77734375 l 1
 333.333007812 55.77734375 l 1
 333.333007812 0.22265625 l 1
EndSplineSet
EndChar

StartChar: i
Encoding: 105 105 74
Width: 500
VWidth: 0
Flags: HW
LayerCount: 2
Back
Fore
SplineSet
166.666992188 500.22265625 m 1
 277.77734375 500.22265625 l 1
 277.77734375 555.77734375 l 1
 166.666992188 555.77734375 l 1
 166.666992188 500.22265625 l 1025
166.666992188 444.666992188 m 1
 277.77734375 444.666992188 l 1
 277.77734375 500.22265625 l 1
 166.666992188 500.22265625 l 1
 166.666992188 444.666992188 l 1025
55.5556640625 333.555664062 m 1
 277.77734375 333.555664062 l 1
 277.77734375 389.111328125 l 1
 55.5556640625 389.111328125 l 1
 55.5556640625 333.555664062 l 1025
166.666992188 278 m 1
 277.77734375 278 l 1
 277.77734375 333.555664062 l 1
 166.666992188 333.555664062 l 1
 166.666992188 278 l 1025
166.666992188 222.444335938 m 1
 277.77734375 222.444335938 l 1
 277.77734375 278 l 1
 166.666992188 278 l 1
 166.666992188 222.444335938 l 1025
166.666992188 166.888671875 m 1
 277.77734375 166.888671875 l 1
 277.77734375 222.444335938 l 1
 166.666992188 222.444335938 l 1
 166.666992188 166.888671875 l 1025
166.666992188 111.333007812 m 1
 277.77734375 111.333007812 l 1
 277.77734375 166.888671875 l 1
 166.666992188 166.888671875 l 1
 166.666992188 111.333007812 l 1025
166.666992188 55.77734375 m 1
 277.77734375 55.77734375 l 1
 277.77734375 111.333007812 l 1
 166.666992188 111.333007812 l 1
 166.666992188 55.77734375 l 1025
55.5556640625 0.22265625 m 1
 388.888671875 0.22265625 l 1
 388.888671875 55.77734375 l 1
 55.5556640625 55.77734375 l 1
 55.5556640625 0.22265625 l 1
EndSplineSet
EndChar

StartChar: j
Encoding: 106 106 75
Width: 500
VWidth: 0
Flags: HW
LayerCount: 2
Back
Fore
SplineSet
277.77734375 500.22265625 m 1
 388.888671875 500.22265625 l 1
 388.888671875 555.77734375 l 1
 277.77734375 555.77734375 l 1
 277.77734375 500.22265625 l 1025
277.77734375 444.666992188 m 1
 388.888671875 444.666992188 l 1
 388.888671875 500.22265625 l 1
 277.77734375 500.22265625 l 1
 277.77734375 444.666992188 l 1025
222.22265625 333.555664062 m 1
 388.888671875 333.555664062 l 1
 388.888671875 389.111328125 l 1
 222.22265625 389.111328125 l 1
 222.22265625 333.555664062 l 1025
277.77734375 278 m 1
 388.888671875 278 l 1
 388.888671875 333.555664062 l 1
 277.77734375 333.555664062 l 1
 277.77734375 278 l 1025
277.77734375 222.444335938 m 1
 388.888671875 222.444335938 l 1
 388.888671875 278 l 1
 277.77734375 278 l 1
 277.77734375 222.444335938 l 1025
277.77734375 166.888671875 m 1
 388.888671875 166.888671875 l 1
 388.888671875 222.444335938 l 1
 277.77734375 222.444335938 l 1
 277.77734375 166.888671875 l 1025
277.77734375 111.333007812 m 1
 388.888671875 111.333007812 l 1
 388.888671875 166.888671875 l 1
 277.77734375 166.888671875 l 1
 277.77734375 111.333007812 l 1025
277.77734375 55.77734375 m 1
 388.888671875 55.77734375 l 1
 388.888671875 111.333007812 l 1
 277.77734375 111.333007812 l 1
 277.77734375 55.77734375 l 1025
277.77734375 0.22265625 m 1
 388.888671875 0.22265625 l 1
 388.888671875 55.77734375 l 1
 277.77734375 55.77734375 l 1
 277.77734375 0.22265625 l 1025
111.111328125 -55.3330078125 m 1
 222.22265625 -55.3330078125 l 1
 222.22265625 0.22265625 l 1
 111.111328125 0.22265625 l 1
 111.111328125 -55.3330078125 l 1025
277.77734375 -55.3330078125 m 1
 388.888671875 -55.3330078125 l 1
 388.888671875 0.22265625 l 1
 277.77734375 0.22265625 l 1
 277.77734375 -55.3330078125 l 1025
111.111328125 -110.888671875 m 1
 222.22265625 -110.888671875 l 1
 222.22265625 -55.3330078125 l 1
 111.111328125 -55.3330078125 l 1
 111.111328125 -110.888671875 l 1025
277.77734375 -110.888671875 m 1
 388.888671875 -110.888671875 l 1
 388.888671875 -55.3330078125 l 1
 277.77734375 -55.3330078125 l 1
 277.77734375 -110.888671875 l 1025
166.666992188 -166.444335938 m 1
 333.333007812 -166.444335938 l 1
 333.333007812 -110.888671875 l 1
 166.666992188 -110.888671875 l 1
 166.666992188 -166.444335938 l 1
EndSplineSet
EndChar

StartChar: k
Encoding: 107 107 76
Width: 500
VWidth: 0
Flags: HW
LayerCount: 2
Back
Fore
SplineSet
55.5556640625 500.22265625 m 1
 166.666992188 500.22265625 l 1
 166.666992188 555.77734375 l 1
 55.5556640625 555.77734375 l 1
 55.5556640625 500.22265625 l 1025
55.5556640625 444.666992188 m 1
 166.666992188 444.666992188 l 1
 166.666992188 500.22265625 l 1
 55.5556640625 500.22265625 l 1
 55.5556640625 444.666992188 l 1025
55.5556640625 389.111328125 m 1
 166.666992188 389.111328125 l 1
 166.666992188 444.666992188 l 1
 55.5556640625 444.666992188 l 1
 55.5556640625 389.111328125 l 1025
55.5556640625 333.555664062 m 1
 166.666992188 333.555664062 l 1
 166.666992188 389.111328125 l 1
 55.5556640625 389.111328125 l 1
 55.5556640625 333.555664062 l 1025
277.77734375 333.555664062 m 1
 388.888671875 333.555664062 l 1
 388.888671875 389.111328125 l 1
 277.77734375 389.111328125 l 1
 277.77734375 333.555664062 l 1025
55.5556640625 278 m 1
 166.666992188 278 l 1
 166.666992188 333.555664062 l 1
 55.5556640625 333.555664062 l 1
 55.5556640625 278 l 1025
222.22265625 278 m 1
 333.333007812 278 l 1
 333.333007812 333.555664062 l 1
 222.22265625 333.555664062 l 1
 222.22265625 278 l 1025
55.5556640625 222.444335938 m 1
 277.77734375 222.444335938 l 1
 277.77734375 278 l 1
 55.5556640625 278 l 1
 55.5556640625 222.444335938 l 1025
55.5556640625 166.888671875 m 1
 277.77734375 166.888671875 l 1
 277.77734375 222.444335938 l 1
 55.5556640625 222.444335938 l 1
 55.5556640625 166.888671875 l 1025
55.5556640625 111.333007812 m 1
 166.666992188 111.333007812 l 1
 166.666992188 166.888671875 l 1
 55.5556640625 166.888671875 l 1
 55.5556640625 111.333007812 l 1025
222.22265625 111.333007812 m 1
 333.333007812 111.333007812 l 1
 333.333007812 166.888671875 l 1
 222.22265625 166.888671875 l 1
 222.22265625 111.333007812 l 1025
55.5556640625 55.77734375 m 1
 166.666992188 55.77734375 l 1
 166.666992188 111.333007812 l 1
 55.5556640625 111.333007812 l 1
 55.5556640625 55.77734375 l 1025
277.77734375 55.77734375 m 1
 388.888671875 55.77734375 l 1
 388.888671875 111.333007812 l 1
 277.77734375 111.333007812 l 1
 277.77734375 55.77734375 l 1025
55.5556640625 0.22265625 m 1
 166.666992188 0.22265625 l 1
 166.666992188 55.77734375 l 1
 55.5556640625 55.77734375 l 1
 55.5556640625 0.22265625 l 1025
333.333007812 0.22265625 m 1
 444.444335938 0.22265625 l 1
 444.444335938 55.77734375 l 1
 333.333007812 55.77734375 l 1
 333.333007812 0.22265625 l 1
EndSplineSet
EndChar

StartChar: l
Encoding: 108 108 77
Width: 500
VWidth: 0
Flags: HW
LayerCount: 2
Back
Fore
SplineSet
55.5556640625 500.22265625 m 1
 277.77734375 500.22265625 l 1
 277.77734375 555.77734375 l 1
 55.5556640625 555.77734375 l 1
 55.5556640625 500.22265625 l 1025
166.666992188 444.666992188 m 1
 277.77734375 444.666992188 l 1
 277.77734375 500.22265625 l 1
 166.666992188 500.22265625 l 1
 166.666992188 444.666992188 l 1025
166.666992188 389.111328125 m 1
 277.77734375 389.111328125 l 1
 277.77734375 444.666992188 l 1
 166.666992188 444.666992188 l 1
 166.666992188 389.111328125 l 1025
166.666992188 333.555664062 m 1
 277.77734375 333.555664062 l 1
 277.77734375 389.111328125 l 1
 166.666992188 389.111328125 l 1
 166.666992188 333.555664062 l 1025
166.666992188 278 m 1
 277.77734375 278 l 1
 277.77734375 333.555664062 l 1
 166.666992188 333.555664062 l 1
 166.666992188 278 l 1025
166.666992188 222.444335938 m 1
 277.77734375 222.444335938 l 1
 277.77734375 278 l 1
 166.666992188 278 l 1
 166.666992188 222.444335938 l 1025
166.666992188 166.888671875 m 1
 277.77734375 166.888671875 l 1
 277.77734375 222.444335938 l 1
 166.666992188 222.444335938 l 1
 166.666992188 166.888671875 l 1025
166.666992188 111.333007812 m 1
 277.77734375 111.333007812 l 1
 277.77734375 166.888671875 l 1
 166.666992188 166.888671875 l 1
 166.666992188 111.333007812 l 1025
166.666992188 55.77734375 m 1
 277.77734375 55.77734375 l 1
 277.77734375 111.333007812 l 1
 166.666992188 111.333007812 l 1
 166.666992188 55.77734375 l 1025
55.5556640625 0.22265625 m 1
 388.888671875 0.22265625 l 1
 388.888671875 55.77734375 l 1
 55.5556640625 55.77734375 l 1
 55.5556640625 0.22265625 l 1
EndSplineSet
EndChar

StartChar: m
Encoding: 109 109 78
Width: 500
VWidth: 0
Flags: HW
LayerCount: 2
Back
Fore
SplineSet
0 333.555664062 m 1
 388.888671875 333.555664062 l 1
 388.888671875 389.111328125 l 1
 0 389.111328125 l 1
 0 333.555664062 l 1025
0 278 m 1
 111.111328125 278 l 1
 111.111328125 333.555664062 l 1
 0 333.555664062 l 1
 0 278 l 1025
166.666992188 278 m 1
 277.77734375 278 l 1
 277.77734375 333.555664062 l 1
 166.666992188 333.555664062 l 1
 166.666992188 278 l 1025
333.333007812 278 m 1
 444.444335938 278 l 1
 444.444335938 333.555664062 l 1
 333.333007812 333.555664062 l 1
 333.333007812 278 l 1025
0 222.444335938 m 1
 111.111328125 222.444335938 l 1
 111.111328125 278 l 1
 0 278 l 1
 0 222.444335938 l 1025
166.666992188 222.444335938 m 1
 277.77734375 222.444335938 l 1
 277.77734375 278 l 1
 166.666992188 278 l 1
 166.666992188 222.444335938 l 1025
333.333007812 222.444335938 m 1
 444.444335938 222.444335938 l 1
 444.444335938 278 l 1
 333.333007812 278 l 1
 333.333007812 222.444335938 l 1025
0 166.888671875 m 1
 111.111328125 166.888671875 l 1
 111.111328125 222.444335938 l 1
 0 222.444335938 l 1
 0 166.888671875 l 1025
166.666992188 166.888671875 m 1
 277.77734375 166.888671875 l 1
 277.77734375 222.444335938 l 1
 166.666992188 222.444335938 l 1
 166.666992188 166.888671875 l 1025
333.333007812 166.888671875 m 1
 444.444335938 166.888671875 l 1
 444.444335938 222.444335938 l 1
 333.333007812 222.444335938 l 1
 333.333007812 166.888671875 l 1025
0 111.333007812 m 1
 111.111328125 111.333007812 l 1
 111.111328125 166.888671875 l 1
 0 166.888671875 l 1
 0 111.333007812 l 1025
166.666992188 111.333007812 m 1
 277.77734375 111.333007812 l 1
 277.77734375 166.888671875 l 1
 166.666992188 166.888671875 l 1
 166.666992188 111.333007812 l 1025
333.333007812 111.333007812 m 1
 444.444335938 111.333007812 l 1
 444.444335938 166.888671875 l 1
 333.333007812 166.888671875 l 1
 333.333007812 111.333007812 l 1025
0 55.77734375 m 1
 111.111328125 55.77734375 l 1
 111.111328125 111.333007812 l 1
 0 111.333007812 l 1
 0 55.77734375 l 1025
166.666992188 55.77734375 m 1
 277.77734375 55.77734375 l 1
 277.77734375 111.333007812 l 1
 166.666992188 111.333007812 l 1
 166.666992188 55.77734375 l 1025
333.333007812 55.77734375 m 1
 444.444335938 55.77734375 l 1
 444.444335938 111.333007812 l 1
 333.333007812 111.333007812 l 1
 333.333007812 55.77734375 l 1025
0 0.22265625 m 1
 111.111328125 0.22265625 l 1
 111.111328125 55.77734375 l 1
 0 55.77734375 l 1
 0 0.22265625 l 1025
333.333007812 0.22265625 m 1
 444.444335938 0.22265625 l 1
 444.444335938 55.77734375 l 1
 333.333007812 55.77734375 l 1
 333.333007812 0.22265625 l 1
EndSplineSet
EndChar

StartChar: n
Encoding: 110 110 79
Width: 500
VWidth: 0
Flags: HW
LayerCount: 2
Back
Fore
SplineSet
55.5556640625 333.555664062 m 1
 166.666992188 333.555664062 l 1
 166.666992188 389.111328125 l 1
 55.5556640625 389.111328125 l 1
 55.5556640625 333.555664062 l 1025
222.22265625 333.555664062 m 1
 388.888671875 333.555664062 l 1
 388.888671875 389.111328125 l 1
 222.22265625 389.111328125 l 1
 222.22265625 333.555664062 l 1025
55.5556640625 278 m 1
 222.22265625 278 l 1
 222.22265625 333.555664062 l 1
 55.5556640625 333.555664062 l 1
 55.5556640625 278 l 1025
333.333007812 278 m 1
 444.444335938 278 l 1
 444.444335938 333.555664062 l 1
 333.333007812 333.555664062 l 1
 333.333007812 278 l 1025
55.5556640625 222.444335938 m 1
 166.666992188 222.444335938 l 1
 166.666992188 278 l 1
 55.5556640625 278 l 1
 55.5556640625 222.444335938 l 1025
333.333007812 222.444335938 m 1
 444.444335938 222.444335938 l 1
 444.444335938 278 l 1
 333.333007812 278 l 1
 333.333007812 222.444335938 l 1025
55.5556640625 166.888671875 m 1
 166.666992188 166.888671875 l 1
 166.666992188 222.444335938 l 1
 55.5556640625 222.444335938 l 1
 55.5556640625 166.888671875 l 1025
333.333007812 166.888671875 m 1
 444.444335938 166.888671875 l 1
 444.444335938 222.444335938 l 1
 333.333007812 222.444335938 l 1
 333.333007812 166.888671875 l 1025
55.5556640625 111.333007812 m 1
 166.666992188 111.333007812 l 1
 166.666992188 166.888671875 l 1
 55.5556640625 166.888671875 l 1
 55.5556640625 111.333007812 l 1025
333.333007812 111.333007812 m 1
 444.444335938 111.333007812 l 1
 444.444335938 166.888671875 l 1
 333.333007812 166.888671875 l 1
 333.333007812 111.333007812 l 1025
55.5556640625 55.77734375 m 1
 166.666992188 55.77734375 l 1
 166.666992188 111.333007812 l 1
 55.5556640625 111.333007812 l 1
 55.5556640625 55.77734375 l 1025
333.333007812 55.77734375 m 1
 444.444335938 55.77734375 l 1
 444.444335938 111.333007812 l 1
 333.333007812 111.333007812 l 1
 333.333007812 55.77734375 l 1025
55.5556640625 0.22265625 m 1
 166.666992188 0.22265625 l 1
 166.666992188 55.77734375 l 1
 55.5556640625 55.77734375 l 1
 55.5556640625 0.22265625 l 1025
333.333007812 0.22265625 m 1
 444.444335938 0.22265625 l 1
 444.444335938 55.77734375 l 1
 333.333007812 55.77734375 l 1
 333.333007812 0.22265625 l 1
EndSplineSet
EndChar

StartChar: o
Encoding: 111 111 80
Width: 500
VWidth: 0
Flags: HW
LayerCount: 2
Back
Fore
SplineSet
166.666992188 333.555664062 m 1
 333.333007812 333.555664062 l 1
 333.333007812 389.111328125 l 1
 166.666992188 389.111328125 l 1
 166.666992188 333.555664062 l 1025
111.111328125 278 m 1
 222.22265625 278 l 1
 222.22265625 333.555664062 l 1
 111.111328125 333.555664062 l 1
 111.111328125 278 l 1025
277.77734375 278 m 1
 388.888671875 278 l 1
 388.888671875 333.555664062 l 1
 277.77734375 333.555664062 l 1
 277.77734375 278 l 1025
55.5556640625 222.444335938 m 1
 166.666992188 222.444335938 l 1
 166.666992188 278 l 1
 55.5556640625 278 l 1
 55.5556640625 222.444335938 l 1025
333.333007812 222.444335938 m 1
 444.444335938 222.444335938 l 1
 444.444335938 278 l 1
 333.333007812 278 l 1
 333.333007812 222.444335938 l 1025
55.5556640625 166.888671875 m 1
 166.666992188 166.888671875 l 1
 166.666992188 222.444335938 l 1
 55.5556640625 222.444335938 l 1
 55.5556640625 166.888671875 l 1025
333.333007812 166.888671875 m 1
 444.444335938 166.888671875 l 1
 444.444335938 222.444335938 l 1
 333.333007812 222.444335938 l 1
 333.333007812 166.888671875 l 1025
55.5556640625 111.333007812 m 1
 166.666992188 111.333007812 l 1
 166.666992188 166.888671875 l 1
 55.5556640625 166.888671875 l 1
 55.5556640625 111.333007812 l 1025
333.333007812 111.333007812 m 1
 444.444335938 111.333007812 l 1
 444.444335938 166.888671875 l 1
 333.333007812 166.888671875 l 1
 333.333007812 111.333007812 l 1025
111.111328125 55.77734375 m 1
 222.22265625 55.77734375 l 1
 222.22265625 111.333007812 l 1
 111.111328125 111.333007812 l 1
 111.111328125 55.77734375 l 1025
277.77734375 55.77734375 m 1
 388.888671875 55.77734375 l 1
 388.888671875 111.333007812 l 1
 277.77734375 111.333007812 l 1
 277.77734375 55.77734375 l 1025
166.666992188 0.22265625 m 1
 333.333007812 0.22265625 l 1
 333.333007812 55.77734375 l 1
 166.666992188 55.77734375 l 1
 166.666992188 0.22265625 l 1
EndSplineSet
EndChar

StartChar: p
Encoding: 112 112 81
Width: 500
VWidth: 0
Flags: HW
LayerCount: 2
Back
Fore
SplineSet
55.5556640625 333.555664062 m 1
 333.333007812 333.555664062 l 1
 333.333007812 389.111328125 l 1
 55.5556640625 389.111328125 l 1
 55.5556640625 333.555664062 l 1025
55.5556640625 278 m 1
 166.666992188 278 l 1
 166.666992188 333.555664062 l 1
 55.5556640625 333.555664062 l 1
 55.5556640625 278 l 1025
277.77734375 278 m 1
 388.888671875 278 l 1
 388.888671875 333.555664062 l 1
 277.77734375 333.555664062 l 1
 277.77734375 278 l 1025
55.5556640625 222.444335938 m 1
 166.666992188 222.444335938 l 1
 166.666992188 278 l 1
 55.5556640625 278 l 1
 55.5556640625 222.444335938 l 1025
333.333007812 222.444335938 m 1
 444.444335938 222.444335938 l 1
 444.444335938 278 l 1
 333.333007812 278 l 1
 333.333007812 222.444335938 l 1025
55.5556640625 166.888671875 m 1
 166.666992188 166.888671875 l 1
 166.666992188 222.444335938 l 1
 55.5556640625 222.444335938 l 1
 55.5556640625 166.888671875 l 1025
333.333007812 166.888671875 m 1
 444.444335938 166.888671875 l 1
 444.444335938 222.444335938 l 1
 333.333007812 222.444335938 l 1
 333.333007812 166.888671875 l 1025
55.5556640625 111.333007812 m 1
 166.666992188 111.333007812 l 1
 166.666992188 166.888671875 l 1
 55.5556640625 166.888671875 l 1
 55.5556640625 111.333007812 l 1025
333.333007812 111.333007812 m 1
 444.444335938 111.333007812 l 1
 444.444335938 166.888671875 l 1
 333.333007812 166.888671875 l 1
 333.333007812 111.333007812 l 1025
55.5556640625 55.77734375 m 1
 166.666992188 55.77734375 l 1
 166.666992188 111.333007812 l 1
 55.5556640625 111.333007812 l 1
 55.5556640625 55.77734375 l 1025
277.77734375 55.77734375 m 1
 388.888671875 55.77734375 l 1
 388.888671875 111.333007812 l 1
 277.77734375 111.333007812 l 1
 277.77734375 55.77734375 l 1025
55.5556640625 0.22265625 m 1
 333.333007812 0.22265625 l 1
 333.333007812 55.77734375 l 1
 55.5556640625 55.77734375 l 1
 55.5556640625 0.22265625 l 1025
55.5556640625 -55.3330078125 m 1
 166.666992188 -55.3330078125 l 1
 166.666992188 0.22265625 l 1
 55.5556640625 0.22265625 l 1
 55.5556640625 -55.3330078125 l 1025
55.5556640625 -110.888671875 m 1
 166.666992188 -110.888671875 l 1
 166.666992188 -55.3330078125 l 1
 55.5556640625 -55.3330078125 l 1
 55.5556640625 -110.888671875 l 1025
55.5556640625 -166.444335938 m 1
 166.666992188 -166.444335938 l 1
 166.666992188 -110.888671875 l 1
 55.5556640625 -110.888671875 l 1
 55.5556640625 -166.444335938 l 1
EndSplineSet
EndChar

StartChar: q
Encoding: 113 113 82
Width: 500
VWidth: 0
Flags: HW
LayerCount: 2
Back
Fore
SplineSet
166.666992188 333.555664062 m 1
 444.444335938 333.555664062 l 1
 444.444335938 389.111328125 l 1
 166.666992188 389.111328125 l 1
 166.666992188 333.555664062 l 1025
111.111328125 278 m 1
 222.22265625 278 l 1
 222.22265625 333.555664062 l 1
 111.111328125 333.555664062 l 1
 111.111328125 278 l 1025
333.333007812 278 m 1
 444.444335938 278 l 1
 444.444335938 333.555664062 l 1
 333.333007812 333.555664062 l 1
 333.333007812 278 l 1025
55.5556640625 222.444335938 m 1
 166.666992188 222.444335938 l 1
 166.666992188 278 l 1
 55.5556640625 278 l 1
 55.5556640625 222.444335938 l 1025
333.333007812 222.444335938 m 1
 444.444335938 222.444335938 l 1
 444.444335938 278 l 1
 333.333007812 278 l 1
 333.333007812 222.444335938 l 1025
55.5556640625 166.888671875 m 1
 166.666992188 166.888671875 l 1
 166.666992188 222.444335938 l 1
 55.5556640625 222.444335938 l 1
 55.5556640625 166.888671875 l 1025
333.333007812 166.888671875 m 1
 444.444335938 166.888671875 l 1
 444.444335938 222.444335938 l 1
 333.333007812 222.444335938 l 1
 333.333007812 166.888671875 l 1025
55.5556640625 111.333007812 m 1
 166.666992188 111.333007812 l 1
 166.666992188 166.888671875 l 1
 55.5556640625 166.888671875 l 1
 55.5556640625 111.333007812 l 1025
333.333007812 111.333007812 m 1
 444.444335938 111.333007812 l 1
 444.444335938 166.888671875 l 1
 333.333007812 166.888671875 l 1
 333.333007812 111.333007812 l 1025
111.111328125 55.77734375 m 1
 222.22265625 55.77734375 l 1
 222.22265625 111.333007812 l 1
 111.111328125 111.333007812 l 1
 111.111328125 55.77734375 l 1025
333.333007812 55.77734375 m 1
 444.444335938 55.77734375 l 1
 444.444335938 111.333007812 l 1
 333.333007812 111.333007812 l 1
 333.333007812 55.77734375 l 1025
166.666992188 0.22265625 m 1
 444.444335938 0.22265625 l 1
 444.444335938 55.77734375 l 1
 166.666992188 55.77734375 l 1
 166.666992188 0.22265625 l 1025
333.333007812 -55.3330078125 m 1
 444.444335938 -55.3330078125 l 1
 444.444335938 0.22265625 l 1
 333.333007812 0.22265625 l 1
 333.333007812 -55.3330078125 l 1025
333.333007812 -110.888671875 m 1
 444.444335938 -110.888671875 l 1
 444.444335938 -55.3330078125 l 1
 333.333007812 -55.3330078125 l 1
 333.333007812 -110.888671875 l 1025
333.333007812 -166.444335938 m 1
 444.444335938 -166.444335938 l 1
 444.444335938 -110.888671875 l 1
 333.333007812 -110.888671875 l 1
 333.333007812 -166.444335938 l 1
EndSplineSet
EndChar

StartChar: r
Encoding: 114 114 83
Width: 500
VWidth: 0
Flags: HW
LayerCount: 2
Back
Fore
SplineSet
55.5556640625 333.555664062 m 1
 166.666992188 333.555664062 l 1
 166.666992188 389.111328125 l 1
 55.5556640625 389.111328125 l 1
 55.5556640625 333.555664062 l 1025
222.22265625 333.555664062 m 1
 388.888671875 333.555664062 l 1
 388.888671875 389.111328125 l 1
 222.22265625 389.111328125 l 1
 222.22265625 333.555664062 l 1025
111.111328125 278 m 1
 277.77734375 278 l 1
 277.77734375 333.555664062 l 1
 111.111328125 333.555664062 l 1
 111.111328125 278 l 1025
333.333007812 278 m 1
 444.444335938 278 l 1
 444.444335938 333.555664062 l 1
 333.333007812 333.555664062 l 1
 333.333007812 278 l 1025
111.111328125 222.444335938 m 1
 222.22265625 222.444335938 l 1
 222.22265625 278 l 1
 111.111328125 278 l 1
 111.111328125 222.444335938 l 1025
111.111328125 166.888671875 m 1
 222.22265625 166.888671875 l 1
 222.22265625 222.444335938 l 1
 111.111328125 222.444335938 l 1
 111.111328125 166.888671875 l 1025
111.111328125 111.333007812 m 1
 222.22265625 111.333007812 l 1
 222.22265625 166.888671875 l 1
 111.111328125 166.888671875 l 1
 111.111328125 111.333007812 l 1025
111.111328125 55.77734375 m 1
 222.22265625 55.77734375 l 1
 222.22265625 111.333007812 l 1
 111.111328125 111.333007812 l 1
 111.111328125 55.77734375 l 1025
111.111328125 0.22265625 m 1
 222.22265625 0.22265625 l 1
 222.22265625 55.77734375 l 1
 111.111328125 55.77734375 l 1
 111.111328125 0.22265625 l 1
EndSplineSet
EndChar

StartChar: s
Encoding: 115 115 84
Width: 500
VWidth: 0
Flags: HW
LayerCount: 2
Back
Fore
SplineSet
111.111328125 333.555664062 m 1
 388.888671875 333.555664062 l 1
 388.888671875 389.111328125 l 1
 111.111328125 389.111328125 l 1
 111.111328125 333.555664062 l 1025
55.5556640625 278 m 1
 166.666992188 278 l 1
 166.666992188 333.555664062 l 1
 55.5556640625 333.555664062 l 1
 55.5556640625 278 l 1025
333.333007812 278 m 1
 444.444335938 278 l 1
 444.444335938 333.555664062 l 1
 333.333007812 333.555664062 l 1
 333.333007812 278 l 1025
55.5556640625 222.444335938 m 1
 166.666992188 222.444335938 l 1
 166.666992188 278 l 1
 55.5556640625 278 l 1
 55.5556640625 222.444335938 l 1025
111.111328125 166.888671875 m 1
 388.888671875 166.888671875 l 1
 388.888671875 222.444335938 l 1
 111.111328125 222.444335938 l 1
 111.111328125 166.888671875 l 1025
333.333007812 111.333007812 m 1
 444.444335938 111.333007812 l 1
 444.444335938 166.888671875 l 1
 333.333007812 166.888671875 l 1
 333.333007812 111.333007812 l 1025
55.5556640625 55.77734375 m 1
 166.666992188 55.77734375 l 1
 166.666992188 111.333007812 l 1
 55.5556640625 111.333007812 l 1
 55.5556640625 55.77734375 l 1025
333.333007812 55.77734375 m 1
 444.444335938 55.77734375 l 1
 444.444335938 111.333007812 l 1
 333.333007812 111.333007812 l 1
 333.333007812 55.77734375 l 1025
111.111328125 0.22265625 m 1
 388.888671875 0.22265625 l 1
 388.888671875 55.77734375 l 1
 111.111328125 55.77734375 l 1
 111.111328125 0.22265625 l 1
EndSplineSet
EndChar

StartChar: t
Encoding: 116 116 85
Width: 500
VWidth: 0
Flags: HW
LayerCount: 2
Back
Fore
SplineSet
166.666992188 444.666992188 m 1
 277.77734375 444.666992188 l 1
 277.77734375 500.22265625 l 1
 166.666992188 500.22265625 l 1
 166.666992188 444.666992188 l 1025
166.666992188 389.111328125 m 1
 277.77734375 389.111328125 l 1
 277.77734375 444.666992188 l 1
 166.666992188 444.666992188 l 1
 166.666992188 389.111328125 l 1025
55.5556640625 333.555664062 m 1
 388.888671875 333.555664062 l 1
 388.888671875 389.111328125 l 1
 55.5556640625 389.111328125 l 1
 55.5556640625 333.555664062 l 1025
166.666992188 278 m 1
 277.77734375 278 l 1
 277.77734375 333.555664062 l 1
 166.666992188 333.555664062 l 1
 166.666992188 278 l 1025
166.666992188 222.444335938 m 1
 277.77734375 222.444335938 l 1
 277.77734375 278 l 1
 166.666992188 278 l 1
 166.666992188 222.444335938 l 1025
166.666992188 166.888671875 m 1
 277.77734375 166.888671875 l 1
 277.77734375 222.444335938 l 1
 166.666992188 222.444335938 l 1
 166.666992188 166.888671875 l 1025
166.666992188 111.333007812 m 1
 277.77734375 111.333007812 l 1
 277.77734375 166.888671875 l 1
 166.666992188 166.888671875 l 1
 166.666992188 111.333007812 l 1025
166.666992188 55.77734375 m 1
 277.77734375 55.77734375 l 1
 277.77734375 111.333007812 l 1
 166.666992188 111.333007812 l 1
 166.666992188 55.77734375 l 1025
333.333007812 55.77734375 m 1
 444.444335938 55.77734375 l 1
 444.444335938 111.333007812 l 1
 333.333007812 111.333007812 l 1
 333.333007812 55.77734375 l 1025
222.22265625 0.22265625 m 1
 388.888671875 0.22265625 l 1
 388.888671875 55.77734375 l 1
 222.22265625 55.77734375 l 1
 222.22265625 0.22265625 l 1
EndSplineSet
EndChar

StartChar: u
Encoding: 117 117 86
Width: 500
VWidth: 0
Flags: HW
LayerCount: 2
Back
Fore
SplineSet
55.5556640625 333.555664062 m 1
 166.666992188 333.555664062 l 1
 166.666992188 389.111328125 l 1
 55.5556640625 389.111328125 l 1
 55.5556640625 333.555664062 l 1025
333.333007812 333.555664062 m 1
 444.444335938 333.555664062 l 1
 444.444335938 389.111328125 l 1
 333.333007812 389.111328125 l 1
 333.333007812 333.555664062 l 1025
55.5556640625 278 m 1
 166.666992188 278 l 1
 166.666992188 333.555664062 l 1
 55.5556640625 333.555664062 l 1
 55.5556640625 278 l 1025
333.333007812 278 m 1
 444.444335938 278 l 1
 444.444335938 333.555664062 l 1
 333.333007812 333.555664062 l 1
 333.333007812 278 l 1025
55.5556640625 222.444335938 m 1
 166.666992188 222.444335938 l 1
 166.666992188 278 l 1
 55.5556640625 278 l 1
 55.5556640625 222.444335938 l 1025
333.333007812 222.444335938 m 1
 444.444335938 222.444335938 l 1
 444.444335938 278 l 1
 333.333007812 278 l 1
 333.333007812 222.444335938 l 1025
55.5556640625 166.888671875 m 1
 166.666992188 166.888671875 l 1
 166.666992188 222.444335938 l 1
 55.5556640625 222.444335938 l 1
 55.5556640625 166.888671875 l 1025
333.333007812 166.888671875 m 1
 444.444335938 166.888671875 l 1
 444.444335938 222.444335938 l 1
 333.333007812 222.444335938 l 1
 333.333007812 166.888671875 l 1025
55.5556640625 111.333007812 m 1
 166.666992188 111.333007812 l 1
 166.666992188 166.888671875 l 1
 55.5556640625 166.888671875 l 1
 55.5556640625 111.333007812 l 1025
333.333007812 111.333007812 m 1
 444.444335938 111.333007812 l 1
 444.444335938 166.888671875 l 1
 333.333007812 166.888671875 l 1
 333.333007812 111.333007812 l 1025
55.5556640625 55.77734375 m 1
 166.666992188 55.77734375 l 1
 166.666992188 111.333007812 l 1
 55.5556640625 111.333007812 l 1
 55.5556640625 55.77734375 l 1025
333.333007812 55.77734375 m 1
 444.444335938 55.77734375 l 1
 444.444335938 111.333007812 l 1
 333.333007812 111.333007812 l 1
 333.333007812 55.77734375 l 1025
111.111328125 0.22265625 m 1
 444.444335938 0.22265625 l 1
 444.444335938 55.77734375 l 1
 111.111328125 55.77734375 l 1
 111.111328125 0.22265625 l 1
EndSplineSet
EndChar

StartChar: v
Encoding: 118 118 87
Width: 500
VWidth: 0
Flags: HW
LayerCount: 2
Back
Fore
SplineSet
55.5556640625 333.555664062 m 1
 166.666992188 333.555664062 l 1
 166.666992188 389.111328125 l 1
 55.5556640625 389.111328125 l 1
 55.5556640625 333.555664062 l 1025
333.333007812 333.555664062 m 1
 444.444335938 333.555664062 l 1
 444.444335938 389.111328125 l 1
 333.333007812 389.111328125 l 1
 333.333007812 333.555664062 l 1025
55.5556640625 278 m 1
 166.666992188 278 l 1
 166.666992188 333.555664062 l 1
 55.5556640625 333.555664062 l 1
 55.5556640625 278 l 1025
333.333007812 278 m 1
 444.444335938 278 l 1
 444.444335938 333.555664062 l 1
 333.333007812 333.555664062 l 1
 333.333007812 278 l 1025
111.111328125 222.444335938 m 1
 222.22265625 222.444335938 l 1
 222.22265625 278 l 1
 111.111328125 278 l 1
 111.111328125 222.444335938 l 1025
277.77734375 222.444335938 m 1
 388.888671875 222.444335938 l 1
 388.888671875 278 l 1
 277.77734375 278 l 1
 277.77734375 222.444335938 l 1025
111.111328125 166.888671875 m 1
 222.22265625 166.888671875 l 1
 222.22265625 222.444335938 l 1
 111.111328125 222.444335938 l 1
 111.111328125 166.888671875 l 1025
277.77734375 166.888671875 m 1
 388.888671875 166.888671875 l 1
 388.888671875 222.444335938 l 1
 277.77734375 222.444335938 l 1
 277.77734375 166.888671875 l 1025
166.666992188 111.333007812 m 1
 333.333007812 111.333007812 l 1
 333.333007812 166.888671875 l 1
 166.666992188 166.888671875 l 1
 166.666992188 111.333007812 l 1025
166.666992188 55.77734375 m 1
 333.333007812 55.77734375 l 1
 333.333007812 111.333007812 l 1
 166.666992188 111.333007812 l 1
 166.666992188 55.77734375 l 1025
222.22265625 0.22265625 m 1
 277.77734375 0.22265625 l 1
 277.77734375 55.77734375 l 1
 222.22265625 55.77734375 l 1
 222.22265625 0.22265625 l 1
EndSplineSet
EndChar

StartChar: w
Encoding: 119 119 88
Width: 500
VWidth: 0
Flags: HW
LayerCount: 2
Back
Fore
SplineSet
0 333.555664062 m 1
 111.111328125 333.555664062 l 1
 111.111328125 389.111328125 l 1
 0 389.111328125 l 1
 0 333.555664062 l 1025
333.333007812 333.555664062 m 1
 444.444335938 333.555664062 l 1
 444.444335938 389.111328125 l 1
 333.333007812 389.111328125 l 1
 333.333007812 333.555664062 l 1025
0 278 m 1
 111.111328125 278 l 1
 111.111328125 333.555664062 l 1
 0 333.555664062 l 1
 0 278 l 1025
333.333007812 278 m 1
 444.444335938 278 l 1
 444.444335938 333.555664062 l 1
 333.333007812 333.555664062 l 1
 333.333007812 278 l 1025
0 222.444335938 m 1
 111.111328125 222.444335938 l 1
 111.111328125 278 l 1
 0 278 l 1
 0 222.444335938 l 1025
166.666992188 222.444335938 m 1
 277.77734375 222.444335938 l 1
 277.77734375 278 l 1
 166.666992188 278 l 1
 166.666992188 222.444335938 l 1025
333.333007812 222.444335938 m 1
 444.444335938 222.444335938 l 1
 444.444335938 278 l 1
 333.333007812 278 l 1
 333.333007812 222.444335938 l 1025
0 166.888671875 m 1
 111.111328125 166.888671875 l 1
 111.111328125 222.444335938 l 1
 0 222.444335938 l 1
 0 166.888671875 l 1025
166.666992188 166.888671875 m 1
 277.77734375 166.888671875 l 1
 277.77734375 222.444335938 l 1
 166.666992188 222.444335938 l 1
 166.666992188 166.888671875 l 1025
333.333007812 166.888671875 m 1
 444.444335938 166.888671875 l 1
 444.444335938 222.444335938 l 1
 333.333007812 222.444335938 l 1
 333.333007812 166.888671875 l 1025
0 111.333007812 m 1
 111.111328125 111.333007812 l 1
 111.111328125 166.888671875 l 1
 0 166.888671875 l 1
 0 111.333007812 l 1025
166.666992188 111.333007812 m 1
 277.77734375 111.333007812 l 1
 277.77734375 166.888671875 l 1
 166.666992188 166.888671875 l 1
 166.666992188 111.333007812 l 1025
333.333007812 111.333007812 m 1
 444.444335938 111.333007812 l 1
 444.444335938 166.888671875 l 1
 333.333007812 166.888671875 l 1
 333.333007812 111.333007812 l 1025
0 55.77734375 m 1
 444.444335938 55.77734375 l 1
 444.444335938 111.333007812 l 1
 0 111.333007812 l 1
 0 55.77734375 l 1025
55.5556640625 0.22265625 m 1
 166.666992188 0.22265625 l 1
 166.666992188 55.77734375 l 1
 55.5556640625 55.77734375 l 1
 55.5556640625 0.22265625 l 1025
277.77734375 0.22265625 m 1
 388.888671875 0.22265625 l 1
 388.888671875 55.77734375 l 1
 277.77734375 55.77734375 l 1
 277.77734375 0.22265625 l 1
EndSplineSet
EndChar

StartChar: x
Encoding: 120 120 89
Width: 500
VWidth: 0
Flags: HW
LayerCount: 2
Back
Fore
SplineSet
55.5556640625 333.555664062 m 1
 166.666992188 333.555664062 l 1
 166.666992188 389.111328125 l 1
 55.5556640625 389.111328125 l 1
 55.5556640625 333.555664062 l 1025
333.333007812 333.555664062 m 1
 444.444335938 333.555664062 l 1
 444.444335938 389.111328125 l 1
 333.333007812 389.111328125 l 1
 333.333007812 333.555664062 l 1025
111.111328125 278 m 1
 222.22265625 278 l 1
 222.22265625 333.555664062 l 1
 111.111328125 333.555664062 l 1
 111.111328125 278 l 1025
277.77734375 278 m 1
 388.888671875 278 l 1
 388.888671875 333.555664062 l 1
 277.77734375 333.555664062 l 1
 277.77734375 278 l 1025
166.666992188 222.444335938 m 1
 333.333007812 222.444335938 l 1
 333.333007812 278 l 1
 166.666992188 278 l 1
 166.666992188 222.444335938 l 1025
222.22265625 166.888671875 m 1
 277.77734375 166.888671875 l 1
 277.77734375 222.444335938 l 1
 222.22265625 222.444335938 l 1
 222.22265625 166.888671875 l 1025
166.666992188 111.333007812 m 1
 333.333007812 111.333007812 l 1
 333.333007812 166.888671875 l 1
 166.666992188 166.888671875 l 1
 166.666992188 111.333007812 l 1025
111.111328125 55.77734375 m 1
 222.22265625 55.77734375 l 1
 222.22265625 111.333007812 l 1
 111.111328125 111.333007812 l 1
 111.111328125 55.77734375 l 1025
277.77734375 55.77734375 m 1
 388.888671875 55.77734375 l 1
 388.888671875 111.333007812 l 1
 277.77734375 111.333007812 l 1
 277.77734375 55.77734375 l 1025
55.5556640625 0.22265625 m 1
 166.666992188 0.22265625 l 1
 166.666992188 55.77734375 l 1
 55.5556640625 55.77734375 l 1
 55.5556640625 0.22265625 l 1025
333.333007812 0.22265625 m 1
 444.444335938 0.22265625 l 1
 444.444335938 55.77734375 l 1
 333.333007812 55.77734375 l 1
 333.333007812 0.22265625 l 1
EndSplineSet
EndChar

StartChar: y
Encoding: 121 121 90
Width: 500
VWidth: 0
Flags: HW
LayerCount: 2
Back
Fore
SplineSet
55.5556640625 333.555664062 m 1
 166.666992188 333.555664062 l 1
 166.666992188 389.111328125 l 1
 55.5556640625 389.111328125 l 1
 55.5556640625 333.555664062 l 1025
333.333007812 333.555664062 m 1
 444.444335938 333.555664062 l 1
 444.444335938 389.111328125 l 1
 333.333007812 389.111328125 l 1
 333.333007812 333.555664062 l 1025
55.5556640625 278 m 1
 166.666992188 278 l 1
 166.666992188 333.555664062 l 1
 55.5556640625 333.555664062 l 1
 55.5556640625 278 l 1025
333.333007812 278 m 1
 444.444335938 278 l 1
 444.444335938 333.555664062 l 1
 333.333007812 333.555664062 l 1
 333.333007812 278 l 1025
111.111328125 222.444335938 m 1
 222.22265625 222.444335938 l 1
 222.22265625 278 l 1
 111.111328125 278 l 1
 111.111328125 222.444335938 l 1025
277.77734375 222.444335938 m 1
 388.888671875 222.444335938 l 1
 388.888671875 278 l 1
 277.77734375 278 l 1
 277.77734375 222.444335938 l 1025
111.111328125 166.888671875 m 1
 222.22265625 166.888671875 l 1
 222.22265625 222.444335938 l 1
 111.111328125 222.444335938 l 1
 111.111328125 166.888671875 l 1025
277.77734375 166.888671875 m 1
 388.888671875 166.888671875 l 1
 388.888671875 222.444335938 l 1
 277.77734375 222.444335938 l 1
 277.77734375 166.888671875 l 1025
111.111328125 111.333007812 m 1
 222.22265625 111.333007812 l 1
 222.22265625 166.888671875 l 1
 111.111328125 166.888671875 l 1
 111.111328125 111.333007812 l 1025
277.77734375 111.333007812 m 1
 388.888671875 111.333007812 l 1
 388.888671875 166.888671875 l 1
 277.77734375 166.888671875 l 1
 277.77734375 111.333007812 l 1025
166.666992188 55.77734375 m 1
 333.333007812 55.77734375 l 1
 333.333007812 111.333007812 l 1
 166.666992188 111.333007812 l 1
 166.666992188 55.77734375 l 1025
166.666992188 0.22265625 m 1
 333.333007812 0.22265625 l 1
 333.333007812 55.77734375 l 1
 166.666992188 55.77734375 l 1
 166.666992188 0.22265625 l 1025
166.666992188 -55.3330078125 m 1
 277.77734375 -55.3330078125 l 1
 277.77734375 0.22265625 l 1
 166.666992188 0.22265625 l 1
 166.666992188 -55.3330078125 l 1025
55.5556640625 -110.888671875 m 1
 111.111328125 -110.888671875 l 1
 111.111328125 -55.3330078125 l 1
 55.5556640625 -55.3330078125 l 1
 55.5556640625 -110.888671875 l 1025
166.666992188 -110.888671875 m 1
 277.77734375 -110.888671875 l 1
 277.77734375 -55.3330078125 l 1
 166.666992188 -55.3330078125 l 1
 166.666992188 -110.888671875 l 1025
111.111328125 -166.444335938 m 1
 222.22265625 -166.444335938 l 1
 222.22265625 -110.888671875 l 1
 111.111328125 -110.888671875 l 1
 111.111328125 -166.444335938 l 1
EndSplineSet
EndChar

StartChar: z
Encoding: 122 122 91
Width: 500
VWidth: 0
Flags: HW
LayerCount: 2
Back
Fore
SplineSet
55.5556640625 333.555664062 m 1
 388.888671875 333.555664062 l 1
 388.888671875 389.111328125 l 1
 55.5556640625 389.111328125 l 1
 55.5556640625 333.555664062 l 1025
277.77734375 278 m 1
 388.888671875 278 l 1
 388.888671875 333.555664062 l 1
 277.77734375 333.555664062 l 1
 277.77734375 278 l 1025
222.22265625 222.444335938 m 1
 333.333007812 222.444335938 l 1
 333.333007812 278 l 1
 222.22265625 278 l 1
 222.22265625 222.444335938 l 1025
166.666992188 166.888671875 m 1
 277.77734375 166.888671875 l 1
 277.77734375 222.444335938 l 1
 166.666992188 222.444335938 l 1
 166.666992188 166.888671875 l 1025
111.111328125 111.333007812 m 1
 222.22265625 111.333007812 l 1
 222.22265625 166.888671875 l 1
 111.111328125 166.888671875 l 1
 111.111328125 111.333007812 l 1025
55.5556640625 55.77734375 m 1
 166.666992188 55.77734375 l 1
 166.666992188 111.333007812 l 1
 55.5556640625 111.333007812 l 1
 55.5556640625 55.77734375 l 1025
55.5556640625 0.22265625 m 1
 388.888671875 0.22265625 l 1
 388.888671875 55.77734375 l 1
 55.5556640625 55.77734375 l 1
 55.5556640625 0.22265625 l 1
EndSplineSet
EndChar

StartChar: braceleft
Encoding: 123 123 92
Width: 500
VWidth: 0
Flags: HW
LayerCount: 2
Back
Fore
SplineSet
166.666992188 555.77734375 m 1
 388.888671875 555.77734375 l 1
 388.888671875 611.333007812 l 1
 166.666992188 611.333007812 l 1
 166.666992188 555.77734375 l 1025
111.111328125 500.22265625 m 1
 222.22265625 500.22265625 l 1
 222.22265625 555.77734375 l 1
 111.111328125 555.77734375 l 1
 111.111328125 500.22265625 l 1025
111.111328125 444.666992188 m 1
 222.22265625 444.666992188 l 1
 222.22265625 500.22265625 l 1
 111.111328125 500.22265625 l 1
 111.111328125 444.666992188 l 1025
111.111328125 389.111328125 m 1
 222.22265625 389.111328125 l 1
 222.22265625 444.666992188 l 1
 111.111328125 444.666992188 l 1
 111.111328125 389.111328125 l 1025
111.111328125 333.555664062 m 1
 222.22265625 333.555664062 l 1
 222.22265625 389.111328125 l 1
 111.111328125 389.111328125 l 1
 111.111328125 333.555664062 l 1025
55.5556640625 278 m 1
 166.666992188 278 l 1
 166.666992188 333.555664062 l 1
 55.5556640625 333.555664062 l 1
 55.5556640625 278 l 1025
111.111328125 222.444335938 m 1
 222.22265625 222.444335938 l 1
 222.22265625 278 l 1
 111.111328125 278 l 1
 111.111328125 222.444335938 l 1025
111.111328125 166.888671875 m 1
 222.22265625 166.888671875 l 1
 222.22265625 222.444335938 l 1
 111.111328125 222.444335938 l 1
 111.111328125 166.888671875 l 1025
111.111328125 111.333007812 m 1
 222.22265625 111.333007812 l 1
 222.22265625 166.888671875 l 1
 111.111328125 166.888671875 l 1
 111.111328125 111.333007812 l 1025
111.111328125 55.77734375 m 1
 222.22265625 55.77734375 l 1
 222.22265625 111.333007812 l 1
 111.111328125 111.333007812 l 1
 111.111328125 55.77734375 l 1025
166.666992188 0.22265625 m 1
 388.888671875 0.22265625 l 1
 388.888671875 55.77734375 l 1
 166.666992188 55.77734375 l 1
 166.666992188 0.22265625 l 1
EndSplineSet
EndChar

StartChar: bar
Encoding: 124 124 93
Width: 500
VWidth: 0
Flags: HW
LayerCount: 2
Back
Fore
SplineSet
166.666992188 555.77734375 m 1
 277.77734375 555.77734375 l 1
 277.77734375 611.333007812 l 1
 166.666992188 611.333007812 l 1
 166.666992188 555.77734375 l 1025
166.666992188 500.22265625 m 1
 277.77734375 500.22265625 l 1
 277.77734375 555.77734375 l 1
 166.666992188 555.77734375 l 1
 166.666992188 500.22265625 l 1025
166.666992188 444.666992188 m 1
 277.77734375 444.666992188 l 1
 277.77734375 500.22265625 l 1
 166.666992188 500.22265625 l 1
 166.666992188 444.666992188 l 1025
166.666992188 389.111328125 m 1
 277.77734375 389.111328125 l 1
 277.77734375 444.666992188 l 1
 166.666992188 444.666992188 l 1
 166.666992188 389.111328125 l 1025
166.666992188 333.555664062 m 1
 277.77734375 333.555664062 l 1
 277.77734375 389.111328125 l 1
 166.666992188 389.111328125 l 1
 166.666992188 333.555664062 l 1025
166.666992188 278 m 1
 277.77734375 278 l 1
 277.77734375 333.555664062 l 1
 166.666992188 333.555664062 l 1
 166.666992188 278 l 1025
166.666992188 222.444335938 m 1
 277.77734375 222.444335938 l 1
 277.77734375 278 l 1
 166.666992188 278 l 1
 166.666992188 222.444335938 l 1025
166.666992188 166.888671875 m 1
 277.77734375 166.888671875 l 1
 277.77734375 222.444335938 l 1
 166.666992188 222.444335938 l 1
 166.666992188 166.888671875 l 1025
166.666992188 111.333007812 m 1
 277.77734375 111.333007812 l 1
 277.77734375 166.888671875 l 1
 166.666992188 166.888671875 l 1
 166.666992188 111.333007812 l 1025
166.666992188 55.77734375 m 1
 277.77734375 55.77734375 l 1
 277.77734375 111.333007812 l 1
 166.666992188 111.333007812 l 1
 166.666992188 55.77734375 l 1025
166.666992188 0.22265625 m 1
 277.77734375 0.22265625 l 1
 277.77734375 55.77734375 l 1
 166.666992188 55.77734375 l 1
 166.666992188 0.22265625 l 1025
166.666992188 -55.3330078125 m 1
 277.77734375 -55.3330078125 l 1
 277.77734375 0.22265625 l 1
 166.666992188 0.22265625 l 1
 166.666992188 -55.3330078125 l 1
EndSplineSet
EndChar

StartChar: braceright
Encoding: 125 125 94
Width: 500
VWidth: 0
Flags: HW
LayerCount: 2
Back
Fore
SplineSet
55.5556640625 555.77734375 m 1
 222.22265625 555.77734375 l 1
 222.22265625 611.333007812 l 1
 55.5556640625 611.333007812 l 1
 55.5556640625 555.77734375 l 1025
166.666992188 500.22265625 m 1
 277.77734375 500.22265625 l 1
 277.77734375 555.77734375 l 1
 166.666992188 555.77734375 l 1
 166.666992188 500.22265625 l 1025
166.666992188 444.666992188 m 1
 277.77734375 444.666992188 l 1
 277.77734375 500.22265625 l 1
 166.666992188 500.22265625 l 1
 166.666992188 444.666992188 l 1025
166.666992188 389.111328125 m 1
 277.77734375 389.111328125 l 1
 277.77734375 444.666992188 l 1
 166.666992188 444.666992188 l 1
 166.666992188 389.111328125 l 1025
166.666992188 333.555664062 m 1
 277.77734375 333.555664062 l 1
 277.77734375 389.111328125 l 1
 166.666992188 389.111328125 l 1
 166.666992188 333.555664062 l 1025
222.22265625 278 m 1
 388.888671875 278 l 1
 388.888671875 333.555664062 l 1
 222.22265625 333.555664062 l 1
 222.22265625 278 l 1025
166.666992188 222.444335938 m 1
 277.77734375 222.444335938 l 1
 277.77734375 278 l 1
 166.666992188 278 l 1
 166.666992188 222.444335938 l 1025
166.666992188 166.888671875 m 1
 277.77734375 166.888671875 l 1
 277.77734375 222.444335938 l 1
 166.666992188 222.444335938 l 1
 166.666992188 166.888671875 l 1025
166.666992188 111.333007812 m 1
 277.77734375 111.333007812 l 1
 277.77734375 166.888671875 l 1
 166.666992188 166.888671875 l 1
 166.666992188 111.333007812 l 1025
166.666992188 55.77734375 m 1
 277.77734375 55.77734375 l 1
 277.77734375 111.333007812 l 1
 166.666992188 111.333007812 l 1
 166.666992188 55.77734375 l 1025
55.5556640625 0.22265625 m 1
 222.22265625 0.22265625 l 1
 222.22265625 55.77734375 l 1
 55.5556640625 55.77734375 l 1
 55.5556640625 0.22265625 l 1
EndSplineSet
EndChar

StartChar: asciitilde
Encoding: 126 126 95
Width: 500
VWidth: 0
Flags: HW
LayerCount: 2
Back
Fore
SplineSet
55.5556640625 500.22265625 m 1
 222.22265625 500.22265625 l 1
 222.22265625 555.77734375 l 1
 55.5556640625 555.77734375 l 1
 55.5556640625 500.22265625 l 1025
333.333007812 500.22265625 m 1
 444.444335938 500.22265625 l 1
 444.444335938 555.77734375 l 1
 333.333007812 555.77734375 l 1
 333.333007812 500.22265625 l 1025
0 444.666992188 m 1
 111.111328125 444.666992188 l 1
 111.111328125 500.22265625 l 1
 0 500.22265625 l 1
 0 444.666992188 l 1025
166.666992188 444.666992188 m 1
 277.77734375 444.666992188 l 1
 277.77734375 500.22265625 l 1
 166.666992188 500.22265625 l 1
 166.666992188 444.666992188 l 1025
333.333007812 444.666992188 m 1
 444.444335938 444.666992188 l 1
 444.444335938 500.22265625 l 1
 333.333007812 500.22265625 l 1
 333.333007812 444.666992188 l 1025
0 389.111328125 m 1
 111.111328125 389.111328125 l 1
 111.111328125 444.666992188 l 1
 0 444.666992188 l 1
 0 389.111328125 l 1025
222.22265625 389.111328125 m 1
 388.888671875 389.111328125 l 1
 388.888671875 444.666992188 l 1
 222.22265625 444.666992188 l 1
 222.22265625 389.111328125 l 1
EndSplineSet
EndChar

StartChar: exclamdown
Encoding: 161 161 97
Width: 500
VWidth: 0
Flags: HW
LayerCount: 2
Back
Fore
SplineSet
222.22265625 500.22265625 m 1
 333.333007812 500.22265625 l 1
 333.333007812 555.77734375 l 1
 222.22265625 555.77734375 l 1
 222.22265625 500.22265625 l 1025
222.22265625 389.111328125 m 1
 333.333007812 389.111328125 l 1
 333.333007812 444.666992188 l 1
 222.22265625 444.666992188 l 1
 222.22265625 389.111328125 l 1025
222.22265625 333.555664062 m 1
 333.333007812 333.555664062 l 1
 333.333007812 389.111328125 l 1
 222.22265625 389.111328125 l 1
 222.22265625 333.555664062 l 1025
222.22265625 278 m 1
 333.333007812 278 l 1
 333.333007812 333.555664062 l 1
 222.22265625 333.555664062 l 1
 222.22265625 278 l 1025
222.22265625 222.444335938 m 1
 333.333007812 222.444335938 l 1
 333.333007812 278 l 1
 222.22265625 278 l 1
 222.22265625 222.444335938 l 1025
222.22265625 166.888671875 m 1
 333.333007812 166.888671875 l 1
 333.333007812 222.444335938 l 1
 222.22265625 222.444335938 l 1
 222.22265625 166.888671875 l 1025
222.22265625 111.333007812 m 1
 333.333007812 111.333007812 l 1
 333.333007812 166.888671875 l 1
 222.22265625 166.888671875 l 1
 222.22265625 111.333007812 l 1025
222.22265625 55.77734375 m 1
 333.333007812 55.77734375 l 1
 333.333007812 111.333007812 l 1
 222.22265625 111.333007812 l 1
 222.22265625 55.77734375 l 1025
222.22265625 0.22265625 m 1
 333.333007812 0.22265625 l 1
 333.333007812 55.77734375 l 1
 222.22265625 55.77734375 l 1
 222.22265625 0.22265625 l 1
EndSplineSet
EndChar

StartChar: cent
Encoding: 162 162 98
Width: 500
VWidth: 0
Flags: HW
LayerCount: 2
Back
Fore
SplineSet
333.333007812 389.111328125 m 1
 388.888671875 389.111328125 l 1
 388.888671875 444.666992188 l 1
 333.333007812 444.666992188 l 1
 333.333007812 389.111328125 l 1025
111.111328125 333.555664062 m 1
 388.888671875 333.555664062 l 1
 388.888671875 389.111328125 l 1
 111.111328125 389.111328125 l 1
 111.111328125 333.555664062 l 1025
55.5556640625 278 m 1
 166.666992188 278 l 1
 166.666992188 333.555664062 l 1
 55.5556640625 333.555664062 l 1
 55.5556640625 278 l 1025
277.77734375 278 m 1
 444.444335938 278 l 1
 444.444335938 333.555664062 l 1
 277.77734375 333.555664062 l 1
 277.77734375 278 l 1025
55.5556640625 222.444335938 m 1
 166.666992188 222.444335938 l 1
 166.666992188 278 l 1
 55.5556640625 278 l 1
 55.5556640625 222.444335938 l 1025
222.22265625 222.444335938 m 1
 277.77734375 222.444335938 l 1
 277.77734375 278 l 1
 222.22265625 278 l 1
 222.22265625 222.444335938 l 1025
55.5556640625 166.888671875 m 1
 166.666992188 166.888671875 l 1
 166.666992188 222.444335938 l 1
 55.5556640625 222.444335938 l 1
 55.5556640625 166.888671875 l 1025
222.22265625 166.888671875 m 1
 277.77734375 166.888671875 l 1
 277.77734375 222.444335938 l 1
 222.22265625 222.444335938 l 1
 222.22265625 166.888671875 l 1025
55.5556640625 111.333007812 m 1
 222.22265625 111.333007812 l 1
 222.22265625 166.888671875 l 1
 55.5556640625 166.888671875 l 1
 55.5556640625 111.333007812 l 1025
333.333007812 111.333007812 m 1
 444.444335938 111.333007812 l 1
 444.444335938 166.888671875 l 1
 333.333007812 166.888671875 l 1
 333.333007812 111.333007812 l 1025
111.111328125 55.77734375 m 1
 388.888671875 55.77734375 l 1
 388.888671875 111.333007812 l 1
 111.111328125 111.333007812 l 1
 111.111328125 55.77734375 l 1025
111.111328125 0.22265625 m 1
 166.666992188 0.22265625 l 1
 166.666992188 55.77734375 l 1
 111.111328125 55.77734375 l 1
 111.111328125 0.22265625 l 1
EndSplineSet
EndChar

